<svg xmlns="http://www.w3.org/2000/svg" xmlns:xlink="http://www.w3.org/1999/xlink" width="93" height="93" viewBox="0 0 93 93">
  <defs>
    <filter id="Trazado_904820" x="0" y="0" width="93" height="93" filterUnits="userSpaceOnUse">
      <feOffset dy="3" input="SourceAlpha"/>
      <feGaussianBlur stdDeviation="3" result="blur"/>
      <feFlood flood-opacity="0.161"/>
      <feComposite operator="in" in2="blur"/>
      <feComposite in="SourceGraphic"/>
    </filter>
  </defs>
  <g id="Grupo_1203789" data-name="Grupo 1203789" transform="translate(-201 -301)">
    <g id="Grupo_1203724" data-name="Grupo 1203724" transform="translate(210 307)">
      <g id="Grupo_1173585" data-name="Grupo 1173585" transform="translate(0 0)">
        <g id="Grupo_1173428" data-name="Grupo 1173428">
          <g id="Grupo_1171958" data-name="Grupo 1171958">
            <g id="Grupo_1167341" data-name="Grupo 1167341">
              <g id="Grupo_1166792" data-name="Grupo 1166792">
                <g transform="matrix(1, 0, 0, 1, -9, -6)" filter="url(#Trazado_904820)">
                  <g id="Trazado_904820-2" data-name="Trazado 904820" transform="translate(9 6)" fill="#e9f9fd">
                    <path d="M 37.5 73.50003051757812 C 32.63936614990234 73.50003051757812 27.9249324798584 72.54840850830078 23.48763275146484 70.67159271240234 C 19.20095634460449 68.85847473144531 15.35082244873047 66.26253509521484 12.04415512084961 62.95586776733398 C 8.737500190734863 59.64921188354492 6.141555786132812 55.79906845092773 4.328444480895996 51.51239013671875 C 2.451622247695923 47.07508850097656 1.5 42.36065673828125 1.5 37.50002288818359 C 1.5 32.63938903808594 2.451622247695923 27.92494583129883 4.328444480895996 23.48765563964844 C 6.141555786132812 19.20097923278809 8.737500190734863 15.35083389282227 12.04415512084961 12.04416751861572 C 15.35082244873047 8.73751163482666 19.20095634460449 6.141567230224609 23.48763275146484 4.328456401824951 C 27.9249324798584 2.451633930206299 32.63936614990234 1.500011801719666 37.5 1.500011801719666 C 42.36063385009766 1.500011801719666 47.07506561279297 2.451633930206299 51.51236724853516 4.328456401824951 C 55.79904556274414 6.141567230224609 59.64917755126953 8.73751163482666 62.95584487915039 12.04416751861572 C 66.26249694824219 15.35083389282227 68.85844421386719 19.20097923278809 70.67155456542969 23.48765563964844 C 72.54837799072266 27.92494583129883 73.5 32.63938903808594 73.5 37.50002288818359 C 73.5 42.36065673828125 72.54837799072266 47.07508850097656 70.67155456542969 51.51239013671875 C 68.85844421386719 55.79906845092773 66.26249694824219 59.64921188354492 62.95584487915039 62.95586776733398 C 59.64917755126953 66.26253509521484 55.79904556274414 68.85847473144531 51.51236724853516 70.67159271240234 C 47.07506561279297 72.54840850830078 42.36063385009766 73.50003051757812 37.5 73.50003051757812 Z" stroke="none"/>
                    <path d="M 37.5 3.000007629394531 C 32.84121322631836 3.000007629394531 28.3233642578125 3.911773681640625 24.07196426391602 5.7099609375 C 19.96408843994141 7.44744873046875 16.27420043945312 9.935432434082031 13.10481262207031 13.10482406616211 C 9.9354248046875 16.27422332763672 7.447441101074219 19.96409606933594 5.709953308105469 24.07198715209961 C 3.911766052246094 28.32338714599609 3 32.84122467041016 3 37.50002288818359 C 3 42.15880966186523 3.911766052246094 46.67665863037109 5.709953308105469 50.92806243896484 C 7.447441101074219 55.03593444824219 9.9354248046875 58.72582244873047 13.10481262207031 61.89521026611328 C 16.27421188354492 65.06459808349609 19.96408843994141 67.55259704589844 24.07196426391602 69.29008483886719 C 28.3233642578125 71.08827209472656 32.84121322631836 72.00003814697266 37.5 72.00003814697266 C 42.15878677368164 72.00003814697266 46.6766357421875 71.08827209472656 50.92803955078125 69.29008483886719 C 55.03591156005859 67.55259704589844 58.72578811645508 65.06459808349609 61.89518737792969 61.89521026611328 C 65.0645751953125 58.72582244873047 67.55256652832031 55.03593444824219 69.29004669189453 50.92806243896484 C 71.08823394775391 46.67665863037109 72 42.15880966186523 72 37.50002288818359 C 72 32.84122467041016 71.08823394775391 28.32338714599609 69.29004669189453 24.07198715209961 C 67.55256652832031 19.96409606933594 65.0645751953125 16.27422332763672 61.89518737792969 13.10482406616211 C 58.72579956054688 9.935432434082031 55.03591156005859 7.44744873046875 50.92803955078125 5.7099609375 C 46.6766357421875 3.911773681640625 42.15878677368164 3.000007629394531 37.5 3.000007629394531 M 37.5 7.62939453125e-06 C 58.21067428588867 7.62939453125e-06 75 16.78933715820312 75 37.50002288818359 C 75 58.21069717407227 58.21067428588867 75.00003814697266 37.5 75.00003814697266 C 16.78932571411133 75.00003814697266 0 58.21069717407227 0 37.50002288818359 C 0 16.78933715820312 16.78932571411133 7.62939453125e-06 37.5 7.62939453125e-06 Z" stroke="none" fill="#36ceef"/>
                  </g>
                </g>
              </g>
            </g>
          </g>
        </g>
      </g>
    </g>
    <g id="george-washington_1729842_1_" data-name="george-washington_1729842 (1)" transform="translate(222.684 319.229)">
      <path id="Trazado_1044039" data-name="Trazado 1044039" d="M204.94,392.917v7.5H192.66v-7.537a9.536,9.536,0,0,0,6.085,2.181,9.983,9.983,0,0,0,6.2-2.142Zm0,0" transform="translate(-173.985 -354.343)" fill="#e8e7e9"/>
      <path id="Trazado_1044040" data-name="Trazado 1044040" d="M204.938,306.023v8.458a9.986,9.986,0,0,1-6.2,2.142,9.537,9.537,0,0,1-6.085-2.181v-8.419a12.682,12.682,0,0,0,6.054,1.747,13.79,13.79,0,0,0,6.227-1.747Zm0,0" transform="translate(-173.981 -275.907)" fill="#e8e7e9"/>
      <path id="Trazado_1044041" data-name="Trazado 1044041" d="M178.592,79.343a9.579,9.579,0,0,1-18.487.027,3.742,3.742,0,0,0,1.42-1.363,6.953,6.953,0,0,0,.6-3.461c0-.005-.559-6.707,2.375-8.034a3.347,3.347,0,0,1,3.4.31,2.637,2.637,0,0,0,2.937,0,3.347,3.347,0,0,1,3.4-.31c2.933,1.327,2.376,8.029,2.375,8.034a6.936,6.936,0,0,0,.6,3.461A3.772,3.772,0,0,0,178.592,79.343Zm0,0" transform="translate(-144.585 -59.317)" fill="#ffd4be"/>
      <path id="Trazado_1044042" data-name="Trazado 1044042" d="M102.8,20.653h0a.249.249,0,0,1-.242-.188,2.627,2.627,0,0,0-1.972-1.932l-.062-.012c-.911-.157-1.216-1.23-1.7-1.911a25.546,25.546,0,0,0-3.036-3.758C93.165,10.36,88.874,10.5,88.874,10.5s-4.291-.139-6.914,2.352a21.335,21.335,0,0,0-2.741,3.312c-.522.749-1,2.187-2,2.358l-.062.012a2.627,2.627,0,0,0-1.972,1.929.251.251,0,0,1-.243.191h0a3.978,3.978,0,0,0-.618,7.909,5.082,5.082,0,0,0,2.013.854c1.9.372,3.642-.016,4.687-1.7a6.946,6.946,0,0,0,.6-3.461S81.067,17.551,84,16.224a3.346,3.346,0,0,1,3.4.31,2.638,2.638,0,0,0,2.937,0,3.347,3.347,0,0,1,3.405-.31c2.933,1.327,2.376,8.029,2.375,8.034a6.946,6.946,0,0,0,.6,3.461c1.044,1.68,2.785,2.069,4.687,1.7a5.082,5.082,0,0,0,2.013-.854,3.978,3.978,0,0,0-.617-7.909Zm0,0" transform="translate(-64.086 -9.029)" fill="#e8e7e9"/>
      <path id="Trazado_1044043" data-name="Trazado 1044043" d="M204.937,251.484v5.286a13.788,13.788,0,0,1-6.227,1.747,12.681,12.681,0,0,1-6.054-1.747v-5.193a9.578,9.578,0,0,0,12.281-.094Zm0,0" transform="translate(-173.981 -226.655)" fill="#ffd4be"/>
      <g id="Grupo_1203788" data-name="Grupo 1203788" transform="translate(0.969 26.685)">
        <path id="Trazado_1044044" data-name="Trazado 1044044" d="M149.382,272.654l-2.6-1.791a1.3,1.3,0,0,0-2,1.4l4.6,17.752Zm0,0" transform="translate(-131.675 -270.628)" fill="#8690a6"/>
        <path id="Trazado_1044045" data-name="Trazado 1044045" d="M319.344,272.654l2.6-1.791a1.3,1.3,0,0,1,2,1.4l-4.6,17.752Zm0,0" transform="translate(-289.357 -270.628)" fill="#8690a6"/>
        <path id="Trazado_1044046" data-name="Trazado 1044046" d="M10,310.837s.616-7.7,4.061-11.939a15.562,15.562,0,0,1,9.2-5.214l4.446,17.153Zm0,0" transform="translate(-10 -291.449)" fill="#8690a6"/>
        <path id="Trazado_1044047" data-name="Trazado 1044047" d="M337.05,310.837s-.616-7.7-4.061-11.939a15.562,15.562,0,0,0-9.2-5.214l-4.446,17.153Zm0,0" transform="translate(-289.357 -291.449)" fill="#8690a6"/>
      </g>
      <path id="Trazado_1044048" data-name="Trazado 1044048" d="M236.575,135.033h1.96a.969.969,0,0,0,0-1.939h-.552l.74-1.938a.969.969,0,1,0-1.812-.691l-1.241,3.253a.969.969,0,0,0,.905,1.315Zm0,0" transform="translate(-212.767 -116.804)"/>
      <path id="Trazado_1044049" data-name="Trazado 1044049" d="M49.628,46A29.816,29.816,0,0,0,46.659,35.48a.969.969,0,1,0-1.7.939,26.764,26.764,0,0,1,2.61,8.684H42.215V43.22a.969.969,0,0,0-1.939,0V45.1H32.208l3.9-15.037a16.549,16.549,0,0,1,2.876.992.969.969,0,1,0,.8-1.766,18.5,18.5,0,0,0-3.223-1.109,2.273,2.273,0,0,0-3.554-2.062l-1.081.745V25.26A10.508,10.508,0,0,0,34.609,21.3a5.638,5.638,0,0,0,1.463.186,7.514,7.514,0,0,0,1.437-.146,6.079,6.079,0,0,0,2.206-.888,4.948,4.948,0,0,0-.47-9.767,3.584,3.584,0,0,0-2.529-2.124c-.629-.142-.924-1.177-1.271-1.658A25.439,25.439,0,0,0,32.37,3.12C29.578.468,25.237.492,24.788.5,24.34.492,20,.468,17.206,3.12a20.324,20.324,0,0,0-2.648,3.148c-.415.6-.933,2.118-1.7,2.291a3.585,3.585,0,0,0-2.529,2.124,4.948,4.948,0,0,0-.47,9.767,6.073,6.073,0,0,0,2.206.888,6.462,6.462,0,0,0,2.849-.025,10.513,10.513,0,0,0,2.79,4.051v1.5l-1.081-.745a2.273,2.273,0,0,0-3.554,2.061,16.1,16.1,0,0,0-8.793,5.341C.684,37.945.029,45.669,0,46a.97.97,0,0,0,.966,1.047H48.662A.97.97,0,0,0,49.628,46Zm-19.9-7.724a8.976,8.976,0,0,1-7.957.939,8.648,8.648,0,0,1-2.13-1.15V31.7a13.851,13.851,0,0,0,3.29.985l-2.06,2.834a.969.969,0,1,0,1.568,1.14l1.317-1.812V37.5a.969.969,0,1,0,1.939,0V34.7l1.529,1.977a.969.969,0,0,0,1.534-1.186l-2.178-2.818a14.96,14.96,0,0,0,3.4-1.006v6.425c-.084.061-.169.121-.255.178Zm4.375-10.554a.334.334,0,0,1,.513.359l-2.693,10.39V30.116s0,0,0-.007V29.22ZM12.439,19.436c-.733-.144-1.353-.752-2.05-.86a3.009,3.009,0,0,1,.468-5.982c1.414,0,1.086-1.821,2.443-2.146,1.2-.205,1.82-1.336,2.276-2.161.126-.229.246-.446.352-.6a20.7,20.7,0,0,1,2.613-3.164c2.289-2.174,6.177-2.087,6.215-2.086h.063c.039,0,3.912-.1,6.215,2.086a23.955,23.955,0,0,1,2.83,3.5c.722,1,1.012,1.879,2.234,2.378.581.237.956.329,1.3.923.409.709.291,1.268,1.32,1.268a3.009,3.009,0,0,1,.468,5.982.968.968,0,0,0-.418.172,4.1,4.1,0,0,1-1.632.688c-2.045.4-3.731-.429-4.062-2.571-.268-1.735.057-3.521-.164-5.276-.232-1.849-.777-4.047-2.485-5.085a4.315,4.315,0,0,0-3.013-.529c-1.012.194-1.869,1.161-2.927.967-1.152-.212-1.924-1.069-3.2-1.046a4.211,4.211,0,0,0-2.637.974c-1.5,1.294-1.909,3.562-2.063,5.435-.122,1.482.131,2.986-.07,4.457-.3,2.191-1.969,3.086-4.076,2.674Zm4.223,1.02a4.538,4.538,0,0,0,.356-.317c2.3-2.261,1.176-5.872,1.631-8.71.184-1.149.5-2.765,1.66-3.347,1.639-.826,2.933.878,4.571.836,1.554-.04,2.81-1.661,4.389-.835,1.164.609,1.478,2.2,1.663,3.384.449,2.867-.679,6.5,1.7,8.739.078.074.159.146.242.214a8.613,8.613,0,0,1-16.207.036Zm4.3,6.906a10.8,10.8,0,0,0,7.38.086,10.241,10.241,0,0,0,1.642-.757v2.845a14.262,14.262,0,0,1-1.777.737,10.49,10.49,0,0,1-7.458-.215c-.46-.186-.838-.369-1.106-.509v-2.8a10.259,10.259,0,0,0,1.32.611Zm-5.82.359a.315.315,0,0,1,.381,0l2.181,1.5v9.248L15.012,28.077a.317.317,0,0,1,.132-.357ZM9.182,45.1V43.22a.969.969,0,0,0-1.939,0V45.1H2.058c.3-2.19,1.24-7.3,3.725-10.358a14.19,14.19,0,0,1,7.742-4.679l3.9,15.037Zm10.463-4.741a10.788,10.788,0,0,0,8.168.891,11,11,0,0,0,2.174-.878V45.1H19.645Zm0,0" transform="translate(0 0)"/>
      <path id="Trazado_1044050" data-name="Trazado 1044050" d="M436.954,322.373a.969.969,0,1,0,.762,1.14A.978.978,0,0,0,436.954,322.373Zm0,0" transform="translate(-393.553 -290.656)"/>
    </g>
  </g>
</svg>
