<svg xmlns="http://www.w3.org/2000/svg" xmlns:xlink="http://www.w3.org/1999/xlink" width="108" height="108" viewBox="0 0 108 108">
  <defs>
    <filter id="Trazado_904820" x="0" y="0" width="108" height="108" filterUnits="userSpaceOnUse">
      <feOffset dy="3" input="SourceAlpha"/>
      <feGaussianBlur stdDeviation="3" result="blur"/>
      <feFlood flood-opacity="0.161"/>
      <feComposite operator="in" in2="blur"/>
      <feComposite in="SourceGraphic"/>
    </filter>
  </defs>
  <g id="Grupo_1203791" data-name="Grupo 1203791" transform="translate(-200 -2072.143)">
    <g id="Grupo_1203726" data-name="Grupo 1203726" transform="translate(209 2078.143)">
      <g id="Grupo_1173585" data-name="Grupo 1173585" transform="translate(0 0)">
        <g id="Grupo_1173428" data-name="Grupo 1173428">
          <g id="Grupo_1171958" data-name="Grupo 1171958">
            <g id="Grupo_1167341" data-name="Grupo 1167341">
              <g id="Grupo_1166792" data-name="Grupo 1166792">
                <g transform="matrix(1, 0, 0, 1, -9, -6)" filter="url(#Trazado_904820)">
                  <g id="Trazado_904820-2" data-name="Trazado 904820" transform="translate(9 6)" fill="#e9f9fd">
                    <path d="M 44.99999618530273 88.50003814697266 C 39.12687301635742 88.50003814697266 33.43022155761719 87.35011291503906 28.06829643249512 85.08219909667969 C 22.88852119445801 82.89134979248047 18.23629570007324 79.75462341308594 14.24084663391113 75.75917053222656 C 10.24540901184082 71.76372528076172 7.108683586120605 67.11149597167969 4.917821407318115 61.93172454833984 C 2.649921178817749 56.56979751586914 1.499996185302734 50.87314605712891 1.499996185302734 45.00002288818359 C 1.499996185302734 39.12689971923828 2.649921178817749 33.43024826049805 4.917821407318115 28.06830978393555 C 7.108683586120605 22.88853454589844 10.24540901184082 18.2363224029541 14.24084663391113 14.24087333679199 C 18.23629570007324 10.24542331695557 22.88852119445801 7.108697891235352 28.06829643249512 4.917835235595703 C 33.43022155761719 2.649935483932495 39.12687301635742 1.500010371208191 44.99999618530273 1.500010371208191 C 50.87311935424805 1.500010371208191 56.56977081298828 2.649935483932495 61.93169784545898 4.917835235595703 C 67.11147308349609 7.108697891235352 71.76369476318359 10.24542331695557 75.75914764404297 14.24087333679199 C 79.75458526611328 18.2363224029541 82.89131164550781 22.88853454589844 85.08216857910156 28.06830978393555 C 87.35007476806641 33.43024826049805 88.5 39.12689971923828 88.5 45.00002288818359 C 88.5 50.87314605712891 87.35007476806641 56.56979751586914 85.08216857910156 61.93172454833984 C 82.89131164550781 67.11149597167969 79.75458526611328 71.76372528076172 75.75914764404297 75.75917053222656 C 71.76369476318359 79.75462341308594 67.11147308349609 82.89134979248047 61.93169784545898 85.08219909667969 C 56.56977081298828 87.35011291503906 50.87311935424805 88.50003814697266 44.99999618530273 88.50003814697266 Z" stroke="none"/>
                    <path d="M 44.99999618530273 3.000007629394531 C 39.32870864868164 3.000007629394531 33.82865142822266 4.110069274902344 28.65262603759766 6.299354553222656 C 23.65165710449219 8.414581298828125 19.15968322753906 11.44335174560547 15.301513671875 15.30152130126953 C 11.44333648681641 19.15969085693359 8.414566040039062 23.65166473388672 6.299339294433594 28.65263748168945 C 4.110054016113281 33.82867813110352 2.999992370605469 39.3287353515625 2.999992370605469 45.00002288818359 C 2.999992370605469 50.67131042480469 4.110054016113281 56.17136764526367 6.299339294433594 61.34739685058594 C 8.414566040039062 66.34838104248047 11.44333648681641 70.84033966064453 15.301513671875 74.69850921630859 C 19.15968322753906 78.55669403076172 23.65165710449219 81.58546447753906 28.65262603759766 83.70069122314453 C 33.82865142822266 85.88997650146484 39.32870864868164 87.00003814697266 44.99999618530273 87.00003814697266 C 50.67128372192383 87.00003814697266 56.17134094238281 85.88997650146484 61.34736633300781 83.70069122314453 C 66.34834289550781 81.58546447753906 70.84030914306641 78.55669403076172 74.69847869873047 74.69850921630859 C 78.55665588378906 70.84033966064453 81.58542633056641 66.34838104248047 83.70065307617188 61.34739685058594 C 85.88993835449219 56.17136764526367 87 50.67131042480469 87 45.00002288818359 C 87 39.3287353515625 85.88993835449219 33.82867813110352 83.70065307617188 28.65263748168945 C 81.58542633056641 23.65166473388672 78.55665588378906 19.15969085693359 74.69847869873047 15.30152130126953 C 70.84030914306641 11.44335174560547 66.34834289550781 8.414581298828125 61.34736633300781 6.299354553222656 C 56.17134094238281 4.110069274902344 50.67128372192383 3.000007629394531 44.99999618530273 3.000007629394531 M 44.99999618530273 7.62939453125e-06 C 69.85281372070312 7.62939453125e-06 90 20.14719390869141 90 45.00002288818359 C 90 69.85283660888672 69.85281372070312 90.00003814697266 44.99999618530273 90.00003814697266 C 20.14717864990234 90.00003814697266 -7.62939453125e-06 69.85283660888672 -7.62939453125e-06 45.00002288818359 C -7.62939453125e-06 20.14719390869141 20.14717864990234 7.62939453125e-06 44.99999618530273 7.62939453125e-06 Z" stroke="none" fill="#1d7083"/>
                  </g>
                </g>
              </g>
            </g>
          </g>
        </g>
      </g>
    </g>
    <g id="manufacturer_2051493" transform="translate(226.473 2095.473)">
      <path id="Trazado_1044051" data-name="Trazado 1044051" d="M59.114,45.114V28H42V45.114" transform="translate(-5.916 -3.896)" fill="#c3ad94"/>
      <g id="Grupo_1203790" data-name="Grupo 1203790" transform="translate(39.507 27.527)">
        <path id="Trazado_1044052" data-name="Trazado 1044052" d="M46,32h3.423v3.423H46Z" transform="translate(-46 -32)" fill="#fff"/>
        <path id="Trazado_1044053" data-name="Trazado 1044053" d="M54,32h3.423v3.423H54Z" transform="translate(-47.154 -32)" fill="#fff"/>
        <path id="Trazado_1044054" data-name="Trazado 1044054" d="M46,40h3.423v3.423H46Z" transform="translate(-46 -33.154)" fill="#fff"/>
        <path id="Trazado_1044055" data-name="Trazado 1044055" d="M54,40h3.423v3.423H54Z" transform="translate(-47.154 -33.154)" fill="#fff"/>
      </g>
      <path id="Trazado_1044056" data-name="Trazado 1044056" d="M50,26.846V20h3.423v6.846" transform="translate(-7.07 -2.742)" fill="#f4b23e"/>
      <path id="Trazado_1044057" data-name="Trazado 1044057" d="M46,26.846V20h3.423v6.846" transform="translate(-6.493 -2.742)" fill="#b7852f"/>
      <path id="Trazado_1044058" data-name="Trazado 1044058" d="M54,26.846V20h3.423v6.846" transform="translate(-7.648 -2.742)" fill="#b7852f"/>
      <path id="Trazado_1044059" data-name="Trazado 1044059" d="M32,42h8.557v5.134H32Z" transform="translate(-4.473 -5.916)" fill="#62574a"/>
      <path id="Trazado_1044060" data-name="Trazado 1044060" d="M32,42h5.99v5.134H32Z" transform="translate(-4.473 -5.916)" fill="#92826f"/>
      <path id="Trazado_1044061" data-name="Trazado 1044061" d="M56.268,4A3.413,3.413,0,0,0,53.2,5.941a3.4,3.4,0,0,0-4.629,3.193A2.567,2.567,0,1,0,51.025,12.4a3.339,3.339,0,0,0,4.038-1.786A3.419,3.419,0,1,0,56.268,4Z" transform="translate(-6.493 -0.433)" fill="gray"/>
      <path id="Trazado_1044062" data-name="Trazado 1044062" d="M24.537,53.383H4L7.423,26H21.114Z" transform="translate(-0.433 -3.607)" fill="#b7852f"/>
      <path id="Trazado_1044063" data-name="Trazado 1044063" d="M7.423,26,4,53.383H21.114L17.691,26Z" transform="translate(-0.433 -3.607)" fill="#f4b23e"/>
      <path id="Trazado_1044064" data-name="Trazado 1044064" d="M24,48H56.517v3.423H24Z" transform="translate(-3.319 -6.782)" fill="#606060"/>
      <path id="Trazado_1044065" data-name="Trazado 1044065" d="M24,48H53.95v3.423H24Z" transform="translate(-3.319 -6.782)" fill="gray"/>
      <path id="Trazado_1044066" data-name="Trazado 1044066" d="M24,52H56.517v5.134H24Z" transform="translate(-3.319 -7.359)" fill="#999"/>
      <path id="Trazado_1044067" data-name="Trazado 1044067" d="M24,52H53.95v5.134H24Z" transform="translate(-3.319 -7.359)" fill="#ccc"/>
      <path id="Trazado_1044068" data-name="Trazado 1044068" d="M0,0H51.342V3.423H0Z" transform="translate(53.198 53.198) rotate(180)" fill="#606060"/>
      <path id="Trazado_1044069" data-name="Trazado 1044069" d="M2,58H50.775v3.423H2Z" transform="translate(-0.144 -8.225)" fill="gray"/>
      <path id="Trazado_1044070" data-name="Trazado 1044070" d="M6.812,25.119l.323-2.582H20.826l1.242,9.941a13.6,13.6,0,0,0,4.74-2.039L29.4,33.031,33.031,29.4l-2.593-2.593a13.628,13.628,0,0,0,2.119-5.127h3.671V16.547H32.556a13.6,13.6,0,0,0-2.119-5.127L33.03,8.828,29.4,5.2,26.807,7.79a13.6,13.6,0,0,0-5.126-2.118V2H16.547V5.672A13.6,13.6,0,0,0,11.42,7.791L8.828,5.2,5.2,8.828,7.791,11.42a13.6,13.6,0,0,0-2.119,5.127H2v5.134H5.672A13.615,13.615,0,0,0,6.812,25.119Z" transform="translate(-0.144 -0.144)" fill="gray"/>
      <path id="Trazado_1044071" data-name="Trazado 1044071" d="M10.584,23.693A10.27,10.27,0,1,1,22.8,30.224l-.816-6.532h-11.4Z" transform="translate(-1.299 -1.299)" fill="#fff"/>
      <path id="Trazado_1044072" data-name="Trazado 1044072" d="M53.2,62.134H1.856A.856.856,0,0,1,1,61.279V57.856A.856.856,0,0,1,1.856,57H53.2a.856.856,0,0,1,.856.856v3.423A.856.856,0,0,1,53.2,62.134ZM2.711,60.423H52.342V58.711H2.711Z" transform="translate(0 -8.081)"/>
      <path id="Trazado_1044073" data-name="Trazado 1044073" d="M59.826,44.97H58.114V28.711h-15.4V44.97H41V27.856A.856.856,0,0,1,41.856,27H58.97a.856.856,0,0,1,.856.856Z" transform="translate(-5.772 -3.752)"/>
      <path id="Trazado_1044074" data-name="Trazado 1044074" d="M57.228,56.413H55.517v-7.7H24.711v7.7H23V47.856A.856.856,0,0,1,23.856,47H56.372a.856.856,0,0,1,.856.856Z" transform="translate(-3.174 -6.638)"/>
      <path id="Trazado_1044075" data-name="Trazado 1044075" d="M24,51H56.517v1.711H24Z" transform="translate(-3.319 -7.215)"/>
      <path id="Trazado_1044076" data-name="Trazado 1044076" d="M49.279,36.134H45.856A.856.856,0,0,1,45,35.279V31.856A.856.856,0,0,1,45.856,31h3.423a.856.856,0,0,1,.856.856v3.423A.856.856,0,0,1,49.279,36.134Zm-2.567-1.711h1.711V32.711H46.711Z" transform="translate(-6.349 -4.329)"/>
      <path id="Trazado_1044077" data-name="Trazado 1044077" d="M57.279,36.134H53.856A.856.856,0,0,1,53,35.279V31.856A.856.856,0,0,1,53.856,31h3.423a.856.856,0,0,1,.856.856v3.423A.856.856,0,0,1,57.279,36.134Zm-2.567-1.711h1.711V32.711H54.711Z" transform="translate(-7.503 -4.329)"/>
      <path id="Trazado_1044078" data-name="Trazado 1044078" d="M49.279,44.134H45.856A.856.856,0,0,1,45,43.279V39.856A.856.856,0,0,1,45.856,39h3.423a.856.856,0,0,1,.856.856v3.423A.856.856,0,0,1,49.279,44.134Zm-2.567-1.711h1.711V40.711H46.711Z" transform="translate(-6.349 -5.483)"/>
      <path id="Trazado_1044079" data-name="Trazado 1044079" d="M57.279,44.134H53.856A.856.856,0,0,1,53,43.279V39.856A.856.856,0,0,1,53.856,39h3.423a.856.856,0,0,1,.856.856v3.423A.856.856,0,0,1,57.279,44.134Zm-2.567-1.711h1.711V40.711H54.711Z" transform="translate(-7.503 -5.483)"/>
      <path id="Trazado_1044080" data-name="Trazado 1044080" d="M48.423,14.98a3.423,3.423,0,0,1-.787-6.754,4.285,4.285,0,0,1,4.21-3.514,4.056,4.056,0,0,1,.808.082A4.231,4.231,0,0,1,56.124,3a4.279,4.279,0,1,1,0,8.557,4.056,4.056,0,0,1-.808-.082,4.155,4.155,0,0,1-3.926,1.764,3.427,3.427,0,0,1-2.968,1.741Zm3.423-8.557A2.57,2.57,0,0,0,49.279,8.99a.856.856,0,0,1-.856.856,1.711,1.711,0,1,0,1.635,2.177.855.855,0,0,1,1.065-.586,2.487,2.487,0,0,0,.722.121,2.545,2.545,0,0,0,2.3-1.458.857.857,0,0,1,1.073-.428,2.564,2.564,0,1,0-1.4-3.5.855.855,0,0,1-1.073.428A2.544,2.544,0,0,0,51.846,6.423Z" transform="translate(-6.349 -0.289)"/>
      <path id="Trazado_1044081" data-name="Trazado 1044081" d="M4.706,53.344l-1.7-.212L6.431,25.75A.855.855,0,0,1,7.28,25H20.971a.855.855,0,0,1,.849.75l2.353,18.826-1.7.212-2.26-18.076H8.035Z" transform="translate(-0.29 -3.463)"/>
      <path id="Trazado_1044082" data-name="Trazado 1044082" d="M7,29H22.4v1.711H7Z" transform="translate(-0.866 -4.04)"/>
      <path id="Trazado_1044083" data-name="Trazado 1044083" d="M5,53H21.258v1.711H5Z" transform="translate(-0.577 -7.503)"/>
      <path id="Trazado_1044084" data-name="Trazado 1044084" d="M29.256,33.743a.853.853,0,0,1-.6-.251l-2.1-2.1a14.381,14.381,0,0,1-4.439,1.782L21.74,31.5a12.7,12.7,0,0,0,4.441-1.911.857.857,0,0,1,1.087.1l1.988,1.988,2.421-2.421-1.988-1.988a.856.856,0,0,1-.1-1.087,12.7,12.7,0,0,0,1.985-4.8.857.857,0,0,1,.841-.7h2.816V17.258H32.412a.856.856,0,0,1-.84-.7,12.7,12.7,0,0,0-1.985-4.8.855.855,0,0,1,.1-1.087l1.988-1.988L29.256,6.263,27.268,8.25a.856.856,0,0,1-1.087.1,12.7,12.7,0,0,0-4.8-1.985.856.856,0,0,1-.7-.84V2.711H17.258V5.528a.856.856,0,0,1-.7.84,12.7,12.7,0,0,0-4.8,1.985.855.855,0,0,1-1.087-.1L8.683,6.263,6.263,8.683,8.25,10.671a.856.856,0,0,1,.1,1.087,12.7,12.7,0,0,0-1.985,4.8.856.856,0,0,1-.84.7H2.711v3.423H5.528a.856.856,0,0,1,.84.7A12.825,12.825,0,0,0,7.436,24.6l-1.539.75a14.537,14.537,0,0,1-1.061-2.956H1.856A.856.856,0,0,1,1,21.537V16.4a.856.856,0,0,1,.856-.856h2.98a14.354,14.354,0,0,1,1.716-4.154l-2.1-2.1a.855.855,0,0,1,0-1.21L8.078,4.448a.855.855,0,0,1,1.21,0l2.1,2.1a14.331,14.331,0,0,1,4.154-1.716V1.856A.856.856,0,0,1,16.4,1h5.134a.856.856,0,0,1,.856.856v2.98a14.354,14.354,0,0,1,4.154,1.716l2.1-2.1a.881.881,0,0,1,1.21,0l3.631,3.631a.855.855,0,0,1,0,1.21l-2.1,2.1A14.331,14.331,0,0,1,33.1,15.547h2.98a.856.856,0,0,1,.856.856v5.134a.856.856,0,0,1-.856.856H33.1a14.354,14.354,0,0,1-1.716,4.154l2.1,2.1a.855.855,0,0,1,0,1.21l-3.631,3.631a.857.857,0,0,1-.6.251Z" transform="translate(0)"/>
      <path id="Trazado_1044085" data-name="Trazado 1044085" d="M22.862,30.909l-.42-1.658a9.408,9.408,0,1,0-11.2-5.987l-1.614.571a11.126,11.126,0,1,1,13.229,7.075Z" transform="translate(-1.154 -1.154)"/>
      <path id="Trazado_1044086" data-name="Trazado 1044086" d="M32.711,46.99H31V41.856A.856.856,0,0,1,31.856,41h8.557v1.711h-7.7Z" transform="translate(-4.329 -5.772)"/>
      <path id="Trazado_1044087" data-name="Trazado 1044087" d="M56.98,26.7H55.268v-5.99H46.711V26.7H45V19.856A.856.856,0,0,1,45.856,19H56.124a.856.856,0,0,1,.856.856Z" transform="translate(-6.349 -2.597)"/>
      <path id="Trazado_1044088" data-name="Trazado 1044088" d="M49,20h1.711v6.846H49Z" transform="translate(-6.926 -2.742)"/>
      <path id="Trazado_1044089" data-name="Trazado 1044089" d="M53,20h1.711v6.846H53Z" transform="translate(-7.503 -2.742)"/>
    </g>
  </g>
</svg>
