<svg xmlns="http://www.w3.org/2000/svg" width="399.5" height="130" viewBox="0 0 399.5 130">
  <g id="Grupo_1203747" data-name="Grupo 1203747" transform="translate(-1021 -299)">
    <g id="Grupo_1203629" data-name="Grupo 1203629" transform="translate(0 20.948)">
      <g id="Grupo_1203607" data-name="Grupo 1203607">
        <rect id="Rectángulo_415938" data-name="Rectángulo 415938" width="399.5" height="58.937" transform="translate(1021 325)" fill="#103d47"/>
        <rect id="Rectángulo_415940" data-name="Rectángulo 415940" width="275.731" height="106.937" transform="translate(1082 301)" fill="#1d7083"/>
      </g>
    </g>
    <g id="FILLED_OUTLINE" data-name="FILLED OUTLINE" transform="translate(1140 283)">
      <path id="Trazado_1043828" data-name="Trazado 1043828" d="M53,256l-5.186,2.593a6.3,6.3,0,0,0-3.481,5.632,6.3,6.3,0,0,1-1.844,4.453l-.645.645A6.3,6.3,0,0,0,40,273.775v3.45a6.3,6.3,0,0,0,1.844,4.453l.645.645a6.3,6.3,0,0,1,1.844,4.453v6.058H53Z" transform="translate(-17.5 -175)" fill="#fad0a0"/>
      <path id="Trazado_1043829" data-name="Trazado 1043829" d="M242.1,106.9a3.064,3.064,0,0,0,.9-2.167V89.564a3.064,3.064,0,0,0-3.064-3.064h-2.167a3.064,3.064,0,0,1-2.167-.9L230.9,80.9a3.064,3.064,0,0,0-2.167-.9H218.269a3.064,3.064,0,0,0-2.167.9l-7.769,7.769a3.064,3.064,0,0,1-4.333,0L201.833,86.5a3.064,3.064,0,0,0-4.333,0l-2.167,2.167H190.1a3.064,3.064,0,0,1-2.167-.9L185.4,85.231a3.064,3.064,0,0,0-2.167-.9h-8.295a3.064,3.064,0,0,0-2.167.9l-4.705,4.705a3.064,3.064,0,0,0-.9,2.167v2.167a3.064,3.064,0,0,1-3.064,3.064,3.064,3.064,0,0,0-2.167.9L152,108.167V177.5h91V150.6a3.064,3.064,0,0,0-.9-2.167l-2.538-2.538a3.064,3.064,0,0,1-.9-2.167V131.1a3.064,3.064,0,0,1,.9-2.167L242.1,126.4a3.064,3.064,0,0,0,.9-2.167v-8.295a3.064,3.064,0,0,0-.9-2.167l-1.269-1.269a3.064,3.064,0,0,1,0-4.333ZM191,164.5H165V129.422a36.13,36.13,0,0,1,13-27.756,36.13,36.13,0,0,1,13,27.756Zm39,0H204V129.422a36.13,36.13,0,0,1,13-27.756,36.13,36.13,0,0,1,13,27.756Z" transform="translate(-99.166 -46.667)" fill="#fad0a0"/>
      <path id="Trazado_1043830" data-name="Trazado 1043830" d="M298.167,150.709H296v-4.333h2.167a3.044,3.044,0,0,0,2.167-.9l1.269-1.269a7.349,7.349,0,0,1,5.231-2.167,3.044,3.044,0,0,0,2.167-.9l2.8-2.8,3.064,3.064-2.8,2.8a7.35,7.35,0,0,1-5.231,2.167,3.044,3.044,0,0,0-2.167.9l-1.269,1.269a7.349,7.349,0,0,1-5.231,2.167Z" transform="translate(-204.166 -89.208)" fill="#e5b481"/>
      <path id="Trazado_1043831" data-name="Trazado 1043831" d="M424,128h17.333v4.333H424Z" transform="translate(-297.5 -81.666)" fill="#e5b481"/>
      <path id="Trazado_1043832" data-name="Trazado 1043832" d="M24,440H149.667v13H24Z" transform="translate(-5.833 -309.166)" fill="#b6865c"/>
      <path id="Trazado_1043833" data-name="Trazado 1043833" d="M56,392H173v13H56Z" transform="translate(-29.166 -274.166)" fill="#d19f6e"/>
      <g id="Grupo_1203746" data-name="Grupo 1203746" transform="translate(52.834 42)">
        <path id="Trazado_1043834" data-name="Trazado 1043834" d="M248,120h4.333v4.333H248Z" transform="translate(-222 -117.833)" fill="#e5b481"/>
        <path id="Trazado_1043835" data-name="Trazado 1043835" d="M392,112h4.333v4.333H392Z" transform="translate(-327 -112)" fill="#e5b481"/>
        <path id="Trazado_1043836" data-name="Trazado 1043836" d="M440,160h4.333v4.333H440Z" transform="translate(-362 -147)" fill="#e5b481"/>
        <path id="Trazado_1043837" data-name="Trazado 1043837" d="M312,200h4.333v4.333H312Z" transform="translate(-268.667 -176.167)" fill="#e5b481"/>
        <path id="Trazado_1043838" data-name="Trazado 1043838" d="M152,240h6.5v4.333H152Z" transform="translate(-152 -205.333)" fill="#e5b481"/>
        <path id="Trazado_1043839" data-name="Trazado 1043839" d="M464,352h6.5v4.333H464Z" transform="translate(-379.5 -287)" fill="#e5b481"/>
        <path id="Trazado_1043840" data-name="Trazado 1043840" d="M296,272h6.5v4.333H296Z" transform="translate(-257 -228.667)" fill="#e5b481"/>
      </g>
      <path id="Trazado_1043841" data-name="Trazado 1043841" d="M288,440h4.333v6.5H288Z" transform="translate(-198.333 -309.166)" fill="#d19f6e"/>
      <path id="Trazado_1043842" data-name="Trazado 1043842" d="M64,464h4.333v6.5H64Z" transform="translate(-35 -326.666)" fill="#d19f6e"/>
      <path id="Trazado_1043843" data-name="Trazado 1043843" d="M168,392h4.333v6.5H168Z" transform="translate(-110.833 -274.166)" fill="#b6865c"/>
      <path id="Trazado_1043844" data-name="Trazado 1043844" d="M464,216h4.333v4.333H464Z" transform="translate(-326.666 -145.833)" fill="#e5b481"/>
      <path id="Trazado_1043845" data-name="Trazado 1043845" d="M408,392h21.667v13H408Z" transform="translate(-285.833 -274.166)" fill="#e5b481"/>
      <path id="Trazado_1043846" data-name="Trazado 1043846" d="M224,392h26v13H224Z" transform="translate(-151.666 -274.166)" fill="#e5b481"/>
      <path id="Trazado_1043847" data-name="Trazado 1043847" d="M144,440h30.333v13H144Z" transform="translate(-93.333 -309.166)" fill="#d19f6e"/>
      <path id="Trazado_1043848" data-name="Trazado 1043848" d="M56,392H73.333v13H56Z" transform="translate(-29.166 -274.166)" fill="#e5b481"/>
      <path id="Trazado_1043849" data-name="Trazado 1043849" d="M88,56h17.333v91H88Z" transform="translate(-52.5 -29.167)" fill="#d19f6e"/>
      <rect id="Rectángulo_419407" data-name="Rectángulo 419407" width="26" height="8" rx="4" transform="translate(31 40)" fill="#b6865c"/>
      <path id="Trazado_1043850" data-name="Trazado 1043850" d="M72,24v3.822A4.333,4.333,0,0,0,74.4,31.7l1.938.969H93.667L95.6,31.7A4.333,4.333,0,0,0,98,27.822V24Z" transform="translate(-40.833 -5.833)" fill="#b6865c"/>
      <path id="Trazado_1043851" data-name="Trazado 1043851" d="M112,208h4.333v4.333H112Z" transform="translate(-70 -140)" fill="#b6865c"/>
      <path id="Trazado_1043852" data-name="Trazado 1043852" d="M88,280h6.5v4.333H88Z" transform="translate(-52.5 -192.5)" fill="#b6865c"/>
      <path id="Trazado_1043853" data-name="Trazado 1043853" d="M128,304h6.5v4.333H128Z" transform="translate(-81.666 -210)" fill="#b6865c"/>
      <path id="Trazado_1043854" data-name="Trazado 1043854" d="M120,160h8.667v4.333H120Z" transform="translate(-75.833 -105)" fill="#b6865c"/>
      <path id="Trazado_1043855" data-name="Trazado 1043855" d="M376,440h30.333v13H376Z" transform="translate(-262.5 -309.166)" fill="#d19f6e"/>
      <path id="Trazado_1043856" data-name="Trazado 1043856" d="M128,344h32.5v13H128Z" transform="translate(-81.666 -239.166)" fill="#b6865c"/>
      <path id="Trazado_1043857" data-name="Trazado 1043857" d="M309,141.145a3.044,3.044,0,0,1-2.167.9,7.349,7.349,0,0,0-5.231,2.167l-1.269,1.269a3.044,3.044,0,0,1-2.167.9H296v4.333h2.167a7.349,7.349,0,0,0,5.231-2.167l1.269-1.269a3.044,3.044,0,0,1,2.167-.9,7.35,7.35,0,0,0,5.231-2.167l2.8-2.8-3.064-3.064Z" transform="translate(-204.166 -89.209)"/>
      <path id="Trazado_1043858" data-name="Trazado 1043858" d="M144.468,61.763a5.2,5.2,0,0,0,1.532-3.7V42.9a5.237,5.237,0,0,0-5.231-5.231H138.6a.89.89,0,0,1-.634-.263L133.263,32.7a5.2,5.2,0,0,0-3.7-1.532H119.1a5.2,5.2,0,0,0-3.7,1.532l-7.769,7.769a.9.9,0,0,1-1.269,0L104.2,38.3a5.231,5.231,0,0,0-7.4,0L95.27,39.834H90.936a.89.89,0,0,1-.635-.263l-2.539-2.538a5.2,5.2,0,0,0-3.7-1.532H75.77a5.2,5.2,0,0,0-3.7,1.532l-4.705,4.705a5.2,5.2,0,0,0-1.532,3.7V47.6a.9.9,0,0,1-.9.9,5.2,5.2,0,0,0-3.7,1.532L55,56.269V50.294A6.5,6.5,0,0,0,55,38.04V28.173l.74-.37a6.465,6.465,0,0,0,3.593-5.814V16H29v5.988A6.465,6.465,0,0,0,32.593,27.8l.74.37V38.04a6.5,6.5,0,0,0,0,12.255V79.661l-3.988,1.994a8.417,8.417,0,0,0-4.678,7.57,4.1,4.1,0,0,1-1.209,2.92l-.645.645a8.409,8.409,0,0,0-2.479,5.985v3.45a8.409,8.409,0,0,0,2.479,5.985l.644.644a4.1,4.1,0,0,1,1.21,2.921v16.892H16V146H146V103.936a5.2,5.2,0,0,0-1.532-3.7L141.93,97.7a.892.892,0,0,1-.263-.635V84.436a.892.892,0,0,1,.263-.635l2.539-2.539a5.2,5.2,0,0,0,1.532-3.7V69.27a5.2,5.2,0,0,0-1.532-3.7L143.2,64.3a.9.9,0,0,1,0-1.269ZM33.334,20.333H55v1.655a2.155,2.155,0,0,1-1.2,1.938l-1.48.74H36.012l-1.48-.74a2.155,2.155,0,0,1-1.2-1.938ZM50.667,29v8.667H46.334V29ZM42,29v8.667H37.667V29ZM35.5,42H52.834a2.167,2.167,0,1,1,0,4.333H35.5A2.167,2.167,0,0,1,35.5,42Zm54.167,73.667H81v-13H68V82.756A33.864,33.864,0,0,1,78.834,57.885,33.864,33.864,0,0,1,89.667,82.756Zm6.5,4.333v8.667H74.5V120Zm-19.5-13v8.667H48.5V107Zm-39-19.5V50.667h13V55h-6.5v4.333h6.5V94H46.334v4.333h4.333v4.333h-6.5v13h-6.5V91.834H42V87.5ZM46.334,120H57.167v4.333H61.5V120h8.667v8.667H46.334ZM42,120v8.667H29V120ZM24.667,98.775a4.1,4.1,0,0,1,1.209-2.92l.645-.645A8.409,8.409,0,0,0,29,89.225a4.108,4.108,0,0,1,2.283-3.694l2.05-1.025v31.161H29v-3.892a8.409,8.409,0,0,0-2.479-5.985l-.644-.644a4.1,4.1,0,0,1-1.21-2.921ZM48.5,141.667H33.334v-4.333H29v4.333H20.334V133H48.5Zm30.333,0h-26V133h26Zm32.5,0H83.167V133h6.5v4.333H94V133h17.333ZM120,120v8.667H100.5V120Zm-13-4.333V82.756a33.864,33.864,0,0,1,10.833-24.871,33.864,33.864,0,0,1,10.833,24.871v32.911Zm34.667,26h-26V133h26Zm0-13H124.334V120h17.333Zm0-82.333H126.5v4.333h15.167v7.4a.892.892,0,0,1-.263.635l-1.269,1.269a5.237,5.237,0,0,0,0,7.4l1.269,1.269a.892.892,0,0,1,.263.635v.9h-4.333V74.5h4.333v3.064a.892.892,0,0,1-.263.635l-2.539,2.539a5.2,5.2,0,0,0-1.532,3.7V97.064a5.2,5.2,0,0,0,1.532,3.7L141.4,103.3a.892.892,0,0,1,.263.635V107h-4.333v4.333h4.333v4.333H133V82.756a38.194,38.194,0,0,0-13.78-29.42l-1.387-1.156-1.387,1.156a38.194,38.194,0,0,0-13.78,29.42v32.911H94v-26h4.333V85.334H94V82.756a38.194,38.194,0,0,0-13.78-29.42L78.834,52.18l-1.387,1.156a38.194,38.194,0,0,0-13.78,29.42v19.911H55V81h4.333V76.667H55V62.4l9.3-9.3a.891.891,0,0,1,.635-.263A5.237,5.237,0,0,0,70.167,47.6V45.436a.892.892,0,0,1,.263-.635L75.135,40.1a.891.891,0,0,1,.635-.263h8.295a.89.89,0,0,1,.635.263l2.539,2.538a5.2,5.2,0,0,0,3.7,1.532h6.128l2.8-2.8a.9.9,0,0,1,1.269,0l2.167,2.167a5.231,5.231,0,0,0,7.4,0l7.769-7.769a.891.891,0,0,1,.634-.263h10.461a.89.89,0,0,1,.635.263l4.705,4.705A5.2,5.2,0,0,0,138.6,42h2.167a.9.9,0,0,1,.9.9Z"/>
      <path id="Trazado_1043859" data-name="Trazado 1043859" d="M112,208h4.333v4.333H112Z" transform="translate(-70 -140)"/>
      <path id="Trazado_1043860" data-name="Trazado 1043860" d="M248,120h4.333v4.333H248Z" transform="translate(-169.166 -75.833)"/>
      <path id="Trazado_1043861" data-name="Trazado 1043861" d="M392,112h4.333v4.333H392Z" transform="translate(-274.166 -70)"/>
      <path id="Trazado_1043862" data-name="Trazado 1043862" d="M440,160h4.333v4.333H440Z" transform="translate(-309.166 -105)"/>
      <path id="Trazado_1043863" data-name="Trazado 1043863" d="M312,200h4.333v4.333H312Z" transform="translate(-215.833 -134.166)"/>
    </g>
  </g>
</svg>
