<svg xmlns="http://www.w3.org/2000/svg" xmlns:xlink="http://www.w3.org/1999/xlink" width="108" height="108" viewBox="0 0 108 108">
  <defs>
    <filter id="Trazado_904820" x="0" y="0" width="108" height="108" filterUnits="userSpaceOnUse">
      <feOffset dy="3" input="SourceAlpha"/>
      <feGaussianBlur stdDeviation="3" result="blur"/>
      <feFlood flood-opacity="0.161"/>
      <feComposite operator="in" in2="blur"/>
      <feComposite in="SourceGraphic"/>
    </filter>
  </defs>
  <g id="Grupo_1174814" data-name="Grupo 1174814" transform="translate(9 6)">
    <g id="Grupo_1173585" data-name="Grupo 1173585" transform="translate(0 0)">
      <g id="Grupo_1173428" data-name="Grupo 1173428">
        <g id="Grupo_1171958" data-name="Grupo 1171958">
          <g id="Grupo_1167341" data-name="Grupo 1167341">
            <g id="Grupo_1166792" data-name="Grupo 1166792">
              <g transform="matrix(1, 0, 0, 1, -9, -6)" filter="url(#Trazado_904820)">
                <g id="Trazado_904820-2" data-name="Trazado 904820" transform="translate(9 6)" fill="#e9f9fd">
                  <path d="M 44.99999618530273 88.50003814697266 C 39.12687301635742 88.50003814697266 33.43022155761719 87.35011291503906 28.06829643249512 85.08219909667969 C 22.88852119445801 82.89134979248047 18.23629570007324 79.75462341308594 14.24084663391113 75.75917816162109 C 10.24540901184082 71.76372528076172 7.108683586120605 67.11150360107422 4.917821407318115 61.93172836303711 C 2.649921178817749 56.56980133056641 1.499996185302734 50.87314987182617 1.499996185302734 45.00002670288086 C 1.499996185302734 39.12690353393555 2.649921178817749 33.43025207519531 4.917821407318115 28.06832695007324 C 7.108683586120605 22.88855171203613 10.24540901184082 18.23632621765137 14.24084663391113 14.24087715148926 C 18.23629570007324 10.24542713165283 22.88852119445801 7.108701705932617 28.06829643249512 4.91785192489624 C 33.43022155761719 2.649939298629761 39.12687301635742 1.500014185905457 44.99999618530273 1.500014185905457 C 50.87311935424805 1.500014185905457 56.56977081298828 2.649939298629761 61.93169784545898 4.91785192489624 C 67.11147308349609 7.108701705932617 71.76369476318359 10.24542713165283 75.75914764404297 14.24087715148926 C 79.75458526611328 18.23632621765137 82.89131164550781 22.88855171203613 85.08216857910156 28.06832695007324 C 87.35007476806641 33.43025207519531 88.5 39.12690353393555 88.5 45.00002670288086 C 88.5 50.87314987182617 87.35007476806641 56.56980133056641 85.08216857910156 61.93172836303711 C 82.89131164550781 67.11150360107422 79.75458526611328 71.76372528076172 75.75914764404297 75.75917816162109 C 71.76369476318359 79.75462341308594 67.11147308349609 82.89134979248047 61.93169784545898 85.08219909667969 C 56.56977081298828 87.35011291503906 50.87311935424805 88.50003814697266 44.99999618530273 88.50003814697266 Z" stroke="none"/>
                  <path d="M 44.99999618530273 3.000015258789062 C 39.32870864868164 3.000015258789062 33.82865142822266 4.110069274902344 28.65262603759766 6.299354553222656 C 23.65165710449219 8.414581298828125 19.15968322753906 11.44335174560547 15.301513671875 15.30154418945312 C 11.44333648681641 19.15971374511719 8.414566040039062 23.65167236328125 6.299339294433594 28.65265655517578 C 4.110054016113281 33.82868194580078 2.999992370605469 39.32873916625977 2.999992370605469 45.00002670288086 C 2.999992370605469 50.67131423950195 4.110054016113281 56.17137145996094 6.299339294433594 61.34739685058594 C 8.414566040039062 66.34838104248047 11.44333648681641 70.84033966064453 15.301513671875 74.69850921630859 C 19.15968322753906 78.55670166015625 23.65165710449219 81.58547210693359 28.65262603759766 83.70069885253906 C 33.82865142822266 85.88998413085938 39.32870864868164 87.00003814697266 44.99999618530273 87.00003814697266 C 50.67128372192383 87.00003814697266 56.17134094238281 85.88998413085938 61.34736633300781 83.70069885253906 C 66.34834289550781 81.58547210693359 70.84030914306641 78.55670166015625 74.69847869873047 74.69850921630859 C 78.55665588378906 70.84033966064453 81.58542633056641 66.34838104248047 83.70065307617188 61.34739685058594 C 85.88993835449219 56.17137145996094 87 50.67131423950195 87 45.00002670288086 C 87 39.32873916625977 85.88993835449219 33.82868194580078 83.70065307617188 28.65265655517578 C 81.58542633056641 23.65167236328125 78.55665588378906 19.15971374511719 74.69847869873047 15.30154418945312 C 70.84030914306641 11.44335174560547 66.34834289550781 8.414581298828125 61.34736633300781 6.299354553222656 C 56.17134094238281 4.110069274902344 50.67128372192383 3.000015258789062 44.99999618530273 3.000015258789062 M 44.99999618530273 1.52587890625e-05 C 69.85281372070312 1.52587890625e-05 90 20.14720916748047 90 45.00002670288086 C 90 69.85284423828125 69.85281372070312 90.00003814697266 44.99999618530273 90.00003814697266 C 20.14717864990234 90.00003814697266 -7.62939453125e-06 69.85284423828125 -7.62939453125e-06 45.00002670288086 C -7.62939453125e-06 20.14720916748047 20.14717864990234 1.52587890625e-05 44.99999618530273 1.52587890625e-05 Z" stroke="none" fill="#1d7083"/>
                </g>
              </g>
            </g>
          </g>
        </g>
      </g>
    </g>
    <g id="parchment_2682065" transform="translate(0.311 15.95)">
      <g id="Grupo_1203730" data-name="Grupo 1203730" transform="translate(18.491 43.599)">
        <g id="Grupo_1203729" data-name="Grupo 1203729">
          <path id="Trazado_1043803" data-name="Trazado 1043803" d="M59.576,393.37v-9.007a.154.154,0,0,0-.154-.154h-8.88a.192.192,0,0,0-.14.061l-2.311,2.472a.192.192,0,0,1-.28,0L45.5,384.27a.192.192,0,0,0-.14-.061H25.294a.154.154,0,0,0-.154.154v9.007a4.49,4.49,0,0,0,4.49,4.49H64.066A4.49,4.49,0,0,1,59.576,393.37Z" transform="translate(-25.14 -384.209)" fill="#ffd064"/>
        </g>
      </g>
      <g id="Grupo_1203732" data-name="Grupo 1203732" transform="translate(61.907 0.851)">
        <g id="Grupo_1203731" data-name="Grupo 1203731">
          <path id="Trazado_1043804" data-name="Trazado 1043804" d="M416.712,13.215V11.99a4.49,4.49,0,1,0-8.979,0v9.161h8.825a.154.154,0,0,0,.154-.154V18.4a.191.191,0,0,0-.061-.14l-2.472-2.311a.192.192,0,0,1,0-.28l2.472-2.311a.192.192,0,0,0,.061-.14Z" transform="translate(-407.733 -7.5)" fill="#ffd064"/>
        </g>
      </g>
      <g id="Grupo_1203734" data-name="Grupo 1203734" transform="translate(27.47 0.851)">
        <g id="Grupo_1203733" data-name="Grupo 1203733" transform="translate(0)">
          <path id="Trazado_1043805" data-name="Trazado 1043805" d="M108.757,7.5a4.49,4.49,0,0,0-4.49,4.49v3.42a24.3,24.3,0,0,1,9.866,2.951,20.366,20.366,0,0,1,4.533,3.386,23.15,23.15,0,0,1,6.357,15.688l-10.89-10.89L110.8,23.211a.342.342,0,0,0-.481.024L108.8,24.751a.342.342,0,0,0-.024.481l3.334,3.334L123,39.457A23.151,23.151,0,0,1,107.313,33.1a20.124,20.124,0,0,1-3.046-3.941v11a.191.191,0,0,0,.061.14l2.472,2.311a.192.192,0,0,1,0,.28L104.328,45.2a.191.191,0,0,0-.061.14v4.908h11.242a.191.191,0,0,1,.14.061l2.311,2.472a.192.192,0,0,0,.28,0l2.311-2.472a.191.191,0,0,1,.14-.061h8.88a.154.154,0,0,1,.154.154v9.007a4.49,4.49,0,0,0,8.979,0V35.518a.191.191,0,0,0-.061-.14l-2.472-2.311a.192.192,0,0,1,0-.28l2.472-2.311a.191.191,0,0,0,.061-.14V11.99a4.49,4.49,0,0,1,4.49-4.49Z" transform="translate(-104.267 -7.5)" fill="#fff0af"/>
        </g>
      </g>
      <g id="Grupo_1203736" data-name="Grupo 1203736" transform="translate(53.491 0.851)">
        <g id="Grupo_1203735" data-name="Grupo 1203735">
          <path id="Trazado_1043806" data-name="Trazado 1043806" d="M338.03,7.5a4.469,4.469,0,0,0-.587,2.22V28.066a.191.191,0,0,1-.061.14l-2.472,2.311a.192.192,0,0,0,0,.28l2.472,2.311a.191.191,0,0,1,.061.14V57.139a4.49,4.49,0,0,1-3.877,4.448,4.49,4.49,0,0,0,8.416-2.179V35.518a.192.192,0,0,0-.061-.14l-2.472-2.311a.192.192,0,0,1,0-.28l2.472-2.311a.191.191,0,0,0,.061-.14V11.99a4.49,4.49,0,0,1,4.49-4.49Z" transform="translate(-333.566 -7.5)" fill="#ffe07d"/>
        </g>
      </g>
      <g id="Grupo_1203738" data-name="Grupo 1203738" transform="translate(31.892 16.474)">
        <g id="Grupo_1203737" data-name="Grupo 1203737" transform="translate(0)">
          <path id="Trazado_1043807" data-name="Trazado 1043807" d="M167.583,167.808a.127.127,0,0,0,.09-.216l-22.329-22.329a.342.342,0,0,0-.481.024l-1.516,1.516a.342.342,0,0,0-.024.481l20.487,20.487a.127.127,0,0,0,.09.037Z" transform="translate(-143.234 -145.174)" fill="#c6beb9"/>
        </g>
      </g>
      <g id="Grupo_1203740" data-name="Grupo 1203740" transform="translate(37.336 11.712)">
        <g id="Grupo_1203739" data-name="Grupo 1203739">
          <path id="Trazado_1043808" data-name="Trazado 1043808" d="M202.1,122.285A23.151,23.151,0,0,0,195.74,106.6a20.363,20.363,0,0,0-4.533-3.386v8.185Z" transform="translate(-191.207 -103.21)" fill="#f9f6f6"/>
        </g>
      </g>
      <g id="Grupo_1203742" data-name="Grupo 1203742" transform="translate(27.13 21.918)">
        <g id="Grupo_1203741" data-name="Grupo 1203741" transform="translate(0)">
          <path id="Trazado_1043809" data-name="Trazado 1043809" d="M109.455,193.146h-8.184a20.366,20.366,0,0,0,3.386,4.533,23.151,23.151,0,0,0,15.688,6.357Z" transform="translate(-101.271 -193.146)" fill="#f9f6f6"/>
        </g>
      </g>
      <g id="Grupo_1203744" data-name="Grupo 1203744" transform="translate(24.151 8.733)">
        <g id="Grupo_1203743" data-name="Grupo 1203743">
          <path id="Trazado_1043810" data-name="Trazado 1043810" d="M82.85,86.811a.342.342,0,0,1,.024-.481l1.516-1.516a.342.342,0,0,1,.481-.024l3.335,3.335V79.939c-5.778-3.207-12.05-3.357-12.806-2.6s-.606,7.028,2.6,12.806h8.184Z" transform="translate(-75.021 -76.961)" fill="#8e736e"/>
        </g>
      </g>
      <path id="Trazado_1043811" data-name="Trazado 1043811" d="M177.261,56.708a.851.851,0,0,0,0,1.7h19.725a.851.851,0,0,0,0-1.7Z" transform="translate(-140.753 -50.273)"/>
      <path id="Trazado_1043812" data-name="Trazado 1043812" d="M154.784,297.559a.851.851,0,0,0-.851-.851h-6.314a.851.851,0,1,0,0,1.7h6.314A.851.851,0,0,0,154.784,297.559Z" transform="translate(-114.475 -263.038)"/>
      <path id="Trazado_1043813" data-name="Trazado 1043813" d="M57.157,38.514l-7.681-7.681H56.2a.875.875,0,0,0,.886-.825.851.851,0,0,0-.851-.877h-7.2a22.129,22.129,0,0,0-.419-2.837H56.2a.875.875,0,0,0,.886-.825.851.851,0,0,0-.851-.877H48.194a26.217,26.217,0,0,0-.985-2.837H56.2a.875.875,0,0,0,.886-.825.851.851,0,0,0-.851-.877h-9.8a23.089,23.089,0,0,0-1.614-2.729.862.862,0,0,0-.071-.108H56.2a.875.875,0,0,0,.886-.825.851.851,0,0,0-.851-.877H43.417a19.77,19.77,0,0,0-3.039-2.837H56.2a.875.875,0,0,0,.886-.825.851.851,0,0,0-.851-.877c-19.318,0-18.466,0-18.484-.006A24.393,24.393,0,0,0,34.833,9.6q-.038-.017-.078-.03a25.362,25.362,0,0,0-6.434-1.588V5.341A3.639,3.639,0,0,1,31.96,1.7H62.49a5.322,5.322,0,0,0-1.435,3.639V16.688a.875.875,0,0,0,.825.886.851.851,0,0,0,.877-.851V15.353h7.974a1,1,0,0,0,1-1v-2.6a1.042,1.042,0,0,0-.331-.762L69.45,9.157l1.957-1.829a1.046,1.046,0,0,0,.331-.762V5.341A5.341,5.341,0,0,0,66.4,0H31.96a5.341,5.341,0,0,0-5.341,5.341V7.883a4.172,4.172,0,0,0-2.692.626c-.959.959-.569,4.256-.426,5.243a25.6,25.6,0,0,0,3.118,8.988V33.51a1.042,1.042,0,0,0,.331.762L28.907,36.1l-1.958,1.83a1.047,1.047,0,0,0-.33.761v4.057H18.645a1,1,0,0,0-1,1V52.76A5.341,5.341,0,0,0,22.981,58.1H57.417a5.347,5.347,0,0,0,5.341-5.341V28.869a1.042,1.042,0,0,0-.331-.762L60.47,26.278l1.957-1.829a1.046,1.046,0,0,0,.331-.762V20.731a.875.875,0,0,0-.825-.886.851.851,0,0,0-.877.851v2.7l-2.263,2.116a1.044,1.044,0,0,0,0,1.524l2.263,2.115V52.688a3.7,3.7,0,0,1-3.7,3.711,3.643,3.643,0,0,1-3.576-3.638V43.753a1,1,0,0,0-1-1h-8.88a1.048,1.048,0,0,0-.762.331L41.3,45.036l-1.83-1.958a1.047,1.047,0,0,0-.761-.33H33.926a.875.875,0,0,0-.886.825.851.851,0,0,0,.851.877h4.535l2.115,2.263a1.044,1.044,0,0,0,1.524,0L44.18,44.45h7.9v8.31A5.321,5.321,0,0,0,53.511,56.4H22.981a3.639,3.639,0,0,1-3.639-3.639V44.45H29.883a.875.875,0,0,0,.886-.825.851.851,0,0,0-.851-.877h-1.6v-3.77l2.263-2.115a1.043,1.043,0,0,0,0-1.524l-2.263-2.115v-7.97a19.869,19.869,0,0,0,4.3,4.059.85.85,0,0,0-.325.673.872.872,0,0,0,.883.847h1.945a24.466,24.466,0,0,0,10.739,2.834L50.4,38.209H36.544a.875.875,0,0,0-.886.825.851.851,0,0,0,.851.877H52.175a1.161,1.161,0,0,0,.5.135h3.846a.9.9,0,0,0,.635-1.532ZM66.4,1.7a3.643,3.643,0,0,1,3.639,3.639V6.28L67.772,8.4a1.044,1.044,0,0,0,0,1.524l2.263,2.115v1.616H62.758V5.341A3.643,3.643,0,0,1,66.4,1.7ZM53.133,38.42,43.5,28.786a.851.851,0,0,0-1.2,1.2l1.875,1.875A22.809,22.809,0,0,1,32.307,26.84h1.769a.851.851,0,0,0,0-1.7H30.558a19.372,19.372,0,0,1-1.81-2.369h6.327l4.366,4.366a.851.851,0,0,0,1.2-1.2l-7.576-7.576.818-.818L54.769,38.42H53.133ZM40.757,18.71a.851.851,0,0,0,.851-.851V16.051a18.854,18.854,0,0,1,1.613,1.957v4.368a.851.851,0,1,0,1.7,0V20.822A23.886,23.886,0,0,1,46.7,25.53a.845.845,0,0,0,.062.244,21.741,21.741,0,0,1,.522,2.868l-9.1-9.1V13.217a19.659,19.659,0,0,1,1.719,1.254v3.388A.851.851,0,0,0,40.757,18.71ZM25.148,9.73a10.927,10.927,0,0,1,4.079.083,23.946,23.946,0,0,1,4.407,1.151V13.1a.851.851,0,1,0,1.7,0V11.659q.587.267,1.149.561v5.622L34.6,15.961a1.191,1.191,0,0,0-1.685.024L31.4,17.5a1.193,1.193,0,0,0-.024,1.685l1.881,1.881H27.638a24.079,24.079,0,0,1-1.929-5H27.47a.851.851,0,1,0,0-1.7H25.327q-.052-.279-.1-.557a10.931,10.931,0,0,1-.083-4.079Z"/>
    </g>
  </g>
</svg>
