<svg xmlns="http://www.w3.org/2000/svg" xmlns:xlink="http://www.w3.org/1999/xlink" width="108" height="108" viewBox="0 0 108 108">
  <defs>
    <filter id="Trazado_904820" x="0" y="0" width="108" height="108" filterUnits="userSpaceOnUse">
      <feOffset dy="3" input="SourceAlpha"/>
      <feGaussianBlur stdDeviation="3" result="blur"/>
      <feFlood flood-opacity="0.161"/>
      <feComposite operator="in" in2="blur"/>
      <feComposite in="SourceGraphic"/>
    </filter>
  </defs>
  <g id="Grupo_1203745" data-name="Grupo 1203745" transform="translate(-200 -447.235)">
    <g id="Grupo_1174814" data-name="Grupo 1174814" transform="translate(209 453.235)">
      <g id="Grupo_1173585" data-name="Grupo 1173585" transform="translate(0 0)">
        <g id="Grupo_1173428" data-name="Grupo 1173428">
          <g id="Grupo_1171958" data-name="Grupo 1171958">
            <g id="Grupo_1167341" data-name="Grupo 1167341">
              <g id="Grupo_1166792" data-name="Grupo 1166792">
                <g transform="matrix(1, 0, 0, 1, -9, -6)" filter="url(#Trazado_904820)">
                  <g id="Trazado_904820-2" data-name="Trazado 904820" transform="translate(9 6)" fill="#f2f7e5">
                    <path d="M 44.99999618530273 88.50003814697266 C 39.12687301635742 88.50003814697266 33.43022155761719 87.35011291503906 28.06829643249512 85.08219909667969 C 22.88852119445801 82.89134979248047 18.23629570007324 79.75462341308594 14.24084663391113 75.75917053222656 C 10.24540901184082 71.76372528076172 7.108683586120605 67.11149597167969 4.917821407318115 61.93172454833984 C 2.649921178817749 56.56979751586914 1.499996185302734 50.87314605712891 1.499996185302734 45.00002288818359 C 1.499996185302734 39.12689971923828 2.649921178817749 33.43024826049805 4.917821407318115 28.06830978393555 C 7.108683586120605 22.88853454589844 10.24540901184082 18.2363224029541 14.24084663391113 14.24087333679199 C 18.23629570007324 10.24542331695557 22.88852119445801 7.108697891235352 28.06829643249512 4.917835235595703 C 33.43022155761719 2.649935483932495 39.12687301635742 1.500010371208191 44.99999618530273 1.500010371208191 C 50.87311935424805 1.500010371208191 56.56977081298828 2.649935483932495 61.93169784545898 4.917835235595703 C 67.11147308349609 7.108697891235352 71.76369476318359 10.24542331695557 75.75914764404297 14.24087333679199 C 79.75458526611328 18.2363224029541 82.89131164550781 22.88853454589844 85.08216857910156 28.06830978393555 C 87.35007476806641 33.43024826049805 88.5 39.12689971923828 88.5 45.00002288818359 C 88.5 50.87314605712891 87.35007476806641 56.56979751586914 85.08216857910156 61.93172454833984 C 82.89131164550781 67.11149597167969 79.75458526611328 71.76372528076172 75.75914764404297 75.75917053222656 C 71.76369476318359 79.75462341308594 67.11147308349609 82.89134979248047 61.93169784545898 85.08219909667969 C 56.56977081298828 87.35011291503906 50.87311935424805 88.50003814697266 44.99999618530273 88.50003814697266 Z" stroke="none"/>
                    <path d="M 44.99999618530273 3.000007629394531 C 39.32870864868164 3.000007629394531 33.82865142822266 4.110069274902344 28.65262603759766 6.299354553222656 C 23.65165710449219 8.414581298828125 19.15968322753906 11.44335174560547 15.301513671875 15.30152130126953 C 11.44333648681641 19.15969085693359 8.414566040039062 23.65166473388672 6.299339294433594 28.65263748168945 C 4.110054016113281 33.82867813110352 2.999992370605469 39.3287353515625 2.999992370605469 45.00002288818359 C 2.999992370605469 50.67131042480469 4.110054016113281 56.17136764526367 6.299339294433594 61.34739685058594 C 8.414566040039062 66.34838104248047 11.44333648681641 70.84033966064453 15.301513671875 74.69850921630859 C 19.15968322753906 78.55669403076172 23.65165710449219 81.58546447753906 28.65262603759766 83.70069122314453 C 33.82865142822266 85.88997650146484 39.32870864868164 87.00003814697266 44.99999618530273 87.00003814697266 C 50.67128372192383 87.00003814697266 56.17134094238281 85.88997650146484 61.34736633300781 83.70069122314453 C 66.34834289550781 81.58546447753906 70.84030914306641 78.55669403076172 74.69847869873047 74.69850921630859 C 78.55665588378906 70.84033966064453 81.58542633056641 66.34838104248047 83.70065307617188 61.34739685058594 C 85.88993835449219 56.17136764526367 87 50.67131042480469 87 45.00002288818359 C 87 39.3287353515625 85.88993835449219 33.82867813110352 83.70065307617188 28.65263748168945 C 81.58542633056641 23.65166473388672 78.55665588378906 19.15969085693359 74.69847869873047 15.30152130126953 C 70.84030914306641 11.44335174560547 66.34834289550781 8.414581298828125 61.34736633300781 6.299354553222656 C 56.17134094238281 4.110069274902344 50.67128372192383 3.000007629394531 44.99999618530273 3.000007629394531 M 44.99999618530273 7.62939453125e-06 C 69.85281372070312 7.62939453125e-06 90 20.14719390869141 90 45.00002288818359 C 90 69.85283660888672 69.85281372070312 90.00003814697266 44.99999618530273 90.00003814697266 C 20.14717864990234 90.00003814697266 -7.62939453125e-06 69.85283660888672 -7.62939453125e-06 45.00002288818359 C -7.62939453125e-06 20.14719390869141 20.14717864990234 7.62939453125e-06 44.99999618530273 7.62939453125e-06 Z" stroke="none" fill="#86b60c"/>
                  </g>
                </g>
              </g>
            </g>
          </g>
        </g>
      </g>
    </g>
    <g id="man_6638296" transform="translate(176.489 455.314)">
      <path id="Trazado_1043816" data-name="Trazado 1043816" d="M82.71,276.742h0a3.593,3.593,0,0,0,2.943,3.534l10.814,1.989a8.184,8.184,0,0,1,6.7,8.049v14.742H51.851V290.314a8.184,8.184,0,0,1,6.7-8.049l10.814-1.989a3.593,3.593,0,0,0,2.943-3.534h10.4Z" transform="translate(0 -233.214)" fill="#ffcaa6"/>
      <path id="Trazado_1043817" data-name="Trazado 1043817" d="M160.257,304.366V319.92l0,7.56h-32.15v-6.052h0a45.181,45.181,0,0,0,22.164-17.739l.691-1.063,4.4,1.063Z" transform="translate(-66.673 -255.846)" fill="#ff926f"/>
      <path id="Trazado_1043818" data-name="Trazado 1043818" d="M140.3,22.565a14.873,14.873,0,0,0-19.427-11.792,14.873,14.873,0,0,0-19.427,11.792,14.777,14.777,0,0,1,4.435-1.326,14.888,14.888,0,0,0-4.186,13.3,14.772,14.772,0,0,1,3.274-2.472,14.877,14.877,0,0,0,1.211,12.046,14.783,14.783,0,0,1,2.694-3.87,14.849,14.849,0,0,0,1.789,9.627A14.808,14.808,0,0,1,114.3,45.1a17.113,17.113,0,0,0,6.569,8.608,17.112,17.112,0,0,0,6.569-8.608,14.81,14.81,0,0,1,3.641,4.769,14.849,14.849,0,0,0,1.789-9.627,14.778,14.778,0,0,1,2.694,3.87,14.878,14.878,0,0,0,1.211-12.046,14.775,14.775,0,0,1,3.274,2.472,14.888,14.888,0,0,0-4.186-13.3A14.781,14.781,0,0,1,140.3,22.565Z" transform="translate(-43.36 0)" fill="#da8b63"/>
      <path id="Trazado_1043819" data-name="Trazado 1043819" d="M170.807,114.077v7.109a10.757,10.757,0,0,0,.221,2.174,3.171,3.171,0,0,0,4.532-.335,7.832,7.832,0,0,1,11.91,0,3.171,3.171,0,0,0,4.532.335,10.755,10.755,0,0,0,.221-2.174V113.28h0a9.784,9.784,0,0,1-4.7-1.2l-1.306-.715h0a12.08,12.08,0,0,1-7.027,2.254H178.2l1.42-2.636-.208.161a14.085,14.085,0,0,1-8.607,2.936Z" transform="translate(-104.004 -88.288)" fill="#ffcaa6"/>
      <path id="Trazado_1043820" data-name="Trazado 1043820" d="M67.41,313.69a8.168,8.168,0,0,1,4.748-2.74l7.607-1.4" transform="translate(-13.603 -261.899)" fill="none" stroke="#000" stroke-linecap="round" stroke-linejoin="round" stroke-miterlimit="10" stroke-width="1"/>
      <path id="Trazado_1043821" data-name="Trazado 1043821" d="M89.029,309.795l7.439,1.368a8.184,8.184,0,0,1,6.7,8.049v14.742H51.851v-9.086" transform="translate(0 -262.113)" fill="none" stroke="#000" stroke-linecap="round" stroke-linejoin="round" stroke-miterlimit="10" stroke-width="1"/>
      <path id="Trazado_1043822" data-name="Trazado 1043822" d="M128.9,321.393a45.181,45.181,0,0,0,22.065-17.7l.691-1.063" transform="translate(-67.361 -255.846)" fill="none" stroke="#000" stroke-linecap="round" stroke-linejoin="round" stroke-miterlimit="10" stroke-width="1"/>
      <path id="Trazado_1043823" data-name="Trazado 1043823" d="M383.868,317.464v15.429l0,7.56" transform="translate(-290.284 -268.818)" fill="none" stroke="#000" stroke-linecap="round" stroke-linejoin="round" stroke-miterlimit="10" stroke-width="1"/>
      <line id="Línea_831" data-name="Línea 831" y1="9.236" transform="translate(61.436 61.998)" fill="none" stroke="#000" stroke-linecap="round" stroke-linejoin="round" stroke-miterlimit="10" stroke-width="1"/>
      <path id="Trazado_1043824" data-name="Trazado 1043824" d="M140.3,22.565a14.873,14.873,0,0,0-19.427-11.792,14.873,14.873,0,0,0-19.427,11.792,14.777,14.777,0,0,1,4.435-1.326,14.888,14.888,0,0,0-4.186,13.3,14.772,14.772,0,0,1,3.274-2.472,14.877,14.877,0,0,0,1.211,12.046,14.783,14.783,0,0,1,2.694-3.87,14.849,14.849,0,0,0,1.789,9.627A14.808,14.808,0,0,1,114.3,45.1a17.113,17.113,0,0,0,6.569,8.608,17.112,17.112,0,0,0,6.569-8.608,14.81,14.81,0,0,1,3.641,4.769,14.849,14.849,0,0,0,1.789-9.627,14.778,14.778,0,0,1,2.694,3.87,14.878,14.878,0,0,0,1.211-12.046,14.775,14.775,0,0,1,3.274,2.472,14.888,14.888,0,0,0-4.186-13.3A14.781,14.781,0,0,1,140.3,22.565Z" transform="translate(-43.36 0)" fill="none" stroke="#000" stroke-linecap="round" stroke-linejoin="round" stroke-miterlimit="10" stroke-width="1"/>
      <path id="Trazado_1043825" data-name="Trazado 1043825" d="M170.807,130.07v7.109a10.756,10.756,0,0,0,.221,2.174,3.171,3.171,0,0,0,4.532-.335,7.832,7.832,0,0,1,11.91,0,3.171,3.171,0,0,0,4.532.335,10.755,10.755,0,0,0,.221-2.174v-7.906" transform="translate(-104.004 -104.281)" fill="none" stroke="#000" stroke-linecap="round" stroke-linejoin="round" stroke-miterlimit="10" stroke-width="1"/>
      <path id="Trazado_1043826" data-name="Trazado 1043826" d="M166.944,86.607a17.253,17.253,0,0,1-4.369,5.933,17.164,17.164,0,0,0,12.709-6.192" transform="translate(-96.807 -66.752)" fill="none" stroke="#000" stroke-linecap="round" stroke-linejoin="round" stroke-miterlimit="10" stroke-width="1"/>
      <path id="Trazado_1043827" data-name="Trazado 1043827" d="M240.926,83.066A17.253,17.253,0,0,0,245.294,89a17.112,17.112,0,0,1-7.636-2.043,17.3,17.3,0,0,1-8.016,2.254,17.257,17.257,0,0,0,4.278-5.732" transform="translate(-155.444 -63.882)" fill="none" stroke="#000" stroke-linecap="round" stroke-linejoin="round" stroke-miterlimit="10" stroke-width="1"/>
      <line id="Línea_832" data-name="Línea 832" x2="1.931" transform="translate(76.546 38.958)" fill="none" stroke="#000" stroke-linecap="round" stroke-linejoin="round" stroke-miterlimit="10" stroke-width="1"/>
      <line id="Línea_833" data-name="Línea 833" x1="2.69" transform="translate(85.504 66.814)" fill="none" stroke="#000" stroke-linecap="round" stroke-linejoin="round" stroke-miterlimit="10" stroke-width="1"/>
      <line id="Línea_834" data-name="Línea 834" x1="2.69" transform="translate(74.108 66.814)" fill="none" stroke="#000" stroke-linecap="round" stroke-linejoin="round" stroke-miterlimit="10" stroke-width="1"/>
      <line id="Línea_835" data-name="Línea 835" x1="2.69" transform="translate(80.951 62.236)" fill="none" stroke="#000" stroke-linecap="round" stroke-linejoin="round" stroke-miterlimit="10" stroke-width="1"/>
      <line id="Línea_836" data-name="Línea 836" transform="translate(51.851 57.1)" fill="none" stroke="#000" stroke-linecap="round" stroke-linejoin="round" stroke-miterlimit="10" stroke-width="1"/>
    </g>
  </g>
</svg>
