<svg xmlns="http://www.w3.org/2000/svg" xmlns:xlink="http://www.w3.org/1999/xlink" width="98" height="98" viewBox="0 0 98 98">
  <defs>
    <filter id="Trazado_904820" x="0" y="0" width="98" height="98" filterUnits="userSpaceOnUse">
      <feOffset dy="3" input="SourceAlpha"/>
      <feGaussianBlur stdDeviation="3" result="blur"/>
      <feFlood flood-opacity="0.161"/>
      <feComposite operator="in" in2="blur"/>
      <feComposite in="SourceGraphic"/>
    </filter>
    <clipPath id="clip-path">
      <path id="path549" d="M0-682.665H59.569V-623.1H0Z" transform="translate(0 682.665)"/>
    </clipPath>
  </defs>
  <g id="Grupo_1203783" data-name="Grupo 1203783" transform="translate(-821 -2662)">
    <g id="Grupo_1203719" data-name="Grupo 1203719" transform="translate(830 2668)">
      <g id="Grupo_1173585" data-name="Grupo 1173585" transform="translate(0 0)">
        <g id="Grupo_1173428" data-name="Grupo 1173428">
          <g id="Grupo_1171958" data-name="Grupo 1171958">
            <g id="Grupo_1167341" data-name="Grupo 1167341">
              <g id="Grupo_1166792" data-name="Grupo 1166792">
                <g transform="matrix(1, 0, 0, 1, -9, -6)" filter="url(#Trazado_904820)">
                  <g id="Trazado_904820-2" data-name="Trazado 904820" transform="translate(9 6)" fill="#e9f9fd">
                    <path d="M 40 78.50003051757812 C 34.80187606811523 78.50003051757812 29.76003265380859 77.48231506347656 25.01452255249023 75.47512054443359 C 20.43014526367188 73.53610229492188 16.31264495849609 70.75990295410156 12.77638912200928 67.2236328125 C 9.240133285522461 63.6873779296875 6.46393346786499 59.56987762451172 4.524899959564209 54.98550033569336 C 2.517722129821777 50.239990234375 1.5 45.19815444946289 1.5 40.00002288818359 C 1.5 34.8018913269043 2.517722129821777 29.76004600524902 4.524899959564209 25.01454544067383 C 6.46393346786499 20.43016815185547 9.240133285522461 16.31265640258789 12.77638912200928 12.77640056610107 C 16.31264495849609 9.240144729614258 20.43014526367188 6.463944911956787 25.01452255249023 4.524911880493164 C 29.76003265380859 2.517734050750732 34.8018684387207 1.500011801719666 40 1.500011801719666 C 45.1981315612793 1.500011801719666 50.23996734619141 2.517734050750732 54.98547744750977 4.524911880493164 C 59.56985473632812 6.463944911956787 63.68735504150391 9.240144729614258 67.22360992431641 12.77640056610107 C 70.75986480712891 16.31265640258789 73.53606414794922 20.43016815185547 75.47509765625 25.01454544067383 C 77.48227691650391 29.76004600524902 78.5 34.8018913269043 78.5 40.00002288818359 C 78.5 45.19815444946289 77.48227691650391 50.239990234375 75.47509765625 54.98550033569336 C 73.53606414794922 59.56987762451172 70.75986480712891 63.6873779296875 67.22360992431641 67.2236328125 C 63.68735504150391 70.75990295410156 59.56985473632812 73.53610229492188 54.98547744750977 75.47512054443359 C 50.23996734619141 77.48231506347656 45.19812393188477 78.50003051757812 40 78.50003051757812 Z" stroke="none"/>
                    <path d="M 40 3.000007629394531 C 35.00370788574219 3.000007629394531 30.15846633911133 3.977859497070312 25.59885406494141 5.906425476074219 C 21.19327926635742 7.769821166992188 17.23603820800781 10.43807983398438 13.83705139160156 13.83706665039062 C 10.43806457519531 17.23604965209961 7.769813537597656 21.19329071044922 5.906410217285156 25.59886169433594 C 3.977851867675781 30.15847778320312 3 35.00373077392578 3 40.00002288818359 C 3 44.99631500244141 3.977851867675781 49.84155654907227 5.906410217285156 54.40116882324219 C 7.769813537597656 58.80675506591797 10.43806457519531 62.76399612426758 13.83705139160156 66.16297912597656 C 17.23603820800781 69.56196594238281 21.19327926635742 72.230224609375 25.59885406494141 74.09362030029297 C 30.15846633911133 76.02218627929688 35.00370788574219 77.00003814697266 40 77.00003814697266 C 44.99629211425781 77.00003814697266 49.84153366088867 76.02218627929688 54.40114593505859 74.09362030029297 C 58.80672073364258 72.230224609375 62.76396179199219 69.56196594238281 66.16294860839844 66.16297912597656 C 69.56193542480469 62.76399612426758 72.23018646240234 58.80675506591797 74.09358978271484 54.40116882324219 C 76.02214813232422 49.84155654907227 77 44.99631500244141 77 40.00002288818359 C 77 35.00373077392578 76.02214813232422 30.15847778320312 74.09358978271484 25.59886169433594 C 72.23018646240234 21.19329071044922 69.56193542480469 17.23604965209961 66.16294860839844 13.83706665039062 C 62.76396179199219 10.43807983398438 58.80672073364258 7.769821166992188 54.40114593505859 5.906425476074219 C 49.84153366088867 3.977859497070312 44.99629211425781 3.000007629394531 40 3.000007629394531 M 40 7.62939453125e-06 C 62.09138488769531 7.62939453125e-06 80 17.90862274169922 80 40.00002288818359 C 80 62.09140777587891 62.09138488769531 80.00003814697266 40 80.00003814697266 C 17.90861511230469 80.00003814697266 0 62.09140777587891 0 40.00002288818359 C 0 17.90862274169922 17.90861511230469 7.62939453125e-06 40 7.62939453125e-06 Z" stroke="none" fill="#1d7083"/>
                  </g>
                </g>
              </g>
            </g>
          </g>
        </g>
      </g>
    </g>
    <g id="g543" transform="translate(840.215 3360.88)">
      <g id="g545" transform="translate(0 -682.665)">
        <g id="g547" clip-path="url(#clip-path)">
          <g id="g553" transform="translate(0.909 0.894)">
            <path id="path555" d="M0-302.231a28.894,28.894,0,0,1,28.894-28.894,28.894,28.894,0,0,1,28.894,28.894,28.894,28.894,0,0,1-28.894,28.894A28.894,28.894,0,0,1,0-302.231" transform="translate(0 331.125)" fill="#ff905b"/>
          </g>
          <g id="g557" transform="translate(5.795 5.548)">
            <path id="path559" d="M-253.551-507.1a24.268,24.268,0,0,1-24.24-24.24,24.267,24.267,0,0,1,24.24-24.24,24.267,24.267,0,0,1,24.24,24.24,24.268,24.268,0,0,1-24.24,24.24" transform="translate(277.791 555.581)" fill="#ffc277"/>
          </g>
          <g id="g561" transform="translate(28.872 5.548)">
            <path id="path563" d="M-12.17,0q-.585,0-1.163.029A24.27,24.27,0,0,1,9.743,24.24,24.27,24.27,0,0,1-13.333,48.452q.578.027,1.163.028A24.267,24.267,0,0,0,12.07,24.24,24.268,24.268,0,0,0-12.17,0" transform="translate(13.333)" fill="#ff905b"/>
          </g>
          <g id="g565" transform="translate(13.994 11.574)">
            <path id="path567" d="M-299.44-184.4c2-3.49-.938-7.3-.944-7.311,1.378-1.408,2.069-2.224,2.068-3.825a4.615,4.615,0,0,0-4.739-4.56,4.542,4.542,0,0,0-2.005.549c-3.727-3.584-14.183-3.235-18.444.721a17.142,17.142,0,0,0-2.859,3.392l3.261,7.594-4.939,3.209-.025,3.456a4.653,4.653,0,0,0,1.4,3.407l3.932,3.841-1.76,3.49,16.005,7.227,1.447-7.227h4.256a3.49,3.49,0,0,0,3.386-2.644l1.084-4.337,2.141-1.075a1.163,1.163,0,0,0,.35-1.81Z" transform="translate(328.067 202.028)" fill="#ff905b"/>
          </g>
          <g id="g569" transform="translate(31.397 13.504)">
            <path id="path571" d="M-155.225-207.062l-3.616-4.1c2-3.49-.938-7.3-.944-7.311,1.378-1.408,2.069-2.224,2.068-3.825a4.615,4.615,0,0,0-4.74-4.56,4.558,4.558,0,0,0-1.133.188c.105.16.165.249.167.249,1.2,0,3.96,1.4,3.378,4.125-.123.577-.059.821-1.4,2.2l-1.218,1.244.924,1.652.095.127a7.019,7.019,0,0,1,.909,1.783,3.5,3.5,0,0,1-.123,2.977l-.828,1.446,3.719,4.213-1.746.877-1.343,5.373a1.162,1.162,0,0,1-1.129.881h-6.163l-1.716,8.571,2.176.983,1.447-7.227h4.255a3.49,3.49,0,0,0,3.386-2.644l1.084-4.337,2.141-1.075a1.163,1.163,0,0,0,.35-1.81" transform="translate(170.065 226.858)" fill="#dd662a"/>
          </g>
          <g id="g573" transform="translate(13.994 11.574)">
            <path id="path575" d="M-289.569-107.927c1.378-1.408,2.069-2.224,2.068-3.825a4.615,4.615,0,0,0-4.74-4.56,4.54,4.54,0,0,0-2,.549c-3.727-3.584-14.183-3.235-18.445.721a17.149,17.149,0,0,0-2.859,3.391l3.261,7.594-4.939,3.209-.025,3.456a4.654,4.654,0,0,0,1.4,3.407l3.932,3.841a7.632,7.632,0,0,0,7.113-4.866l.447-1.149a4.025,4.025,0,0,1-.117-.966,3.5,3.5,0,0,1,3.316-3.665,3.082,3.082,0,0,1,1.844.619,3.069,3.069,0,0,0,3.09-3.068v-.866Z" transform="translate(317.252 118.245)" fill="#fff5bd"/>
          </g>
          <g id="g577" transform="translate(37.874 13.504)">
            <path id="path579" d="M-1.749-4.6c1.2,0,3.96,1.4,3.378,4.125C1.506.1,1.57.347.225,1.722L-.993,2.966-.13,4.507,1.888,3.349C3.266,1.941,3.958,1.125,3.957-.476A4.615,4.615,0,0,0-.783-5.036a4.554,4.554,0,0,0-1.133.188c.105.16.165.249.167.249" transform="translate(1.916 5.039)" fill="#ffc277"/>
          </g>
          <g id="g581" transform="translate(11.59 6.712)">
            <path id="path583" d="M-97.827-61.23-97.435-58a2.909,2.909,0,0,1-3.986,3.044l-2.052-.837-.019.845a7.738,7.738,0,0,1-3.688,6.419l2.43,3.7L-81.8-59.738l-4.821-7.345-2.75,6.909a2.909,2.909,0,0,1-4.163,1.44Z" transform="translate(107.18 67.084)" fill="#ff905b"/>
          </g>
          <g id="g585" transform="translate(31.275 6.712)">
            <path id="path587" d="M-42.554-87.917l1.631-1.06-4.821-7.345-.879,2.207Z" transform="translate(46.623 96.322)" fill="#dd662a"/>
          </g>
          <g id="g589" transform="translate(0.909 0.894)">
            <path id="path591" d="M-111.168-68.043A28.774,28.774,0,0,1-92.9-74.548,28.894,28.894,0,0,1-64.008-45.654,28.894,28.894,0,0,1-92.9-16.76,28.894,28.894,0,0,1-121.8-45.654,28.817,28.817,0,0,1-112.48-66.9" transform="translate(121.796 74.548)" fill="none" stroke="#000" stroke-miterlimit="10" stroke-width="1"/>
          </g>
          <g id="g593" transform="translate(5.563 5.548)">
            <path id="path595" d="M-420.563-444.175a24.14,24.14,0,0,1-15.967,6.016,24.268,24.268,0,0,1-24.24-24.24,24.268,24.268,0,0,1,24.24-24.24,24.268,24.268,0,0,1,24.24,24.24,24.162,24.162,0,0,1-7.01,17.034" transform="translate(460.77 486.639)" fill="none" stroke="#000" stroke-miterlimit="10" stroke-width="1"/>
          </g>
          <g id="g597" transform="translate(15.698 11.574)">
            <path id="path599" d="M-152.337-.6c-4.258-.327-9.12.746-11.7,3.145A17.147,17.147,0,0,0-166.9,5.937" transform="translate(166.901 0.657)" fill="none" stroke="#000" stroke-miterlimit="10" stroke-width="1"/>
          </g>
          <g id="g601" transform="translate(13.994 13.504)">
            <path id="path603" d="M-.265-161.782l-.025,3.456a4.653,4.653,0,0,0,1.4,3.407l3.932,3.841-1.76,3.49,16.005,7.227,1.447-7.227h4.256a3.49,3.49,0,0,0,3.386-2.644l1.084-4.337,2.141-1.075a1.163,1.163,0,0,0,.35-1.81l-3.616-4.1c2-3.49-.938-7.3-.944-7.311,1.378-1.408,2.069-2.224,2.068-3.825a4.615,4.615,0,0,0-4.739-4.56,4.542,4.542,0,0,0-2.005.549" transform="translate(0.29 177.248)" fill="none" stroke="#000" stroke-miterlimit="10" stroke-width="1"/>
          </g>
          <g id="g605" transform="translate(19.328 21.892)">
            <path id="path607" d="M-233.779,0l-6.658,3.82v.866a3.069,3.069,0,0,1-3.089,3.068,3.082,3.082,0,0,0-1.844-.619,3.5,3.5,0,0,0-3.316,3.665,4.026,4.026,0,0,0,.117.966l-.447,1.149a7.632,7.632,0,0,1-7.113,4.866" transform="translate(256.129)" fill="none" stroke="#000" stroke-miterlimit="10" stroke-width="1"/>
          </g>
          <g id="g609" transform="translate(26.888 33.659)">
            <path id="path611" d="M0,0A3.793,3.793,0,0,0,3.615,3.107" fill="none" stroke="#000" stroke-miterlimit="10" stroke-width="1"/>
          </g>
          <g id="g613" transform="translate(11.59 6.712)">
            <path id="path615" d="M-212.075-111.556l5.11-3.32-4.821-7.345-2.75,6.909a2.909,2.909,0,0,1-4.163,1.44l-4.3-2.5.392,3.232a2.909,2.909,0,0,1-3.986,3.044l-2.052-.837-.019.845a7.738,7.738,0,0,1-3.688,6.419l2.43,3.7,16.388-10.647" transform="translate(232.35 122.221)" fill="none" stroke="#000" stroke-miterlimit="10" stroke-width="1"/>
          </g>
          <g id="g617" transform="translate(31.53 39.674)">
            <path id="path619" d="M-36.51-36.51S-40-37.266-40-40" transform="translate(40 40)" fill="none" stroke="#000" stroke-miterlimit="10" stroke-width="1"/>
          </g>
          <g id="g621" transform="translate(39.267 29.203)">
            <path id="path623" d="M-35.089,0h-3.355" transform="translate(38.444)" fill="none" stroke="#000" stroke-miterlimit="10" stroke-width="1"/>
          </g>
          <g id="g625" transform="translate(30.693 22.222)">
            <path id="path627" d="M-45.267-36.51h0A4.428,4.428,0,0,0-49.595-40" transform="translate(49.595 40)" fill="none" stroke="#000" stroke-miterlimit="10" stroke-width="1"/>
          </g>
          <g id="g629" transform="translate(36.109 19.209)">
            <path id="path631" d="M-29.329-44.246a4.592,4.592,0,0,0-2.8-4.23" transform="translate(32.133 48.476)" fill="none" stroke="#000" stroke-miterlimit="10" stroke-width="1"/>
          </g>
          <g id="g633" transform="translate(20.443 33.268)">
            <path id="path635" d="M-19.83-60.675v-1.768a5.237,5.237,0,0,0-1.9-4.033" transform="translate(21.725 66.476)" fill="none" stroke="#000" stroke-miterlimit="10" stroke-width="1"/>
          </g>
          <g id="g637" transform="translate(24.282 29.028)">
            <path id="path639" d="M-60.721,0h-5.805" transform="translate(66.527)" fill="none" stroke="#000" stroke-miterlimit="10" stroke-width="1"/>
          </g>
          <g id="g641" transform="translate(29.803 0.894)">
            <path id="path643" d="M0-48.679v-4.654" transform="translate(0 53.333)" fill="none" stroke="#000" stroke-miterlimit="10" stroke-width="1"/>
          </g>
          <g id="g645" transform="translate(15.356 4.765)">
            <path id="path647" d="M-24.34-42.158l-2.327-4.03" transform="translate(26.667 46.188)" fill="none" stroke="#000" stroke-miterlimit="10" stroke-width="1"/>
          </g>
          <g id="g649" transform="translate(4.78 15.341)">
            <path id="path651" d="M-42.158-24.34l-4.03-2.327" transform="translate(46.188 26.667)" fill="none" stroke="#000" stroke-miterlimit="10" stroke-width="1"/>
          </g>
          <g id="g653" transform="translate(0.909 29.788)">
            <path id="path655" d="M-48.679,0h-4.654" transform="translate(53.333)" fill="none" stroke="#000" stroke-miterlimit="10" stroke-width="1"/>
          </g>
          <g id="g657" transform="translate(4.78 41.908)">
            <path id="path659" d="M-42.158,0l-4.03,2.327" transform="translate(46.188)" fill="none" stroke="#000" stroke-miterlimit="10" stroke-width="1"/>
          </g>
          <g id="g661" transform="translate(15.356 50.781)">
            <path id="path663" d="M-24.34,0l-2.327,4.03" transform="translate(26.667)" fill="none" stroke="#000" stroke-miterlimit="10" stroke-width="1"/>
          </g>
          <g id="g665" transform="translate(29.803 54.028)">
            <path id="path667" d="M0,0V4.654" fill="none" stroke="#000" stroke-miterlimit="10" stroke-width="1"/>
          </g>
          <g id="g669" transform="translate(41.923 50.781)">
            <path id="path671" d="M0,0,2.327,4.03" fill="none" stroke="#000" stroke-miterlimit="10" stroke-width="1"/>
          </g>
          <g id="g673" transform="translate(50.795 41.908)">
            <path id="path675" d="M0,0,4.03,2.327" fill="none" stroke="#000" stroke-miterlimit="10" stroke-width="1"/>
          </g>
          <g id="g677" transform="translate(54.043 29.788)">
            <path id="path679" d="M0,0H4.654" fill="none" stroke="#000" stroke-miterlimit="10" stroke-width="1"/>
          </g>
          <g id="g681" transform="translate(50.795 15.341)">
            <path id="path683" d="M0-24.34l4.03-2.327" transform="translate(0 26.667)" fill="none" stroke="#000" stroke-miterlimit="10" stroke-width="1"/>
          </g>
          <g id="g685" transform="translate(41.923 4.765)">
            <path id="path687" d="M0-42.158l2.327-4.03" transform="translate(0 46.188)" fill="none" stroke="#000" stroke-miterlimit="10" stroke-width="1"/>
          </g>
          <g id="g689" transform="translate(8.81 31.53)">
            <path id="path691" d="M0,0H1.777" fill="none" stroke="#000" stroke-miterlimit="10" stroke-width="1"/>
          </g>
          <g id="g693" transform="translate(48.95 31.53)">
            <path id="path695" d="M0,0H1.777" fill="none" stroke="#000" stroke-miterlimit="10" stroke-width="1"/>
          </g>
        </g>
      </g>
    </g>
  </g>
</svg>
