<svg xmlns="http://www.w3.org/2000/svg" xmlns:xlink="http://www.w3.org/1999/xlink" width="108" height="108" viewBox="0 0 108 108">
  <defs>
    <filter id="Trazado_904820" x="0" y="0" width="108" height="108" filterUnits="userSpaceOnUse">
      <feOffset dy="3" input="SourceAlpha"/>
      <feGaussianBlur stdDeviation="3" result="blur"/>
      <feFlood flood-opacity="0.161"/>
      <feComposite operator="in" in2="blur"/>
      <feComposite in="SourceGraphic"/>
    </filter>
    <clipPath id="clip-path">
      <path id="path5019" d="M0-682.665H61.96v61.96H0Z" transform="translate(0 682.665)"/>
    </clipPath>
  </defs>
  <g id="Grupo_1203748" data-name="Grupo 1203748" transform="translate(-200 -314.519)">
    <g id="Grupo_1174814" data-name="Grupo 1174814" transform="translate(209 320.519)">
      <g id="Grupo_1173585" data-name="Grupo 1173585" transform="translate(0 0)">
        <g id="Grupo_1173428" data-name="Grupo 1173428">
          <g id="Grupo_1171958" data-name="Grupo 1171958">
            <g id="Grupo_1167341" data-name="Grupo 1167341">
              <g id="Grupo_1166792" data-name="Grupo 1166792">
                <g transform="matrix(1, 0, 0, 1, -9, -6)" filter="url(#Trazado_904820)">
                  <g id="Trazado_904820-2" data-name="Trazado 904820" transform="translate(9 6)" fill="#e9f9fd">
                    <path d="M 44.99999618530273 88.50003814697266 C 39.12687301635742 88.50003814697266 33.43022155761719 87.35011291503906 28.06829643249512 85.08219909667969 C 22.88852119445801 82.89134979248047 18.23629570007324 79.75462341308594 14.24084663391113 75.75917053222656 C 10.24540901184082 71.76372528076172 7.108683586120605 67.11149597167969 4.917821407318115 61.93172454833984 C 2.649921178817749 56.56979751586914 1.499996185302734 50.87314605712891 1.499996185302734 45.00002288818359 C 1.499996185302734 39.12689971923828 2.649921178817749 33.43024826049805 4.917821407318115 28.06830978393555 C 7.108683586120605 22.88853454589844 10.24540901184082 18.2363224029541 14.24084663391113 14.24087333679199 C 18.23629570007324 10.24542331695557 22.88852119445801 7.108697891235352 28.06829643249512 4.917835235595703 C 33.43022155761719 2.649935483932495 39.12687301635742 1.500010371208191 44.99999618530273 1.500010371208191 C 50.87311935424805 1.500010371208191 56.56977081298828 2.649935483932495 61.93169784545898 4.917835235595703 C 67.11147308349609 7.108697891235352 71.76369476318359 10.24542331695557 75.75914764404297 14.24087333679199 C 79.75458526611328 18.2363224029541 82.89131164550781 22.88853454589844 85.08216857910156 28.06830978393555 C 87.35007476806641 33.43024826049805 88.5 39.12689971923828 88.5 45.00002288818359 C 88.5 50.87314605712891 87.35007476806641 56.56979751586914 85.08216857910156 61.93172454833984 C 82.89131164550781 67.11149597167969 79.75458526611328 71.76372528076172 75.75914764404297 75.75917053222656 C 71.76369476318359 79.75462341308594 67.11147308349609 82.89134979248047 61.93169784545898 85.08219909667969 C 56.56977081298828 87.35011291503906 50.87311935424805 88.50003814697266 44.99999618530273 88.50003814697266 Z" stroke="none"/>
                    <path d="M 44.99999618530273 3.000007629394531 C 39.32870864868164 3.000007629394531 33.82865142822266 4.110069274902344 28.65262603759766 6.299354553222656 C 23.65165710449219 8.414581298828125 19.15968322753906 11.44335174560547 15.301513671875 15.30152130126953 C 11.44333648681641 19.15969085693359 8.414566040039062 23.65166473388672 6.299339294433594 28.65263748168945 C 4.110054016113281 33.82867813110352 2.999992370605469 39.3287353515625 2.999992370605469 45.00002288818359 C 2.999992370605469 50.67131042480469 4.110054016113281 56.17136764526367 6.299339294433594 61.34739685058594 C 8.414566040039062 66.34838104248047 11.44333648681641 70.84033966064453 15.301513671875 74.69850921630859 C 19.15968322753906 78.55669403076172 23.65165710449219 81.58546447753906 28.65262603759766 83.70069122314453 C 33.82865142822266 85.88997650146484 39.32870864868164 87.00003814697266 44.99999618530273 87.00003814697266 C 50.67128372192383 87.00003814697266 56.17134094238281 85.88997650146484 61.34736633300781 83.70069122314453 C 66.34834289550781 81.58546447753906 70.84030914306641 78.55669403076172 74.69847869873047 74.69850921630859 C 78.55665588378906 70.84033966064453 81.58542633056641 66.34838104248047 83.70065307617188 61.34739685058594 C 85.88993835449219 56.17136764526367 87 50.67131042480469 87 45.00002288818359 C 87 39.3287353515625 85.88993835449219 33.82867813110352 83.70065307617188 28.65263748168945 C 81.58542633056641 23.65166473388672 78.55665588378906 19.15969085693359 74.69847869873047 15.30152130126953 C 70.84030914306641 11.44335174560547 66.34834289550781 8.414581298828125 61.34736633300781 6.299354553222656 C 56.17134094238281 4.110069274902344 50.67128372192383 3.000007629394531 44.99999618530273 3.000007629394531 M 44.99999618530273 7.62939453125e-06 C 69.85281372070312 7.62939453125e-06 90 20.14719390869141 90 45.00002288818359 C 90 69.85283660888672 69.85281372070312 90.00003814697266 44.99999618530273 90.00003814697266 C 20.14717864990234 90.00003814697266 -7.62939453125e-06 69.85283660888672 -7.62939453125e-06 45.00002288818359 C -7.62939453125e-06 20.14719390869141 20.14717864990234 7.62939453125e-06 44.99999618530273 7.62939453125e-06 Z" stroke="none" fill="#1d7083"/>
                  </g>
                </g>
              </g>
            </g>
          </g>
        </g>
      </g>
    </g>
    <g id="g5013" transform="translate(223.02 1015.204)">
      <g id="g5015" transform="translate(0 -682.665)">
        <g id="g5017" clip-path="url(#clip-path)">
          <g id="g5023" transform="translate(12.828 1.21)">
            <path id="path5025" d="M-356.057-215.816a27.757,27.757,0,0,1-3.324-8.72c-1.571-8.922-7.048-12.823-14.066-12.823-6.995,0-12.495,3.882-14.067,12.831a27.72,27.72,0,0,1-3.323,8.712,5.421,5.421,0,0,0-.762,2.781,5.446,5.446,0,0,0,5.446,5.446h25.413a5.446,5.446,0,0,0,5.446-5.446,5.42,5.42,0,0,0-.762-2.781" transform="translate(391.599 237.359)" fill="#676e83"/>
          </g>
          <g id="g5027" transform="translate(15.732 28.86)">
            <path id="path5029" d="M-217.441-.012h-12.915c-4.928,2.454-8.79,7.442-8.79,13.01a70.251,70.251,0,0,1,11.615-3.286l0,.011V31.877h7.261V9.723l0-.011A70.254,70.254,0,0,1-208.65,13c0-5.581-3.88-10.566-8.791-13.01" transform="translate(239.146 0.013)" fill="#eefaff"/>
          </g>
          <g id="g5031" transform="translate(46.227 34.611)">
            <path id="path5033" d="M-145.485-72.739a7.225,7.225,0,0,1-1.1,3.85,16.07,16.07,0,0,0-1.6,3.411h-11.814c0-7.208-.009-6.867.01-7.261a7.5,7.5,0,0,1,6.031-7.162,7.267,7.267,0,0,1,8.481,7.162" transform="translate(160.008 80)" fill="#eefaff"/>
          </g>
          <g id="g5035" transform="translate(20.089 1.21)">
            <path id="path5037" d="M-218.217-109.108v7.987A10.893,10.893,0,0,1-229.108-90.23,10.892,10.892,0,0,1-240-101.121v-7.987A10.891,10.891,0,0,1-229.108-120a10.891,10.891,0,0,1,10.891,10.891" transform="translate(239.999 120)" fill="#fce8d0"/>
          </g>
          <g id="g5039" transform="translate(3.918 38.586)">
            <path id="path5041" d="M-234.705,0A70.243,70.243,0,0,0-246.32,3.286h-.01l.01,7.261h-11.814a18.211,18.211,0,0,1,.922,5.794v5.823H-234.7V.011Z" transform="translate(258.134)" fill="#b38f7b"/>
          </g>
          <g id="g5043" transform="translate(34.611 38.586)">
            <path id="path5045" d="M-116.382-105.653c0-7.208-.009-6.867.01-7.261h-.01A70.243,70.243,0,0,0-128-116.2l0,.011v22.153h22.509v-5.823a18.214,18.214,0,0,1,.922-5.794Z" transform="translate(128 116.2)" fill="#b38f7b"/>
          </g>
          <g id="g5047" transform="translate(1.21 34.611)">
            <path id="path5049" d="M-145.478-145.478h-11.814a16.07,16.07,0,0,0-1.6-3.411,7.225,7.225,0,0,1-1.1-3.85,7.267,7.267,0,0,1,8.481-7.162,7.5,7.5,0,0,1,6.031,7.162c.018.395.006.05.01,7.261" transform="translate(160 160)" fill="#eefaff"/>
          </g>
          <g id="g5051" transform="translate(25.534 18.273)">
            <path id="path5053" d="M-109.108-36.369c-3.007,1-4.444-.623-5.446-3.63-1,3.007-2.438,4.632-5.446,3.63" transform="translate(120 40)" fill="none" stroke="#000" stroke-linecap="round" stroke-linejoin="round" stroke-miterlimit="10" stroke-width="1.5"/>
          </g>
          <g id="g5055" transform="translate(20.089 1.21)">
            <path id="path5057" d="M-173.785-276.99a10.832,10.832,0,0,1-6.456,2.12,10.832,10.832,0,0,1-6.456-2.12,10.869,10.869,0,0,1-4.435-8.771v-7.987a10.891,10.891,0,0,1,10.891-10.891,10.891,10.891,0,0,1,10.891,10.891v7.987A10.87,10.87,0,0,1-173.785-276.99Z" transform="translate(191.133 304.639)" fill="none" stroke="#000" stroke-linecap="round" stroke-linejoin="round" stroke-miterlimit="10" stroke-width="1.5"/>
          </g>
          <g id="g5059" transform="translate(12.828 1.21)">
            <path id="path5061" d="M-85.626-298.229h-3.1a5.446,5.446,0,0,1-5.446-5.446,5.42,5.42,0,0,1,.762-2.781,27.722,27.722,0,0,0,3.323-8.712C-88.516-324.117-83.015-328-76.021-328c7.018,0,12.495,3.9,14.066,12.823a27.756,27.756,0,0,0,3.324,8.72,5.42,5.42,0,0,1,.762,2.781,5.446,5.446,0,0,1-5.446,5.446h-3.1" transform="translate(94.173 327.999)" fill="none" stroke="#000" stroke-linecap="round" stroke-linejoin="round" stroke-miterlimit="10" stroke-width="1.5"/>
          </g>
          <g id="g5063" transform="translate(1.21 34.611)">
            <path id="path5065" d="M-145.381-72.739c.006.129.01.259.01.388v18.49h-10.891v-5.823a18.214,18.214,0,0,0-.922-5.794,16.068,16.068,0,0,0-1.6-3.411,7.225,7.225,0,0,1-1.1-3.85,7.267,7.267,0,0,1,8.481-7.162A7.5,7.5,0,0,1-145.381-72.739Z" transform="translate(159.893 80)" fill="none" stroke="#000" stroke-linecap="round" stroke-linejoin="round" stroke-miterlimit="10" stroke-width="1.5"/>
          </g>
          <g id="g5067" transform="translate(46.228 34.611)">
            <path id="path5069" d="M-118.346-145.478a18.214,18.214,0,0,0-.922,5.794v5.823H-130.16v-18.49c0-.129,0-.259.01-.388a7.5,7.5,0,0,1,6.031-7.162,7.267,7.267,0,0,1,8.481,7.162,7.225,7.225,0,0,1-1.1,3.85A16.07,16.07,0,0,0-118.346-145.478Z" transform="translate(130.16 160)" fill="none" stroke="#000" stroke-linecap="round" stroke-linejoin="round" stroke-miterlimit="10" stroke-width="1.5"/>
          </g>
          <g id="g5071" transform="translate(15.732 28.861)">
            <path id="path5073" d="M-217.441,0a17.018,17.018,0,0,1,3.252,2.119A14.4,14.4,0,0,1-208.65,13.01a70.255,70.255,0,0,0-11.615-3.286A22.646,22.646,0,0,0-223.9,9.38a22.646,22.646,0,0,0-3.633.345,70.25,70.25,0,0,0-11.615,3.286,14.4,14.4,0,0,1,5.539-10.891A17.021,17.021,0,0,1-230.356,0" transform="translate(239.146)" fill="none" stroke="#000" stroke-linecap="round" stroke-linejoin="round" stroke-miterlimit="10" stroke-width="1.5"/>
          </g>
          <g id="g5075" transform="translate(27.35 38.597)">
            <path id="path5077" d="M0-221.926v-22.153" transform="translate(0 244.079)" fill="none" stroke="#000" stroke-linecap="round" stroke-linejoin="round" stroke-miterlimit="10" stroke-width="1.5"/>
          </g>
          <g id="g5079" transform="translate(3.918 49.133)">
            <path id="path5081" d="M0,0H11.814" fill="none" stroke="#000" stroke-linecap="round" stroke-linejoin="round" stroke-miterlimit="10" stroke-width="1.5"/>
          </g>
          <g id="g5083" transform="translate(46.228 49.133)">
            <path id="path5085" d="M0,0H11.814" fill="none" stroke="#000" stroke-linecap="round" stroke-linejoin="round" stroke-miterlimit="10" stroke-width="1.5"/>
          </g>
          <g id="g5087" transform="translate(33.4 48.285)">
            <path id="path5089" d="M-24.246-12.123a1.21,1.21,0,0,1-1.21,1.21,1.21,1.21,0,0,1-1.21-1.21,1.21,1.21,0,0,1,1.21-1.21,1.21,1.21,0,0,1,1.21,1.21" transform="translate(26.667 13.333)"/>
          </g>
          <g id="g5091" transform="translate(34.611 38.597)">
            <path id="path5093" d="M0,0V5.453" fill="none" stroke="#000" stroke-linecap="round" stroke-linejoin="round" stroke-miterlimit="10" stroke-width="1.5"/>
          </g>
          <g id="g5095" transform="translate(34.611 54.941)">
            <path id="path5097" d="M0,0V5.809" fill="none" stroke="#000" stroke-linecap="round" stroke-linejoin="round" stroke-miterlimit="10" stroke-width="1.5"/>
          </g>
          <g id="g5099" transform="translate(15.732 60.75)">
            <path id="path5101" d="M0,0H30.5" fill="none" stroke="#000" stroke-linecap="round" stroke-linejoin="round" stroke-miterlimit="10" stroke-width="1.5"/>
          </g>
        </g>
      </g>
    </g>
  </g>
</svg>
