<svg xmlns="http://www.w3.org/2000/svg" xmlns:xlink="http://www.w3.org/1999/xlink" width="98" height="98" viewBox="0 0 98 98">
  <defs>
    <filter id="Trazado_904820" x="0" y="0" width="98" height="98" filterUnits="userSpaceOnUse">
      <feOffset dy="3" input="SourceAlpha"/>
      <feGaussianBlur stdDeviation="3" result="blur"/>
      <feFlood flood-opacity="0.161"/>
      <feComposite operator="in" in2="blur"/>
      <feComposite in="SourceGraphic"/>
    </filter>
  </defs>
  <g id="Grupo_1203749" data-name="Grupo 1203749" transform="translate(-191 -2521)">
    <g id="Grupo_1203713" data-name="Grupo 1203713" transform="translate(200 2527)">
      <g id="Grupo_1173585" data-name="Grupo 1173585" transform="translate(0 0)">
        <g id="Grupo_1173428" data-name="Grupo 1173428">
          <g id="Grupo_1171958" data-name="Grupo 1171958">
            <g id="Grupo_1167341" data-name="Grupo 1167341">
              <g id="Grupo_1166792" data-name="Grupo 1166792">
                <g transform="matrix(1, 0, 0, 1, -9, -6)" filter="url(#Trazado_904820)">
                  <g id="Trazado_904820-2" data-name="Trazado 904820" transform="translate(9 6)" fill="#e9f9fd">
                    <path d="M 40 78.50003051757812 C 34.80187606811523 78.50003051757812 29.76003265380859 77.48231506347656 25.01452255249023 75.47512054443359 C 20.43014526367188 73.53610229492188 16.31264495849609 70.75990295410156 12.77638912200928 67.2236328125 C 9.240133285522461 63.6873779296875 6.46393346786499 59.56987762451172 4.524899959564209 54.98550033569336 C 2.517722129821777 50.239990234375 1.5 45.19815444946289 1.5 40.00002288818359 C 1.5 34.8018913269043 2.517722129821777 29.76004600524902 4.524899959564209 25.01454544067383 C 6.46393346786499 20.43016815185547 9.240133285522461 16.31265640258789 12.77638912200928 12.77640056610107 C 16.31264495849609 9.240144729614258 20.43014526367188 6.463944911956787 25.01452255249023 4.524911880493164 C 29.76003265380859 2.517734050750732 34.8018684387207 1.500011801719666 40 1.500011801719666 C 45.1981315612793 1.500011801719666 50.23996734619141 2.517734050750732 54.98547744750977 4.524911880493164 C 59.56985473632812 6.463944911956787 63.68735504150391 9.240144729614258 67.22360992431641 12.77640056610107 C 70.75986480712891 16.31265640258789 73.53606414794922 20.43016815185547 75.47509765625 25.01454544067383 C 77.48227691650391 29.76004600524902 78.5 34.8018913269043 78.5 40.00002288818359 C 78.5 45.19815444946289 77.48227691650391 50.239990234375 75.47509765625 54.98550033569336 C 73.53606414794922 59.56987762451172 70.75986480712891 63.6873779296875 67.22360992431641 67.2236328125 C 63.68735504150391 70.75990295410156 59.56985473632812 73.53610229492188 54.98547744750977 75.47512054443359 C 50.23996734619141 77.48231506347656 45.19812393188477 78.50003051757812 40 78.50003051757812 Z" stroke="none"/>
                    <path d="M 40 3.000007629394531 C 35.00370788574219 3.000007629394531 30.15846633911133 3.977859497070312 25.59885406494141 5.906425476074219 C 21.19327926635742 7.769821166992188 17.23603820800781 10.43807983398438 13.83705139160156 13.83706665039062 C 10.43806457519531 17.23604965209961 7.769813537597656 21.19329071044922 5.906410217285156 25.59886169433594 C 3.977851867675781 30.15847778320312 3 35.00373077392578 3 40.00002288818359 C 3 44.99631500244141 3.977851867675781 49.84155654907227 5.906410217285156 54.40116882324219 C 7.769813537597656 58.80675506591797 10.43806457519531 62.76399612426758 13.83705139160156 66.16297912597656 C 17.23603820800781 69.56196594238281 21.19327926635742 72.230224609375 25.59885406494141 74.09362030029297 C 30.15846633911133 76.02218627929688 35.00370788574219 77.00003814697266 40 77.00003814697266 C 44.99629211425781 77.00003814697266 49.84153366088867 76.02218627929688 54.40114593505859 74.09362030029297 C 58.80672073364258 72.230224609375 62.76396179199219 69.56196594238281 66.16294860839844 66.16297912597656 C 69.56193542480469 62.76399612426758 72.23018646240234 58.80675506591797 74.09358978271484 54.40116882324219 C 76.02214813232422 49.84155654907227 77 44.99631500244141 77 40.00002288818359 C 77 35.00373077392578 76.02214813232422 30.15847778320312 74.09358978271484 25.59886169433594 C 72.23018646240234 21.19329071044922 69.56193542480469 17.23604965209961 66.16294860839844 13.83706665039062 C 62.76396179199219 10.43807983398438 58.80672073364258 7.769821166992188 54.40114593505859 5.906425476074219 C 49.84153366088867 3.977859497070312 44.99629211425781 3.000007629394531 40 3.000007629394531 M 40 7.62939453125e-06 C 62.09138488769531 7.62939453125e-06 80 17.90862274169922 80 40.00002288818359 C 80 62.09140777587891 62.09138488769531 80.00003814697266 40 80.00003814697266 C 17.90861511230469 80.00003814697266 0 62.09140777587891 0 40.00002288818359 C 0 17.90862274169922 17.90861511230469 7.62939453125e-06 40 7.62939453125e-06 Z" stroke="none" fill="#1d7083"/>
                  </g>
                </g>
              </g>
            </g>
          </g>
        </g>
      </g>
    </g>
    <g id="temple-hatshepsut_4470280" transform="translate(216.523 2543.523)">
      <g id="Grupo_1203756" data-name="Grupo 1203756" transform="translate(0.642 0.642)">
        <path id="Trazado_1043884" data-name="Trazado 1043884" d="M79.305,84.506H92.857V96.15h-11.3Z" transform="translate(-50.856 -54.149)" fill="#ffc080"/>
        <path id="Trazado_1043885" data-name="Trazado 1043885" d="M25.3,84.506H11.75V96.15h11.3Z" transform="translate(-8.082 -54.149)" fill="#ffc080"/>
        <path id="Trazado_1043886" data-name="Trazado 1043886" d="M22.292,12.34v6.17H10.158a1.834,1.834,0,0,0-1.834,1.834v8.1H1.75V1.75H5.191A2.937,2.937,0,0,1,7.869,3.481L9.087,6.2h3.437l1.768,1.724.642.624.642.271,2.245.954h1.9A2.568,2.568,0,0,1,22.292,12.34Z" transform="translate(-1.75 -1.75)" fill="#b37059"/>
        <path id="Trazado_1043887" data-name="Trazado 1043887" d="M90.792,1.75V28.44H84.219v-8.1a1.834,1.834,0,0,0-1.834-1.834H70.25V12.34a2.568,2.568,0,0,1,2.568-2.568h1.9l2.245-.954.642-.271.642-.627L80.015,6.2h3.441l1.218-2.715A2.937,2.937,0,0,1,87.352,1.75Z" transform="translate(-45.122 -1.75)" fill="#b37059"/>
        <path id="Trazado_1043888" data-name="Trazado 1043888" d="M57.773,93.486H40.621l3.671-18.98H54.1Z" transform="translate(-26.362 -47.817)" fill="#b37059"/>
        <path id="Trazado_1043889" data-name="Trazado 1043889" d="M1.75,116.247v3.668H16.009l.709-3.668Z" transform="translate(-1.75 -74.246)" fill="#995a4d"/>
        <path id="Trazado_1043890" data-name="Trazado 1043890" d="M85.445,116.247l.709,3.668h14.259v-3.668Z" transform="translate(-54.743 -74.246)" fill="#995a4d"/>
        <g id="Grupo_1203752" data-name="Grupo 1203752" transform="translate(0 26.689)">
          <path id="Trazado_1043891" data-name="Trazado 1043891" d="M91.633,74.506H77.371l.709,3.668H91.633V89.818H95.3V74.506Z" transform="translate(-49.631 -74.506)" fill="#e69f6e"/>
          <path id="Trazado_1043892" data-name="Trazado 1043892" d="M1.75,74.506V89.818H5.418V78.174H18.971l.709-3.668H1.75Z" transform="translate(-1.75 -74.506)" fill="#e69f6e"/>
        </g>
        <path id="Trazado_1043893" data-name="Trazado 1043893" d="M21.5,47.438H50.359a1.834,1.834,0,0,1,1.834,1.834v8.1H19.67v-8.1A1.834,1.834,0,0,1,21.5,47.438Z" transform="translate(-13.096 -30.678)" fill="#ffc080"/>
        <g id="Grupo_1203754" data-name="Grupo 1203754" transform="translate(9.698 21.724)">
          <g id="Grupo_1203753" data-name="Grupo 1203753">
            <path id="Trazado_1043894" data-name="Trazado 1043894" d="M28.187,60.972H31.08v4.965H28.187Z" transform="translate(-28.187 -60.972)" fill="#995a4d"/>
            <path id="Trazado_1043895" data-name="Trazado 1043895" d="M44.122,60.972h2.893v4.965H44.122Z" transform="translate(-38.277 -60.972)" fill="#995a4d"/>
            <path id="Trazado_1043896" data-name="Trazado 1043896" d="M60.057,60.972H62.95v4.965H60.057Z" transform="translate(-48.366 -60.972)" fill="#995a4d"/>
            <path id="Trazado_1043897" data-name="Trazado 1043897" d="M75.991,60.972h2.893v4.965H75.991Z" transform="translate(-58.455 -60.972)" fill="#995a4d"/>
            <path id="Trazado_1043898" data-name="Trazado 1043898" d="M91.926,60.972h2.893v4.965H91.926Z" transform="translate(-68.545 -60.972)" fill="#995a4d"/>
          </g>
          <path id="Trazado_1043899" data-name="Trazado 1043899" d="M60.807,83.739H55.064a.642.642,0,0,1,0-1.284h5.743a.642.642,0,0,1,0,1.284Z" transform="translate(-44.798 -74.574)" fill="#995a4d"/>
          <path id="Trazado_1043900" data-name="Trazado 1043900" d="M60.311,94.52H53.2a.642.642,0,1,1,0-1.284h7.107a.642.642,0,1,1,0,1.284Z" transform="translate(-43.621 -81.401)" fill="#995a4d"/>
          <path id="Trazado_1043901" data-name="Trazado 1043901" d="M59.937,105.3H51.8a.642.642,0,1,1,0-1.284h8.139a.642.642,0,1,1,0,1.284Z" transform="translate(-42.73 -88.227)" fill="#995a4d"/>
          <path id="Trazado_1043902" data-name="Trazado 1043902" d="M59.512,116.084H50.2a.642.642,0,1,1,0-1.284h9.308a.642.642,0,1,1,0,1.284Z" transform="translate(-41.721 -95.054)" fill="#995a4d"/>
        </g>
        <path id="Trazado_1043903" data-name="Trazado 1043903" d="M93.626,84.506h3.508V96.15H93.626Z" transform="translate(-59.923 -54.149)" fill="#b37059"/>
        <path id="Trazado_1043904" data-name="Trazado 1043904" d="M0,0H3.508V11.644H0Z" transform="translate(11.967 42.001) rotate(180)" fill="#b37059"/>
        <path id="Trazado_1043905" data-name="Trazado 1043905" d="M25.642,26.927A.642.642,0,0,1,25,26.285V22.892a.642.642,0,0,1,1.284,0v3.393A.642.642,0,0,1,25.642,26.927Z" transform="translate(-16.471 -14.73)" fill="#995a4d"/>
        <g id="Grupo_1203755" data-name="Grupo 1203755" transform="translate(12.542 6.17)">
          <path id="Trazado_1043906" data-name="Trazado 1043906" d="M37.224,19.475V25.2a.642.642,0,1,1-1.284,0V18.58l.642.624Z" transform="translate(-35.94 -18.576)" fill="#995a4d"/>
          <path id="Trazado_1043907" data-name="Trazado 1043907" d="M89.844,18.57v6.621a.642.642,0,1,1-1.284,0V19.469L89.2,19.2Z" transform="translate(-69.257 -18.57)" fill="#995a4d"/>
        </g>
        <path id="Trazado_1043908" data-name="Trazado 1043908" d="M100.142,26.927a.642.642,0,0,1-.642-.642V22.892a.642.642,0,1,1,1.284,0v3.393A.642.642,0,0,1,100.142,26.927Z" transform="translate(-63.642 -14.73)" fill="#995a4d"/>
      </g>
      <g id="Grupo_1203757" data-name="Grupo 1203757" transform="translate(0 0)">
        <path id="Trazado_1043909" data-name="Trazado 1043909" d="M85.364,46.972h.766a.642.642,0,1,0,0-1.284h-.766a.642.642,0,1,0,0,1.284Z" transform="translate(-53.644 -28.928)"/>
        <path id="Trazado_1043910" data-name="Trazado 1043910" d="M55.064,83.739h5.743a.642.642,0,0,0,0-1.284H55.064a.642.642,0,0,0,0,1.284Z" transform="translate(-34.458 -52.208)"/>
        <path id="Trazado_1043911" data-name="Trazado 1043911" d="M53.2,94.52h7.107a.642.642,0,1,0,0-1.284H53.2a.642.642,0,1,0,0,1.284Z" transform="translate(-33.281 -59.034)"/>
        <path id="Trazado_1043912" data-name="Trazado 1043912" d="M51.8,104.018a.642.642,0,1,0,0,1.284h8.139a.642.642,0,1,0,0-1.284Z" transform="translate(-32.39 -65.861)"/>
        <path id="Trazado_1043913" data-name="Trazado 1043913" d="M50.2,114.8a.642.642,0,1,0,0,1.284h9.308a.642.642,0,1,0,0-1.284Z" transform="translate(-31.381 -72.688)"/>
        <path id="Trazado_1043914" data-name="Trazado 1043914" d="M25.642,26.927a.642.642,0,0,0,.642-.642V22.892a.642.642,0,0,0-1.284,0v3.393A.642.642,0,0,0,25.642,26.927Z" transform="translate(-15.829 -14.088)"/>
        <path id="Trazado_1043915" data-name="Trazado 1043915" d="M100.142,26.927a.642.642,0,0,0,.642-.642V22.892a.642.642,0,1,0-1.284,0v3.393A.642.642,0,0,0,100.142,26.927Z" transform="translate(-63.001 -14.088)"/>
        <path id="Trazado_1043916" data-name="Trazado 1043916" d="M46.312,0H42.871a3.58,3.58,0,0,0-3.265,2.113L38.558,4.449H35.537a.643.643,0,0,0-.449.183L32.767,6.9,30.11,8.025H28.338a3.213,3.213,0,0,0-3.21,3.21V16.76h-3.3V11.234a3.213,3.213,0,0,0-3.21-3.21H16.844L14.187,6.9,11.866,4.631a.642.642,0,0,0-.448-.183H8.394L7.347,2.112A3.581,3.581,0,0,0,4.084,0H.642A.642.642,0,0,0,0,.641v45.67a.642.642,0,0,0,.642.643H4.677a.642.642,0,1,0,0-1.284H1.284V43.286H14.832c-.11.565-.35,1.81-.461,2.384H8.437a.642.642,0,1,0,0,1.284H46.312a.642.642,0,0,0,.642-.642V.641A.642.642,0,0,0,46.312,0ZM38.494,42V31.641H42V42Zm-6.621,0-2-10.361H33.7V42ZM30.127,26.689H28.518V23.008h1.609Zm4.86,4.952H37.21V42H34.987Zm7.657-1.284H29.621l-.461-2.384H45.67V42H43.286V31A.642.642,0,0,0,42.644,30.357Zm-6.672-3.668H34.363V23.008h1.609Zm-9.56-15.455a1.928,1.928,0,0,1,1.926-1.926h1.9a.642.642,0,0,0,.251-.051l2-.848v5.026a.642.642,0,1,0,1.284,0V7.71L35.8,5.732h3.177a.643.643,0,0,0,.587-.379L40.78,2.638a2.3,2.3,0,0,1,2.091-1.355h2.8V26.689h-5.29V19.236A2.479,2.479,0,0,0,37.9,16.76H35.63a.642.642,0,0,0,0,1.284H37.9A1.193,1.193,0,0,1,39.1,19.236v7.453H37.256V22.366a.642.642,0,0,0-.642-.642H33.721a.642.642,0,0,0-.642.642v4.323H31.411V22.366a.642.642,0,0,0-.642-.642H27.876a.642.642,0,0,0-.642.642v4.323H25.565V22.366a.642.642,0,0,0-.642-.642H22.031a.642.642,0,0,0-.642.642v4.323H19.72V22.366a.642.642,0,0,0-.642-.642H16.185a.642.642,0,0,0-.642.642v4.323H13.875V22.366a.642.642,0,0,0-.642-.642H10.34a.642.642,0,0,0-.642.642v4.323H7.857V19.236A1.193,1.193,0,0,1,9.05,18.044H28.578a.642.642,0,0,0,0-1.284H26.412Zm-2.13,15.455H22.673V23.008h1.609Zm-5.845,0H16.827V23.008h1.609Zm-5.845,0H10.982V23.008h1.609ZM1.284,1.284h2.8A2.3,2.3,0,0,1,6.174,2.639L7.392,5.353a.642.642,0,0,0,.587.379h3.178L13.183,7.71v5.725a.642.642,0,1,0,1.284,0V8.41l2,.848a.642.642,0,0,0,.251.051h1.9a1.928,1.928,0,0,1,1.926,1.926V16.76H9.05a2.479,2.479,0,0,0-2.476,2.476v7.453H1.284Zm0,26.69h16.51l-.461,2.384H4.31A.642.642,0,0,0,3.668,31V42H1.284Zm3.668,3.668H8.459V42H4.952ZM9.743,42V31.641h2.224V42Zm3.508,0V31.641h3.833L15.081,42Zm2.428,3.668,1.169-6.042,1.645-8.506.609-3.148h8.75l3.423,17.7Zm29.991,0H32.583l-.461-2.384H45.67Z" transform="translate(0 0)"/>
      </g>
    </g>
  </g>
</svg>
