<svg xmlns="http://www.w3.org/2000/svg" xmlns:xlink="http://www.w3.org/1999/xlink" width="98" height="98" viewBox="0 0 98 98">
  <defs>
    <filter id="Trazado_904820" x="0" y="0" width="98" height="98" filterUnits="userSpaceOnUse">
      <feOffset dy="3" input="SourceAlpha"/>
      <feGaussianBlur stdDeviation="3" result="blur"/>
      <feFlood flood-opacity="0.161"/>
      <feComposite operator="in" in2="blur"/>
      <feComposite in="SourceGraphic"/>
    </filter>
  </defs>
  <g id="Grupo_1203781" data-name="Grupo 1203781" transform="translate(-191 -2662)">
    <g id="Grupo_1203717" data-name="Grupo 1203717" transform="translate(200 2668)">
      <g id="Grupo_1173585" data-name="Grupo 1173585" transform="translate(0 0)">
        <g id="Grupo_1173428" data-name="Grupo 1173428">
          <g id="Grupo_1171958" data-name="Grupo 1171958">
            <g id="Grupo_1167341" data-name="Grupo 1167341">
              <g id="Grupo_1166792" data-name="Grupo 1166792">
                <g transform="matrix(1, 0, 0, 1, -9, -6)" filter="url(#Trazado_904820)">
                  <g id="Trazado_904820-2" data-name="Trazado 904820" transform="translate(9 6)" fill="#e9f9fd">
                    <path d="M 40 78.50003051757812 C 34.80187606811523 78.50003051757812 29.76003265380859 77.48231506347656 25.01452255249023 75.47512054443359 C 20.43014526367188 73.53610229492188 16.31264495849609 70.75990295410156 12.77638912200928 67.2236328125 C 9.240133285522461 63.6873779296875 6.46393346786499 59.56987762451172 4.524899959564209 54.98550033569336 C 2.517722129821777 50.239990234375 1.5 45.19815444946289 1.5 40.00002288818359 C 1.5 34.8018913269043 2.517722129821777 29.76004600524902 4.524899959564209 25.01454544067383 C 6.46393346786499 20.43016815185547 9.240133285522461 16.31265640258789 12.77638912200928 12.77640056610107 C 16.31264495849609 9.240144729614258 20.43014526367188 6.463944911956787 25.01452255249023 4.524911880493164 C 29.76003265380859 2.517734050750732 34.8018684387207 1.500011801719666 40 1.500011801719666 C 45.1981315612793 1.500011801719666 50.23996734619141 2.517734050750732 54.98547744750977 4.524911880493164 C 59.56985473632812 6.463944911956787 63.68735504150391 9.240144729614258 67.22360992431641 12.77640056610107 C 70.75986480712891 16.31265640258789 73.53606414794922 20.43016815185547 75.47509765625 25.01454544067383 C 77.48227691650391 29.76004600524902 78.5 34.8018913269043 78.5 40.00002288818359 C 78.5 45.19815444946289 77.48227691650391 50.239990234375 75.47509765625 54.98550033569336 C 73.53606414794922 59.56987762451172 70.75986480712891 63.6873779296875 67.22360992431641 67.2236328125 C 63.68735504150391 70.75990295410156 59.56985473632812 73.53610229492188 54.98547744750977 75.47512054443359 C 50.23996734619141 77.48231506347656 45.19812393188477 78.50003051757812 40 78.50003051757812 Z" stroke="none"/>
                    <path d="M 40 3.000007629394531 C 35.00370788574219 3.000007629394531 30.15846633911133 3.977859497070312 25.59885406494141 5.906425476074219 C 21.19327926635742 7.769821166992188 17.23603820800781 10.43807983398438 13.83705139160156 13.83706665039062 C 10.43806457519531 17.23604965209961 7.769813537597656 21.19329071044922 5.906410217285156 25.59886169433594 C 3.977851867675781 30.15847778320312 3 35.00373077392578 3 40.00002288818359 C 3 44.99631500244141 3.977851867675781 49.84155654907227 5.906410217285156 54.40116882324219 C 7.769813537597656 58.80675506591797 10.43806457519531 62.76399612426758 13.83705139160156 66.16297912597656 C 17.23603820800781 69.56196594238281 21.19327926635742 72.230224609375 25.59885406494141 74.09362030029297 C 30.15846633911133 76.02218627929688 35.00370788574219 77.00003814697266 40 77.00003814697266 C 44.99629211425781 77.00003814697266 49.84153366088867 76.02218627929688 54.40114593505859 74.09362030029297 C 58.80672073364258 72.230224609375 62.76396179199219 69.56196594238281 66.16294860839844 66.16297912597656 C 69.56193542480469 62.76399612426758 72.23018646240234 58.80675506591797 74.09358978271484 54.40116882324219 C 76.02214813232422 49.84155654907227 77 44.99631500244141 77 40.00002288818359 C 77 35.00373077392578 76.02214813232422 30.15847778320312 74.09358978271484 25.59886169433594 C 72.23018646240234 21.19329071044922 69.56193542480469 17.23604965209961 66.16294860839844 13.83706665039062 C 62.76396179199219 10.43807983398438 58.80672073364258 7.769821166992188 54.40114593505859 5.906425476074219 C 49.84153366088867 3.977859497070312 44.99629211425781 3.000007629394531 40 3.000007629394531 M 40 7.62939453125e-06 C 62.09138488769531 7.62939453125e-06 80 17.90862274169922 80 40.00002288818359 C 80 62.09140777587891 62.09138488769531 80.00003814697266 40 80.00003814697266 C 17.90861511230469 80.00003814697266 0 62.09140777587891 0 40.00002288818359 C 0 17.90862274169922 17.90861511230469 7.62939453125e-06 40 7.62939453125e-06 Z" stroke="none" fill="#1d7083"/>
                  </g>
                </g>
              </g>
            </g>
          </g>
        </g>
      </g>
    </g>
    <g id="celtic-cross_4082589" transform="translate(188.473 2680.096)">
      <g id="Grupo_1203779" data-name="Grupo 1203779" transform="translate(26.374 0.847)">
        <path id="Trazado_1043961" data-name="Trazado 1043961" d="M48.975,116.6,34.789,115.19a1.6,1.6,0,0,0-1.762,1.6v10.091a1.6,1.6,0,0,0,1.762,1.6l14.135-1.41,9.346-.565-.144-9.028Z" transform="translate(-33.027 -103.024)" fill="#f8e798"/>
        <path id="Trazado_1043962" data-name="Trazado 1043962" d="M202.287,176.993l2.707,26.039a1.6,1.6,0,0,1-1.6,1.762h-11.81a1.6,1.6,0,0,1-1.6-1.762l2.6-26.039h0l1.009-10.229s8.045-.259,7.786,0Z" transform="translate(-172.264 -148.681)" fill="#f8e798"/>
        <g id="Grupo_1203775" data-name="Grupo 1203775" transform="translate(18.58 0)">
          <path id="Trazado_1043963" data-name="Trazado 1043963" d="M210.064,17.5l.822-8.236a1.6,1.6,0,0,0-1.6-1.762H199.2a1.6,1.6,0,0,0-1.6,1.762l.815,8.169,1.15,9.309h9.221Z" transform="translate(-197.596 -7.5)" fill="#f8e798"/>
        </g>
        <path id="Trazado_1043964" data-name="Trazado 1043964" d="M200.605,12.741l-.254-2.544a1.6,1.6,0,0,1,1.6-1.762h8.8A1.6,1.6,0,0,0,209.29,7.5H199.2a1.6,1.6,0,0,0-1.6,1.762l.815,8.169,1.15,9.309h9.221l1.274-9.242.247-2.479a12.853,12.853,0,0,0-8.463-1.333,1.062,1.062,0,0,1-1.243-.944Z" transform="translate(-179.015 -7.499)" fill="#f8e283"/>
        <g id="Grupo_1203777" data-name="Grupo 1203777" transform="translate(22.18 3.387)">
          <g id="Grupo_1203776" data-name="Grupo 1203776">
            <path id="Trazado_1043965" data-name="Trazado 1043965" d="M235.088,42.665l.488-4.895a.246.246,0,0,0-.245-.27h-5.607a.246.246,0,0,0-.245.27l.486,4.869.653,6.827h3.636Z" transform="translate(-229.479 -37.5)" fill="#f5dd6f"/>
          </g>
        </g>
        <path id="Trazado_1043966" data-name="Trazado 1043966" d="M204.992,203.033l-.025-.241h-10.61a1.6,1.6,0,0,1-1.6-1.762l1.882-18.868a1.968,1.968,0,0,1,2.078-1.762q.355.02.715.02a12.81,12.81,0,0,0,5.094-1.051l-.247-2.375-.9-10.229c.161-.16-2.878-.122-5.206-.069l-.149,0h-.013c-1.347.031-2.418.066-2.418.066l-1.009,10.229h0l-2.6,26.039a1.6,1.6,0,0,0,1.6,1.762H203.4A1.6,1.6,0,0,0,204.992,203.033Z" transform="translate(-172.263 -148.681)" fill="#f8e283"/>
        <path id="Trazado_1043967" data-name="Trazado 1043967" d="M227.538,217.811l2.25,22.556a.392.392,0,0,1-.39.431h-7a.392.392,0,0,1-.39-.431l2.25-22.556.483-6.659,2.163-.1Z" transform="translate(-200.668 -188.071)" fill="#f5dd6f"/>
        <path id="Trazado_1043968" data-name="Trazado 1043968" d="M239.981,220.044a1.988,1.988,0,0,1,1.094-.255q.355.02.715.02a12.915,12.915,0,0,0,1.881-.138l-.186-1.861-.635-6.758-2.163.1-.483,6.659Z" transform="translate(-216.615 -188.071)" fill="#f5dd6f"/>
        <path id="Trazado_1043969" data-name="Trazado 1043969" d="M255.284,127.061l14.135,1.41a1.6,1.6,0,0,0,1.762-1.6V116.785a1.6,1.6,0,0,0-1.762-1.6l-14.185,1.415-10.5,1.3.412,8.649Z" transform="translate(-220.832 -103.024)" fill="#f8e798"/>
        <path id="Trazado_1043970" data-name="Trazado 1043970" d="M244.734,127.194l.412,8.649,10.138.509,2.408.24a12.868,12.868,0,0,0-.042-10.937l-2.416.241Z" transform="translate(-220.832 -112.314)" fill="#f8e283"/>
        <path id="Trazado_1043971" data-name="Trazado 1043971" d="M294.536,152.058l11.061,1.1a.246.246,0,0,0,.27-.245v-5.607a.246.246,0,0,0-.27-.245l-11.078,1.105-6.866.751v2.637Z" transform="translate(-258.904 -131.308)" fill="#f5dd6f"/>
        <path id="Trazado_1043972" data-name="Trazado 1043972" d="M58.128,126.757l-9.153-.863-2.416-.241a12.807,12.807,0,0,0-1.241,5.514q0,.645.063,1.273a1.634,1.634,0,0,1-1.471,1.778s-10.825,1.077-10.883,1.076v.87a1.6,1.6,0,0,0,1.762,1.6l14.135-1.41,9.346-.565Z" transform="translate(-33.028 -112.313)" fill="#f8e283"/>
        <g id="Grupo_1203778" data-name="Grupo 1203778" transform="translate(3.387 5.97)">
          <path id="Trazado_1043973" data-name="Trazado 1043973" d="M74.376,148.172,63.3,147.067a.246.246,0,0,0-.27.245v5.607a.246.246,0,0,0,.27.245l11.061-1.1,6.618-.563v-2.85Z" transform="translate(-63.027 -137.278)" fill="#f5dd6f"/>
          <path id="Trazado_1043974" data-name="Trazado 1043974" d="M150.156,155.574l-6.6-.475-2.254-.225a12.9,12.9,0,0,0-.191,2.215q0,.645.063,1.273a1.6,1.6,0,0,1-.162.876l2.526-.252,6.618-.563v-2.849Z" transform="translate(-132.207 -144.206)" fill="#f5dd6f"/>
          <path id="Trazado_1043975" data-name="Trazado 1043975" d="M234.463,60.375a12.807,12.807,0,0,0-2.342.216,1.035,1.035,0,0,1-.4,0l.234,2.346.653,6.827h3.636l.832-6.8.226-2.267A12.876,12.876,0,0,0,234.463,60.375Z" transform="translate(-212.675 -60.375)" fill="#f5dd6f"/>
          <path id="Trazado_1043976" data-name="Trazado 1043976" d="M296.789,159.211a12.928,12.928,0,0,0-.016-4.336l-2.254.225-6.866.751v2.637l6.884.5Z" transform="translate(-262.292 -144.206)" fill="#f5dd6f"/>
        </g>
        <circle id="Elipse_11668" data-name="Elipse 11668" cx="10.626" cy="10.626" r="10.626" transform="translate(14.549 8.228)" fill="#fbf3e6"/>
        <path id="Trazado_1043977" data-name="Trazado 1043977" d="M165.834,91a10.632,10.632,0,0,1,8.655-10.443,10.626,10.626,0,1,0,0,20.887A10.631,10.631,0,0,1,165.834,91Z" transform="translate(-147.338 -72.147)" fill="#fcefd8"/>
      </g>
      <g id="Grupo_1203780" data-name="Grupo 1203780" transform="translate(25.527 0)">
        <path id="Trazado_1043978" data-name="Trazado 1043978" d="M200.282,128.388a3.065,3.065,0,0,0,5.232,2.167l1.087-1.087,1.087,1.087a3.065,3.065,0,1,0,4.334-4.334l-1.087-1.087,1.005-1.005a3.065,3.065,0,0,0-4.334-4.334L206.6,120.8l-1.005-1.005a3.065,3.065,0,1,0-4.334,4.334h0l1.005,1.005-1.087,1.087a3.046,3.046,0,0,0-.9,2.167Zm10.543-.97a1.371,1.371,0,1,1-1.939,1.939l-1.087-1.087,1.939-1.939Zm-4.224-.345-1.939-1.939,1.939-1.939,1.939,1.939Zm2.2-6.081a1.371,1.371,0,1,1,1.939,1.939l-1.005,1.005L207.8,122Zm-6.345,1.939a1.371,1.371,0,1,1,1.939-1.939L205.4,122l-1.939,1.939Zm-.082,4.487,1.087-1.087,1.939,1.939-1.087,1.087a1.371,1.371,0,1,1-1.939-1.939Z" transform="translate(-180.552 -105.474)"/>
        <path id="Trazado_1043979" data-name="Trazado 1043979" d="M76.765,12.791a2.455,2.455,0,0,0-1.887-.622l-2.6.26a.847.847,0,0,0,.168,1.685l2.6-.26a.756.756,0,0,1,.831.753V24.7a.756.756,0,0,1-.831.753l-12.927-1.29a11.39,11.39,0,0,0,.553-1.647l10.311,1.029c.036,0,.072.005.107.005a1.093,1.093,0,0,0,1.093-1.093V16.85a1.093,1.093,0,0,0-1.2-1.087L62.648,16.794a11.372,11.372,0,0,0-.569-1.645l6.755-.674a.847.847,0,1,0-.168-1.685l-7.447.743a11.566,11.566,0,0,0-2.905-3.092l.773-7.748A2.45,2.45,0,0,0,56.649,0H46.557A2.45,2.45,0,0,0,44.12,2.693l.765,7.669c-.116.083-.231.168-.345.256a.847.847,0,1,0,1.036,1.34,9.685,9.685,0,0,1,5.973-2.037,9.777,9.777,0,1,1-8.224,4.485.847.847,0,0,0-1.423-.918l-.027.044L28.22,12.17a2.45,2.45,0,0,0-2.693,2.438V24.7a2.449,2.449,0,0,0,2.451,2.45c.08,0,.161,0,.242-.012l13.6-1.357a11.561,11.561,0,0,0,3.98,3.849L43.26,55.114A2.45,2.45,0,0,0,45.7,57.807h11.81a2.45,2.45,0,0,0,2.438-2.693L57.4,29.567a11.561,11.561,0,0,0,3.878-3.788l13.6,1.357q.121.012.242.012A2.45,2.45,0,0,0,77.57,24.7V14.608a2.455,2.455,0,0,0-.806-1.816ZM45.8,2.525a.756.756,0,0,1,.753-.831H56.649a.756.756,0,0,1,.753.831L56.71,9.456a11.4,11.4,0,0,0-1.635-.673l.419-4.2a1.093,1.093,0,0,0-1.087-1.2H48.8a1.093,1.093,0,0,0-1.087,1.2l.415,4.158A11.266,11.266,0,0,0,46.49,9.4Zm3.986,5.837-.328-3.282h4.279l-.329,3.3a11.5,11.5,0,0,0-1.865-.152A11.642,11.642,0,0,0,49.791,8.362Zm-9.659,12.48-9.525.95V17.514l9.534.951a11.561,11.561,0,0,0-.066,1.236Q40.076,20.278,40.132,20.842Zm-12.08,4.609a.756.756,0,0,1-.831-.753V14.608a.756.756,0,0,1,.831-.753l12.965,1.294a11.4,11.4,0,0,0-.568,1.645L30.115,15.763a1.093,1.093,0,0,0-1.2,1.087v5.607a1.092,1.092,0,0,0,1.093,1.092c.036,0,.072,0,.107-.005l10.31-1.029a11.382,11.382,0,0,0,.553,1.647ZM58.26,55.282a.756.756,0,0,1-.753.831H45.7a.756.756,0,0,1-.753-.831l2.482-24.875a11.382,11.382,0,0,0,1.652.5L47.81,43.632a.847.847,0,0,0,.758.927q.043,0,.085,0A.847.847,0,0,0,49.5,43.8l1.263-12.654c.261.018.525.028.791.028q.454,0,.9-.035L54.6,52.727h-6l.532-5.336a.847.847,0,0,0-1.685-.168l-.582,5.835A1.239,1.239,0,0,0,48.1,54.42h7a1.239,1.239,0,0,0,1.233-1.362L54.124,30.882a11.368,11.368,0,0,0,1.651-.515ZM72.49,17.514v4.279l-9.525-.95q.056-.563.057-1.142a11.536,11.536,0,0,0-.067-1.235Z" transform="translate(-25.527 0)"/>
      </g>
    </g>
  </g>
</svg>
