<svg xmlns="http://www.w3.org/2000/svg" xmlns:xlink="http://www.w3.org/1999/xlink" width="98" height="98" viewBox="0 0 98 98">
  <defs>
    <filter id="Trazado_904820" x="0" y="0" width="98" height="98" filterUnits="userSpaceOnUse">
      <feOffset dy="3" input="SourceAlpha"/>
      <feGaussianBlur stdDeviation="3" result="blur"/>
      <feFlood flood-opacity="0.161"/>
      <feComposite operator="in" in2="blur"/>
      <feComposite in="SourceGraphic"/>
    </filter>
    <clipPath id="clip-path">
      <path id="path7752" d="M0-682.665H53.632v53.632H0Z" transform="translate(0 682.665)"/>
    </clipPath>
  </defs>
  <g id="Grupo_1203784" data-name="Grupo 1203784" transform="translate(-1136 -2662)">
    <g id="Grupo_1203720" data-name="Grupo 1203720" transform="translate(1145 2668)">
      <g id="Grupo_1173585" data-name="Grupo 1173585" transform="translate(0 0)">
        <g id="Grupo_1173428" data-name="Grupo 1173428">
          <g id="Grupo_1171958" data-name="Grupo 1171958">
            <g id="Grupo_1167341" data-name="Grupo 1167341">
              <g id="Grupo_1166792" data-name="Grupo 1166792">
                <g transform="matrix(1, 0, 0, 1, -9, -6)" filter="url(#Trazado_904820)">
                  <g id="Trazado_904820-2" data-name="Trazado 904820" transform="translate(9 6)" fill="#e9f9fd">
                    <path d="M 40 78.50003051757812 C 34.80187606811523 78.50003051757812 29.76003265380859 77.48231506347656 25.01452255249023 75.47512054443359 C 20.43014526367188 73.53610229492188 16.31264495849609 70.75990295410156 12.77638912200928 67.2236328125 C 9.240133285522461 63.6873779296875 6.46393346786499 59.56987762451172 4.524899959564209 54.98550033569336 C 2.517722129821777 50.239990234375 1.5 45.19815444946289 1.5 40.00002288818359 C 1.5 34.8018913269043 2.517722129821777 29.76004600524902 4.524899959564209 25.01454544067383 C 6.46393346786499 20.43016815185547 9.240133285522461 16.31265640258789 12.77638912200928 12.77640056610107 C 16.31264495849609 9.240144729614258 20.43014526367188 6.463944911956787 25.01452255249023 4.524911880493164 C 29.76003265380859 2.517734050750732 34.8018684387207 1.500011801719666 40 1.500011801719666 C 45.1981315612793 1.500011801719666 50.23996734619141 2.517734050750732 54.98547744750977 4.524911880493164 C 59.56985473632812 6.463944911956787 63.68735504150391 9.240144729614258 67.22360992431641 12.77640056610107 C 70.75986480712891 16.31265640258789 73.53606414794922 20.43016815185547 75.47509765625 25.01454544067383 C 77.48227691650391 29.76004600524902 78.5 34.8018913269043 78.5 40.00002288818359 C 78.5 45.19815444946289 77.48227691650391 50.239990234375 75.47509765625 54.98550033569336 C 73.53606414794922 59.56987762451172 70.75986480712891 63.6873779296875 67.22360992431641 67.2236328125 C 63.68735504150391 70.75990295410156 59.56985473632812 73.53610229492188 54.98547744750977 75.47512054443359 C 50.23996734619141 77.48231506347656 45.19812393188477 78.50003051757812 40 78.50003051757812 Z" stroke="none"/>
                    <path d="M 40 3.000007629394531 C 35.00370788574219 3.000007629394531 30.15846633911133 3.977859497070312 25.59885406494141 5.906425476074219 C 21.19327926635742 7.769821166992188 17.23603820800781 10.43807983398438 13.83705139160156 13.83706665039062 C 10.43806457519531 17.23604965209961 7.769813537597656 21.19329071044922 5.906410217285156 25.59886169433594 C 3.977851867675781 30.15847778320312 3 35.00373077392578 3 40.00002288818359 C 3 44.99631500244141 3.977851867675781 49.84155654907227 5.906410217285156 54.40116882324219 C 7.769813537597656 58.80675506591797 10.43806457519531 62.76399612426758 13.83705139160156 66.16297912597656 C 17.23603820800781 69.56196594238281 21.19327926635742 72.230224609375 25.59885406494141 74.09362030029297 C 30.15846633911133 76.02218627929688 35.00370788574219 77.00003814697266 40 77.00003814697266 C 44.99629211425781 77.00003814697266 49.84153366088867 76.02218627929688 54.40114593505859 74.09362030029297 C 58.80672073364258 72.230224609375 62.76396179199219 69.56196594238281 66.16294860839844 66.16297912597656 C 69.56193542480469 62.76399612426758 72.23018646240234 58.80675506591797 74.09358978271484 54.40116882324219 C 76.02214813232422 49.84155654907227 77 44.99631500244141 77 40.00002288818359 C 77 35.00373077392578 76.02214813232422 30.15847778320312 74.09358978271484 25.59886169433594 C 72.23018646240234 21.19329071044922 69.56193542480469 17.23604965209961 66.16294860839844 13.83706665039062 C 62.76396179199219 10.43807983398438 58.80672073364258 7.769821166992188 54.40114593505859 5.906425476074219 C 49.84153366088867 3.977859497070312 44.99629211425781 3.000007629394531 40 3.000007629394531 M 40 7.62939453125e-06 C 62.09138488769531 7.62939453125e-06 80 17.90862274169922 80 40.00002288818359 C 80 62.09140777587891 62.09138488769531 80.00003814697266 40 80.00003814697266 C 17.90861511230469 80.00003814697266 0 62.09140777587891 0 40.00002288818359 C 0 17.90862274169922 17.90861511230469 7.62939453125e-06 40 7.62939453125e-06 Z" stroke="none" fill="#1d7083"/>
                  </g>
                </g>
              </g>
            </g>
          </g>
        </g>
      </g>
    </g>
    <g id="g7746" transform="translate(1158.184 3362.849)">
      <g id="g7748" transform="translate(0 -682.665)">
        <g id="g7750" transform="translate(0 0)" clip-path="url(#clip-path)">
          <g id="g7756" transform="translate(4.796 31.567)">
            <path id="path7758" d="M-42.509-36.663a5.735,5.735,0,0,0-3.606,5.317l-.018,12.836h11.5V-39.789l-7.874,3.126" transform="translate(46.133 39.789)" fill="#dd636e"/>
          </g>
          <g id="g7760" transform="translate(21.194 33.242)">
            <path id="path7762" d="M-65.943-59.5l-5.622-5.073v19.6h11.245v-19.6Z" transform="translate(71.565 64.571)" fill="#fff"/>
          </g>
          <path id="path7764" d="M269.767-34.572h11.245v-2.095H269.767Z" transform="translate(-248.574 87.418)" fill="#f1f1f4"/>
          <g id="g7766" transform="translate(37.337 31.567)">
            <path id="path7768" d="M-134.639-99.02a5.735,5.735,0,0,0-3.606-5.317l-7.874-3.126v21.279h11.5Z" transform="translate(146.118 107.462)" fill="#dd636e"/>
          </g>
          <g id="g7770" transform="translate(37.337 33.743)">
            <path id="path7772" d="M-134.64-73.5a5.736,5.736,0,0,0-3.606-5.317l-2.392-.95a5.735,5.735,0,0,1,1.808,4.171l.012,8.339a4.491,4.491,0,0,1-4.491,4.5h-2.811v2.095h11.5Z" transform="translate(146.12 79.764)" fill="#da4a54"/>
          </g>
          <g id="g7774" transform="translate(16.294 30.177)">
            <path id="path7776" d="M-17.61,0l-.806.3a1.061,1.061,0,0,0-.7,1V22.67h4.9V3.066Z" transform="translate(19.112)" fill="#f4e2c1"/>
          </g>
          <g id="g7778" transform="translate(32.438 30.177)">
            <path id="path7780" d="M-49.313-3.476l-.807-.3-3.4,3.066V18.9h4.9V-2.48a1.061,1.061,0,0,0-.7-1" transform="translate(53.517 3.772)" fill="#f4e2c1"/>
          </g>
          <g id="g7782" transform="translate(25.255 36.907)">
            <path id="path7784" d="M-18.307-16.518l-1.561-1.408v15.94h3.122v-15.94Z" transform="translate(19.868 17.927)" fill="#f9f48e"/>
          </g>
          <g id="g7786" transform="translate(4.796 50.751)">
            <path id="path7788" d="M0-24.572H11.5v-2.095H0Z" transform="translate(0 26.667)" fill="#da4a54"/>
          </g>
          <path id="path7790" d="M207.406-34.572h4.9v-2.095h-4.9Z" transform="translate(-191.112 87.418)" fill="#f4ddb1"/>
          <path id="path7792" d="M412.9-34.572h4.9v-2.095h-4.9Z" transform="translate(-380.459 87.418)" fill="#f4ddb1"/>
          <path id="path7794" d="M321.465-34.572h3.122v-2.095h-3.122Z" transform="translate(-296.21 87.418)" fill="#f6e738"/>
          <g id="g7796" transform="translate(15.219 10.414)">
            <path id="path7798" d="M-258.068-33.827H-278.88a1.191,1.191,0,0,1-1.191-1.191v-.5a1.191,1.191,0,0,1,1.191-1.191h20.812a1.191,1.191,0,0,1,1.191,1.191v.5a1.191,1.191,0,0,1-1.191,1.191" transform="translate(280.071 36.711)" fill="#f9f48e"/>
          </g>
          <g id="g7800" transform="translate(16.41 0.786)">
            <path id="path7802" d="M-198.309-42.635a1.668,1.668,0,0,1,.449,1.14,1.673,1.673,0,0,1-1.673,1.673,1.673,1.673,0,0,1-1.673-1.673,1.667,1.667,0,0,1,.433-1.123l-4.037-3.653-4.037,3.653a1.667,1.667,0,0,1,.433,1.123,1.673,1.673,0,0,1-1.673,1.673,1.673,1.673,0,0,1-1.673-1.673,1.668,1.668,0,0,1,.449-1.14l-3.9-3.635v9.628H-194.4v-9.628Z" transform="translate(215.217 46.271)" fill="#f9f48e"/>
          </g>
          <g id="g7804" transform="translate(16.41 0.786)">
            <path id="path7806" d="M-198.309-42.635a1.668,1.668,0,0,1,.449,1.14,1.671,1.671,0,0,1-.735,1.385v.061a1.312,1.312,0,0,1-1.312,1.312h-15.31v2.095h20.812v-9.628Z" transform="translate(215.217 46.271)" fill="#f6e738"/>
          </g>
          <g id="g7808" transform="translate(35.867 16.189)">
            <path id="path7810" d="M-3.505-71.922h-.3l.452-6.132H-1.73A2.066,2.066,0,0,1,.336-75.989v.226a3.841,3.841,0,0,1-3.841,3.841" transform="translate(3.804 78.054)" fill="#f1d0a5"/>
          </g>
          <g id="g7812" transform="translate(13.625 16.189)">
            <path id="path7814" d="M-45.046-71.922h.3l-.452-6.132h-1.622a2.065,2.065,0,0,0-2.066,2.066v.226a3.841,3.841,0,0,0,3.841,3.841" transform="translate(48.887 78.054)" fill="#f1d0a5"/>
          </g>
          <g id="g7816" transform="translate(15.988 13.298)">
            <path id="path7818" d="M-233.157-105.827l.577-7.829a9.769,9.769,0,0,0,.015-1.194h-2.8a7.029,7.029,0,0,1,0,.988l-.512,6.952a1.679,1.679,0,0,1-1.9,1.54h0a32.178,32.178,0,0,0-4.389-.3h-.066a32.177,32.177,0,0,0-4.389.3,1.679,1.679,0,0,1-1.9-1.54l-.512-6.952a7.03,7.03,0,0,1,0-.988h-2.8a9.745,9.745,0,0,0,.015,1.194l.577,7.829L-252.936-101a1.807,1.807,0,0,0,.5,1.934l10.232,9.231,10.232-9.231a1.807,1.807,0,0,0,.5-1.934Z" transform="translate(253.036 114.85)" fill="#fbf6ec"/>
          </g>
          <g id="g7820" transform="translate(23.56 13.298)">
            <path id="path7822" d="M-164.014-162.46l-1.677-4.829.577-7.829a9.789,9.789,0,0,0,.015-1.194h-2.8a7.042,7.042,0,0,1,0,.988l-.512,6.952a1.674,1.674,0,0,1-.685,1.233l.56,1.614a3.354,3.354,0,0,1-.922,3.59l-8.536,7.7,3.256,2.938,10.232-9.231a1.807,1.807,0,0,0,.5-1.934" transform="translate(177.998 176.312)" fill="#f9efda"/>
          </g>
          <g id="g7824" transform="translate(19.959 13.298)">
            <path id="path7826" d="M-.225-11.593.287-4.641a1.679,1.679,0,0,0,1.9,1.54A32.174,32.174,0,0,1,6.58-3.4h.066a32.178,32.178,0,0,1,4.389.3h0a1.679,1.679,0,0,0,1.9-1.54l.512-6.952a7.029,7.029,0,0,0,0-.988H-.228a7.03,7.03,0,0,0,0,.988" transform="translate(0.244 12.581)" fill="#f1d0a5"/>
          </g>
          <g id="g7828" transform="translate(20.448 13.298)">
            <path id="path7830" d="M-154.929,0h-2.18l-.43,5.845a1.679,1.679,0,0,1-1.9,1.54h0a32.178,32.178,0,0,0-4.389-.3h-.066a32.153,32.153,0,0,0-4.24.281l.042.575a1.679,1.679,0,0,0,1.9,1.54,32.178,32.178,0,0,1,4.389-.3h.066a32.178,32.178,0,0,1,4.389.3h0a1.679,1.679,0,0,0,1.9-1.54l.512-6.952a7.045,7.045,0,0,0,0-.988" transform="translate(168.138)" fill="#f1b986"/>
          </g>
          <g id="g7832" transform="translate(12.104 44.798)">
            <path id="path7834" d="M0,0V8.048" fill="none" stroke="#000" stroke-linecap="round" stroke-linejoin="round" stroke-miterlimit="10" stroke-width="1"/>
          </g>
          <g id="g7836" transform="translate(41.527 44.798)">
            <path id="path7838" d="M0,0V8.048" fill="none" stroke="#000" stroke-linecap="round" stroke-linejoin="round" stroke-miterlimit="10" stroke-width="1"/>
          </g>
          <g id="g7840" transform="translate(16.294 30.177)">
            <path id="path7842" d="M-17.61,0l-.806.3a1.061,1.061,0,0,0-.7,1V22.67h4.9V9.71" transform="translate(19.112)" fill="none" stroke="#000" stroke-linecap="round" stroke-linejoin="round" stroke-miterlimit="10" stroke-width="1"/>
          </g>
          <g id="g7844" transform="translate(21.194 33.242)">
            <path id="path7846" d="M0-34.926V-37.9" transform="translate(0 37.904)" fill="none" stroke="#000" stroke-linecap="round" stroke-linejoin="round" stroke-miterlimit="10" stroke-width="1"/>
          </g>
          <g id="g7848" transform="translate(32.438 30.177)">
            <path id="path7850" d="M0-35.957v19.6H4.9V-37.73a1.061,1.061,0,0,0-.695-1l-.807-.3" transform="translate(0 39.023)" fill="none" stroke="#000" stroke-linecap="round" stroke-linejoin="round" stroke-miterlimit="10" stroke-width="1"/>
          </g>
          <g id="g7852" transform="translate(15.219 10.414)">
            <path id="path7854" d="M-228.729,0h2.5a1.191,1.191,0,0,1,1.191,1.191v.5a1.191,1.191,0,0,1-1.191,1.191h-20.812a1.191,1.191,0,0,1-1.191-1.191v-.5A1.191,1.191,0,0,1-247.039,0h14.644" transform="translate(248.23)" fill="none" stroke="#000" stroke-linecap="round" stroke-linejoin="round" stroke-miterlimit="10" stroke-width="1"/>
          </g>
          <g id="g7856" transform="translate(16.41 0.786)">
            <path id="path7858" d="M-244.1-112.927v-9.628l-3.9,3.635a1.667,1.667,0,0,1,.449,1.14,1.673,1.673,0,0,1-1.673,1.673,1.673,1.673,0,0,1-1.673-1.673,1.668,1.668,0,0,1,.433-1.123l-4.037-3.653-4.037,3.653a1.667,1.667,0,0,1,.432,1.123,1.673,1.673,0,0,1-1.673,1.673,1.673,1.673,0,0,1-1.673-1.673,1.668,1.668,0,0,1,.449-1.14l-3.9-3.635v9.628" transform="translate(264.909 122.556)" fill="none" stroke="#000" stroke-linecap="round" stroke-linejoin="round" stroke-miterlimit="10" stroke-width="1"/>
          </g>
          <g id="g7860" transform="translate(21.194 16.886)">
            <path id="path7862" d="M0,0H4.214" fill="none" stroke="#000" stroke-linecap="round" stroke-linejoin="round" stroke-miterlimit="10" stroke-width="1"/>
          </g>
          <g id="g7864" transform="translate(26.816 16.886)">
            <path id="path7866" d="M-65.942,0h-2.806a1.408,1.408,0,0,0-1.408,1.408V4.183a1.408,1.408,0,0,1-1.408,1.408" transform="translate(71.564)" fill="none" stroke="#000" stroke-linecap="round" stroke-linejoin="round" stroke-miterlimit="10" stroke-width="1"/>
          </g>
          <g id="g7868" transform="translate(23.596 25.275)">
            <path id="path7870" d="M0-2.568a23.479,23.479,0,0,1,3.194-.219h.053a23.484,23.484,0,0,1,3.194.219" transform="translate(0 2.787)" fill="none" stroke="#000" stroke-linecap="round" stroke-linejoin="round" stroke-miterlimit="10" stroke-width="1"/>
          </g>
          <g id="g7872" transform="translate(15.988 13.298)">
            <path id="path7874" d="M-238.183-120.3l-.429-1.234.577-7.829a9.79,9.79,0,0,0,.015-1.194h-2.8a7.045,7.045,0,0,1,0,.988l-.512,6.952a1.679,1.679,0,0,1-1.9,1.54h0a32.177,32.177,0,0,0-4.389-.3h-.066a32.176,32.176,0,0,0-4.389.3,1.679,1.679,0,0,1-1.9-1.54l-.512-6.952a7.017,7.017,0,0,1,0-.988h-2.8a9.79,9.79,0,0,0,.015,1.194l.577,7.829-1.677,4.829a1.807,1.807,0,0,0,.5,1.934l10.232,9.231,10.232-9.231a1.807,1.807,0,0,0,.5-1.934l-.047-.137" transform="translate(258.49 130.557)" fill="none" stroke="#000" stroke-linecap="round" stroke-linejoin="round" stroke-miterlimit="10" stroke-width="1"/>
          </g>
          <g id="g7876" transform="translate(25.989 27.929)">
            <path id="path7878" d="M0,0H1.653" fill="none" stroke="#000" stroke-linecap="round" stroke-linejoin="round" stroke-miterlimit="10" stroke-width="1"/>
          </g>
          <g id="g7880" transform="translate(23.595 30.177)">
            <path id="path7882" d="M-75.543,0l-3.22,8.138L-81.984,0" transform="translate(81.984)" fill="none" stroke="#000" stroke-linecap="round" stroke-linejoin="round" stroke-miterlimit="10" stroke-width="1"/>
          </g>
          <g id="g7884" transform="translate(35.867 16.189)">
            <path id="path7886" d="M-5.3,0h1.622A2.066,2.066,0,0,1-1.61,2.066v.226A3.841,3.841,0,0,1-5.45,6.132h-.3" transform="translate(5.749)" fill="none" stroke="#000" stroke-linecap="round" stroke-linejoin="round" stroke-miterlimit="10" stroke-width="1"/>
          </g>
          <g id="g7888" transform="translate(13.625 16.189)">
            <path id="path7890" d="M-43.255,0h-1.622a2.065,2.065,0,0,0-2.066,2.066v.226A3.841,3.841,0,0,0-43.1,6.132h.3" transform="translate(46.943)" fill="none" stroke="#000" stroke-linecap="round" stroke-linejoin="round" stroke-miterlimit="10" stroke-width="1"/>
          </g>
          <g id="g7892" transform="translate(4.796 31.567)">
            <path id="path7894" d="M-134.855,0l-7.873,3.126a5.735,5.735,0,0,0-3.606,5.317l-.018,12.836h11.5" transform="translate(146.353)" fill="none" stroke="#000" stroke-linecap="round" stroke-linejoin="round" stroke-miterlimit="10" stroke-width="1"/>
          </g>
          <g id="g7896" transform="translate(37.337 31.567)">
            <path id="path7898" d="M0-249.575H11.5l-.018-12.836a5.735,5.735,0,0,0-3.606-5.317L0-270.854" transform="translate(0 270.854)" fill="none" stroke="#000" stroke-linecap="round" stroke-linejoin="round" stroke-miterlimit="10" stroke-width="1"/>
          </g>
          <g id="g7900" transform="translate(21.194 52.846)">
            <path id="path7902" d="M0,0H11.245" fill="none" stroke="#000" stroke-linecap="round" stroke-linejoin="round" stroke-miterlimit="10" stroke-width="1"/>
          </g>
          <g id="g7904" transform="translate(28.377 36.907)">
            <path id="path7906" d="M0-186.951v-15.94" transform="translate(0 202.89)" fill="none" stroke="#000" stroke-linecap="round" stroke-linejoin="round" stroke-miterlimit="10" stroke-width="1"/>
          </g>
          <g id="g7908" transform="translate(25.255 36.907)">
            <path id="path7910" d="M0,0V15.94" fill="none" stroke="#000" stroke-linecap="round" stroke-linejoin="round" stroke-miterlimit="10" stroke-width="1"/>
          </g>
        </g>
      </g>
    </g>
  </g>
</svg>
