<svg xmlns="http://www.w3.org/2000/svg" xmlns:xlink="http://www.w3.org/1999/xlink" width="108" height="108" viewBox="0 0 108 108">
  <defs>
    <filter id="Trazado_904820" x="0" y="0" width="108" height="108" filterUnits="userSpaceOnUse">
      <feOffset dy="3" input="SourceAlpha"/>
      <feGaussianBlur stdDeviation="3" result="blur"/>
      <feFlood flood-opacity="0.161"/>
      <feComposite operator="in" in2="blur"/>
      <feComposite in="SourceGraphic"/>
    </filter>
  </defs>
  <g id="Grupo_1203786" data-name="Grupo 1203786" transform="translate(-200 -3731.247)">
    <g id="Grupo_1203723" data-name="Grupo 1203723" transform="translate(209 3737.247)">
      <g id="Grupo_1173585" data-name="Grupo 1173585" transform="translate(0 0)">
        <g id="Grupo_1173428" data-name="Grupo 1173428">
          <g id="Grupo_1171958" data-name="Grupo 1171958">
            <g id="Grupo_1167341" data-name="Grupo 1167341">
              <g id="Grupo_1166792" data-name="Grupo 1166792">
                <g transform="matrix(1, 0, 0, 1, -9, -6)" filter="url(#Trazado_904820)">
                  <g id="Trazado_904820-2" data-name="Trazado 904820" transform="translate(9 6)" fill="#f2f7e5">
                    <path d="M 44.99999618530273 88.50003814697266 C 39.12687301635742 88.50003814697266 33.43022155761719 87.35011291503906 28.06829643249512 85.08219909667969 C 22.88852119445801 82.89134979248047 18.23629570007324 79.75462341308594 14.24084663391113 75.75917053222656 C 10.24540901184082 71.76372528076172 7.108683586120605 67.11149597167969 4.917821407318115 61.93172454833984 C 2.649921178817749 56.56979751586914 1.499996185302734 50.87314605712891 1.499996185302734 45.00002288818359 C 1.499996185302734 39.12689971923828 2.649921178817749 33.43024826049805 4.917821407318115 28.06830978393555 C 7.108683586120605 22.88853454589844 10.24540901184082 18.2363224029541 14.24084663391113 14.24087333679199 C 18.23629570007324 10.24542331695557 22.88852119445801 7.108697891235352 28.06829643249512 4.917835235595703 C 33.43022155761719 2.649935483932495 39.12687301635742 1.500010371208191 44.99999618530273 1.500010371208191 C 50.87311935424805 1.500010371208191 56.56977081298828 2.649935483932495 61.93169784545898 4.917835235595703 C 67.11147308349609 7.108697891235352 71.76369476318359 10.24542331695557 75.75914764404297 14.24087333679199 C 79.75458526611328 18.2363224029541 82.89131164550781 22.88853454589844 85.08216857910156 28.06830978393555 C 87.35007476806641 33.43024826049805 88.5 39.12689971923828 88.5 45.00002288818359 C 88.5 50.87314605712891 87.35007476806641 56.56979751586914 85.08216857910156 61.93172454833984 C 82.89131164550781 67.11149597167969 79.75458526611328 71.76372528076172 75.75914764404297 75.75917053222656 C 71.76369476318359 79.75462341308594 67.11147308349609 82.89134979248047 61.93169784545898 85.08219909667969 C 56.56977081298828 87.35011291503906 50.87311935424805 88.50003814697266 44.99999618530273 88.50003814697266 Z" stroke="none"/>
                    <path d="M 44.99999618530273 3.000007629394531 C 39.32870864868164 3.000007629394531 33.82865142822266 4.110069274902344 28.65262603759766 6.299354553222656 C 23.65165710449219 8.414581298828125 19.15968322753906 11.44335174560547 15.301513671875 15.30152130126953 C 11.44333648681641 19.15969085693359 8.414566040039062 23.65166473388672 6.299339294433594 28.65263748168945 C 4.110054016113281 33.82867813110352 2.999992370605469 39.3287353515625 2.999992370605469 45.00002288818359 C 2.999992370605469 50.67131042480469 4.110054016113281 56.17136764526367 6.299339294433594 61.34739685058594 C 8.414566040039062 66.34838104248047 11.44333648681641 70.84033966064453 15.301513671875 74.69850921630859 C 19.15968322753906 78.55669403076172 23.65165710449219 81.58546447753906 28.65262603759766 83.70069122314453 C 33.82865142822266 85.88997650146484 39.32870864868164 87.00003814697266 44.99999618530273 87.00003814697266 C 50.67128372192383 87.00003814697266 56.17134094238281 85.88997650146484 61.34736633300781 83.70069122314453 C 66.34834289550781 81.58546447753906 70.84030914306641 78.55669403076172 74.69847869873047 74.69850921630859 C 78.55665588378906 70.84033966064453 81.58542633056641 66.34838104248047 83.70065307617188 61.34739685058594 C 85.88993835449219 56.17136764526367 87 50.67131042480469 87 45.00002288818359 C 87 39.3287353515625 85.88993835449219 33.82867813110352 83.70065307617188 28.65263748168945 C 81.58542633056641 23.65166473388672 78.55665588378906 19.15969085693359 74.69847869873047 15.30152130126953 C 70.84030914306641 11.44335174560547 66.34834289550781 8.414581298828125 61.34736633300781 6.299354553222656 C 56.17134094238281 4.110069274902344 50.67128372192383 3.000007629394531 44.99999618530273 3.000007629394531 M 44.99999618530273 7.62939453125e-06 C 69.85281372070312 7.62939453125e-06 90 20.14719390869141 90 45.00002288818359 C 90 69.85283660888672 69.85281372070312 90.00003814697266 44.99999618530273 90.00003814697266 C 20.14717864990234 90.00003814697266 -7.62939453125e-06 69.85283660888672 -7.62939453125e-06 45.00002288818359 C -7.62939453125e-06 20.14719390869141 20.14717864990234 7.62939453125e-06 44.99999618530273 7.62939453125e-06 Z" stroke="none" fill="#86b60c"/>
                  </g>
                </g>
              </g>
            </g>
          </g>
        </g>
      </g>
    </g>
    <g id="Lineal_color" data-name="Lineal color" transform="translate(223.929 3750.299)">
      <path id="Trazado_1044009" data-name="Trazado 1044009" d="M30.228,8A24.228,24.228,0,0,1,54.456,32.228v25.16H6V32.228A24.228,24.228,0,0,1,30.228,8Z" transform="translate(-0.273 -0.41)" fill="#ffe834"/>
      <path id="Trazado_1044010" data-name="Trazado 1044010" d="M30.569,14A19.569,19.569,0,0,1,50.137,33.569V57.8H11V33.569A19.569,19.569,0,0,1,30.569,14Z" transform="translate(-0.614 -0.819)" fill="#d33028"/>
      <path id="Trazado_1044011" data-name="Trazado 1044011" d="M30.023,46V59.978H3l.932-8.387Z" transform="translate(-0.069 -3)" fill="#a90900"/>
      <path id="Trazado_1044012" data-name="Trazado 1044012" d="M32,46V59.978H59.023l-.932-8.387Z" transform="translate(-2.045 -3)" fill="#a90900"/>
      <path id="Trazado_1044013" data-name="Trazado 1044013" d="M49.274,23.25v8.387A4.659,4.659,0,0,1,44.614,36.3a7.455,7.455,0,0,1-7.455,7.455H24.114A7.455,7.455,0,0,1,16.659,36.3,4.659,4.659,0,0,1,12,31.637V23.25a5.591,5.591,0,0,1,5.591-5.591A4.659,4.659,0,0,1,22.25,13H39.023a4.659,4.659,0,0,1,4.659,4.659A5.591,5.591,0,0,1,49.274,23.25Z" transform="translate(-0.682 -0.751)" fill="#be905e"/>
      <path id="Trazado_1044014" data-name="Trazado 1044014" d="M57.047,51.25,35.614,59.637,34.561,56.99l-.7-1.724-3.839-9.607-3.83,9.579-.69,1.733-1.072,2.665L3,51.25l4.212-1.593,2.581-.978L21.721,44.15l6.085-2.311.317-.121,1.491-.559.41-.158.41.158,1.491.559.317.121,6.085,2.311,12.123,4.594,2.591.988Z" transform="translate(-0.069 -2.659)" fill="#f8f8ff"/>
      <g id="Grupo_1203787" data-name="Grupo 1203787" transform="translate(7.143 38.377)">
        <path id="Trazado_1044015" data-name="Trazado 1044015" d="M23.892,54.756,26.5,55.8l-.69,1.733L7.52,50.218,10.1,49.24l2.712,1.081h.009l2.078.839,2.572,1.025,1.91.764,2.749,1.1Z" transform="translate(-7.52 -41.598)" fill="#d2d0db"/>
        <path id="Trazado_1044016" data-name="Trazado 1044016" d="M55.3,50.3,36.819,57.557l-.7-1.724L38.748,54.8l1.761-.7,2.786-1.09,1.892-.745,2.637-1.034,2.05-.8,2.833-1.118Z" transform="translate(-9.469 -41.602)" fill="#d2d0db"/>
        <path id="Trazado_1044017" data-name="Trazado 1044017" d="M23.932,55.043a.932.932,0,0,1-.773-1.444l7.455-11.182a.932.932,0,1,1,1.547,1.034L24.706,54.633a.932.932,0,0,1-.773.41Z" transform="translate(-8.575 -41.101)" fill="#d2d0db"/>
        <path id="Trazado_1044018" data-name="Trazado 1044018" d="M18.931,53.117A.932.932,0,0,1,18.3,51.5L29.48,41.245a.932.932,0,0,1,1.258,1.37L19.556,52.865A.932.932,0,0,1,18.931,53.117Z" transform="translate(-8.234 -41.039)" fill="#d2d0db"/>
        <path id="Trazado_1044019" data-name="Trazado 1044019" d="M28.385,42.786,14.407,51.172a.932.932,0,0,1-.95-1.6L22.4,44.2l6.085-2.311.317-.121a.932.932,0,0,1-.419,1.016Z" transform="translate(-7.894 -41.088)" fill="#d2d0db"/>
        <path id="Trazado_1044020" data-name="Trazado 1044020" d="M39.389,55.049a.932.932,0,0,1-.773-.419L31.161,43.447a.932.932,0,0,1,1.547-1.034l7.455,11.182a.932.932,0,0,1-.773,1.454Z" transform="translate(-9.122 -41.107)" fill="#d2d0db"/>
        <path id="Trazado_1044021" data-name="Trazado 1044021" d="M44.117,53.117a.932.932,0,0,1-.634-.242L32.3,42.625a.932.932,0,0,1,1.258-1.37l11.182,10.25a.932.932,0,0,1-.624,1.612Z" transform="translate(-9.191 -41.039)" fill="#d2d0db"/>
        <path id="Trazado_1044022" data-name="Trazado 1044022" d="M49.709,50.846a.931.931,0,0,1-1.277.326L34.455,42.786A.932.932,0,0,1,34,41.77l.317.121L40.4,44.2l8.946,5.367a.932.932,0,0,1,.363,1.277Z" transform="translate(-9.323 -41.088)" fill="#d2d0db"/>
      </g>
      <path id="Trazado_1044023" data-name="Trazado 1044023" d="M42.364,20V31.182c0,1.864-3.727,13.046-11.182,13.046S20,33.046,20,31.182V20.932" transform="translate(-1.227 -1.228)" fill="#fae0bb"/>
      <path id="Trazado_1044024" data-name="Trazado 1044024" d="M28.657,28.831a.932.932,0,0,1-.419-.1,3.252,3.252,0,0,0-2.9,0,.932.932,0,1,1-.829-1.668,5.125,5.125,0,0,1,4.557,0,.932.932,0,0,1-.41,1.77Z" transform="translate(-1.498 -1.673)" fill="#ae7537"/>
      <path id="Trazado_1044025" data-name="Trazado 1044025" d="M38.657,28.831a.932.932,0,0,1-.419-.1,3.252,3.252,0,0,0-2.9,0,.932.932,0,1,1-.829-1.668,5.125,5.125,0,0,1,4.557,0,.932.932,0,0,1-.41,1.77Z" transform="translate(-2.179 -1.673)" fill="#ae7537"/>
      <path id="Trazado_1044026" data-name="Trazado 1044026" d="M26.864,30.727a1.864,1.864,0,1,1,1.864-1.864A1.864,1.864,0,0,1,26.864,30.727Z" transform="translate(-1.568 -1.705)" fill="#380f00"/>
      <path id="Trazado_1044027" data-name="Trazado 1044027" d="M36.864,30.727a1.864,1.864,0,1,1,1.864-1.864A1.864,1.864,0,0,1,36.864,30.727Z" transform="translate(-2.25 -1.705)" fill="#380f00"/>
      <path id="Trazado_1044028" data-name="Trazado 1044028" d="M31.862,33.591H30.93A.932.932,0,0,1,30,32.436l.932-3.727a.932.932,0,1,1,1.808.457l-.624,2.563a.94.94,0,0,1-.252,1.864Z" transform="translate(-1.907 -1.773)" fill="#eebf90"/>
      <path id="Trazado_1044029" data-name="Trazado 1044029" d="M31.387,35h-2.8a2.8,2.8,0,0,0-2.8,2.8H23a2.8,2.8,0,0,0,2.8,2.8A5.591,5.591,0,0,0,31.387,35Z" transform="translate(-1.432 -2.25)" fill="#be905e"/>
      <path id="Trazado_1044030" data-name="Trazado 1044030" d="M32,35h2.8a2.8,2.8,0,0,1,2.8,2.8h2.8a2.8,2.8,0,0,1-2.8,2.8A5.591,5.591,0,0,1,32,35Z" transform="translate(-2.045 -2.25)" fill="#be905e"/>
      <path id="Trazado_1044031" data-name="Trazado 1044031" d="M19.727,27A3.727,3.727,0,0,0,16,30.727a3.522,3.522,0,0,0,1.864,2.8l2.8,1.864-.932-3.727Z" transform="translate(-0.955 -1.705)" fill="#eebf90"/>
      <path id="Trazado_1044032" data-name="Trazado 1044032" d="M43.932,27a3.727,3.727,0,0,1,3.727,3.727,3.522,3.522,0,0,1-1.864,2.8L43,35.387l.932-3.727Z" transform="translate(-2.795 -1.705)" fill="#eebf90"/>
      <path id="Trazado_1044033" data-name="Trazado 1044033" d="M16,19v7.455h3.727c3.727,0,3.727-7.455,3.727-7.455s.932,4.659,7.455,4.659S38.364,19,38.364,19s-.932,7.455,3.727,7.455h3.727V19" transform="translate(-0.955 -1.16)" fill="#be905e"/>
      <path id="Trazado_1044034" data-name="Trazado 1044034" d="M43.16,15.727H18.932L18,12H44.092Z" transform="translate(-1.091 -0.683)" fill="#e1a600"/>
      <path id="Trazado_1044035" data-name="Trazado 1044035" d="M17.8,11.455,15,4.932s3.727,2.8,6.523,2.8S26.182,4,26.182,4s.932,3.727,4.659,3.727S35.5,4,35.5,4s1.864,3.727,4.659,3.727,6.523-2.8,6.523-2.8l-2.8,6.523Z" transform="translate(-0.886 -0.137)" fill="#edc433"/>
      <circle id="Elipse_11669" data-name="Elipse 11669" cx="0.932" cy="0.932" r="0.932" transform="translate(13.182 3.863)" fill="#ffffad"/>
      <circle id="Elipse_11670" data-name="Elipse 11670" cx="0.932" cy="0.932" r="0.932" transform="translate(24.364 2.931)" fill="#ffffad"/>
      <circle id="Elipse_11671" data-name="Elipse 11671" cx="0.932" cy="0.932" r="0.932" transform="translate(33.682 2.931)" fill="#ffffad"/>
      <circle id="Elipse_11672" data-name="Elipse 11672" cx="0.932" cy="0.932" r="0.932" transform="translate(44.864 3.863)" fill="#ffffad"/>
      <path id="Trazado_1044036" data-name="Trazado 1044036" d="M57.547,49.458a.932.932,0,0,0,0-1.743l-2.423-.932V31.818a25.057,25.057,0,0,0-11-20.771L45.992,6.64a1.864,1.864,0,1,0-2.059-1.845v.112a10.194,10.194,0,0,1-4.659,1.752c-1.258,0-2.339-1.081-3.01-1.948a1.861,1.861,0,1,0-3.168.224,3.727,3.727,0,0,1-6.281,0,1.864,1.864,0,1,0-3.168-.224c-.671.867-1.752,1.948-3.01,1.948a10.194,10.194,0,0,1-4.659-1.752V4.795A1.864,1.864,0,1,0,13.89,6.658l1.864,4.408A25.029,25.029,0,0,0,4.8,31.818V46.886l-2.19.829a.932.932,0,0,0,0,1.743l.224.093L2,56.875a.932.932,0,0,0,.932,1.034H56.978a.932.932,0,0,0,.932-1.034l-.8-7.24Zm-4.3-17.64V46.1l-2.8-1.053V32.75a20.5,20.5,0,0,0-.848-5.861l-.084-.205V22.5a6.523,6.523,0,0,0-5.656-6.467,5.591,5.591,0,0,0-.4-1.37l-.186-.606.289-1.146a23.2,23.2,0,0,1,9.682,18.907ZM35.182,42.124l.084-.065,10.25,5.964-2.292.932Zm5.777,7.66-2.917,1.137L33.123,43.3l.363-.158ZM30.206,29.954l.652-2.6a.942.942,0,0,0-1.836-.419l-.932,3.727a.932.932,0,0,0,.932,1.155H27.159a3.727,3.727,0,0,0-3.606,2.8H21.568a.932.932,0,0,0-.28.056A16.391,16.391,0,0,1,19.7,29.954V26.106c2.134-.587,3.047-3.159,3.438-5.284,1.221,1.323,3.28,2.609,6.812,2.609a8.9,8.9,0,0,0,6.523-2.339A7.082,7.082,0,0,0,37.95,24.82a3.9,3.9,0,0,0,2.255,1.314v3.821a16.391,16.391,0,0,1-1.584,4.715.932.932,0,0,0-.28-.056H36.357a3.727,3.727,0,0,0-3.606-2.8h-2.8a.94.94,0,0,0,.252-1.864Zm-13.046,19.1-2.8-1.072,10.25-5.964.121.093Zm9.272-5.945.345.149-5.051,7.576L19.1,49.812ZM41.938,15.977a3.727,3.727,0,0,1,.13.932A.932.932,0,0,0,43,17.84,4.659,4.659,0,0,1,47.66,22.5v8.387a3.727,3.727,0,0,1-3.727,3.727.932.932,0,0,0-.932.932,6.523,6.523,0,0,1-3.1,5.535l-2.563-.932a21.721,21.721,0,0,0,3.476-5.722l2.665-1.78a4.445,4.445,0,0,0,2.32-3.625,4.659,4.659,0,0,0-.932-2.8.932.932,0,1,0,0-1.864H41.137a2.208,2.208,0,0,1-1.752-.736c-1.258-1.416-1.183-4.575-1.044-5.666a.944.944,0,0,0-1.864-.308c0,.186-.932,3.914-6.523,3.914s-6.523-3.727-6.523-3.914a.936.936,0,0,0-1.864.186c0,1.7-.513,6.523-2.8,6.523H15.045a.932.932,0,0,0,0,1.864,4.659,4.659,0,0,0-.932,2.8A4.417,4.417,0,0,0,16.4,32.591l2.7,1.8a21.7,21.7,0,0,0,3.494,5.74l-2.553.932a6.523,6.523,0,0,1-3.131-5.517.932.932,0,0,0-.932-.932,3.727,3.727,0,0,1-3.727-3.727V22.5a4.659,4.659,0,0,1,4.659-4.659.932.932,0,0,0,.932-.932,3.727,3.727,0,0,1,.13-.932ZM18.1,12.249H41.808l-.466,1.864H18.568Zm30.49,21.693V44.351l-6.616-2.488A8.387,8.387,0,0,0,44.864,36.4a5.591,5.591,0,0,0,3.727-2.46Zm-6.774-2.46a6.961,6.961,0,0,0,.252-1.528v-3.56a2.8,2.8,0,0,1,1.864,2.628,2.684,2.684,0,0,1-1.444,2.022Zm-23.715,0-.708-.475a2.656,2.656,0,0,1-1.416-1.985,2.8,2.8,0,0,1,1.864-2.628v3.56a6.961,6.961,0,0,0,.252,1.538ZM15.045,36.4a8.387,8.387,0,0,0,2.879,5.489l-6.607,2.525V33.943a5.591,5.591,0,0,0,3.727,2.46Zm2.386,7.66-5.293,3.084-1.4-.54Zm5.321-7.585h1.612a.932.932,0,0,0,.932-.932,1.864,1.864,0,0,1,1.864-1.864h1.77a4.659,4.659,0,0,1-4.566,3.727A1.864,1.864,0,0,1,22.752,36.477Zm10-2.8a1.864,1.864,0,0,1,1.864,1.864.932.932,0,0,0,.932.932h1.612a1.864,1.864,0,0,1-1.612.932,4.659,4.659,0,0,1-4.566-3.728Zm9.477,10.25L49.2,46.55l-1.482.578ZM20.636,8.522c2.041,0,3.616-1.538,4.519-2.721a5.591,5.591,0,0,0,9.6,0c.9,1.183,2.479,2.721,4.519,2.721a10.25,10.25,0,0,0,4.5-1.379l-1.388,3.243H17.524L16.136,7.143a10.25,10.25,0,0,0,4.5,1.379ZM6.659,31.818A23.184,23.184,0,0,1,16.35,12.911l.289,1.155-.2.615a5.535,5.535,0,0,0-.4,1.36A6.523,6.523,0,0,0,10.386,22.5v4.184l-.084.205a20.5,20.5,0,0,0-.848,5.861V45.125l-2.8,1.053ZM3.975,56.046l.643-5.8,14.807,5.8Zm19.867-.27L5.522,48.591l2.665-1.006,16.382,6.374Zm-.335-4.221,5.051-7.622-3.261,8.3Zm5.516,4.491h-3.28l3.28-8.21ZM24.308,39.273h.056A6.523,6.523,0,0,0,29.955,36.1a6.523,6.523,0,0,0,5.591,3.178H35.6a7.762,7.762,0,0,1-5.647,2.8,7.762,7.762,0,0,1-5.647-2.8Zm6.579,16.773v-8.21l3.28,8.21Zm.466-12.114L36.4,51.508l-1.789.727Zm4,9.989,16.382-6.374v-.084l2.861,1.128L36.068,55.766Zm5.181,2.125L55.3,50.334l.634,5.712Z" transform="translate(0 0)"/>
      <path id="Trazado_1044037" data-name="Trazado 1044037" d="M29.08,27.071a5.125,5.125,0,0,0-4.557,0,.932.932,0,0,0,.41,1.761,1.864,1.864,0,1,0,3.727,0,.932.932,0,0,0,.419-1.761Z" transform="translate(-1.501 -1.673)"/>
      <path id="Trazado_1044038" data-name="Trazado 1044038" d="M34.933,28.832a1.864,1.864,0,1,0,3.727,0,.932.932,0,0,0,.419-1.761,5.125,5.125,0,0,0-4.557,0,.932.932,0,0,0,.41,1.761Z" transform="translate(-2.183 -1.673)"/>
    </g>
  </g>
</svg>
