<svg xmlns="http://www.w3.org/2000/svg" xmlns:xlink="http://www.w3.org/1999/xlink" width="98" height="98" viewBox="0 0 98 98">
  <defs>
    <filter id="Trazado_904820" x="0" y="0" width="98" height="98" filterUnits="userSpaceOnUse">
      <feOffset dy="3" input="SourceAlpha"/>
      <feGaussianBlur stdDeviation="3" result="blur"/>
      <feFlood flood-opacity="0.161"/>
      <feComposite operator="in" in2="blur"/>
      <feComposite in="SourceGraphic"/>
    </filter>
  </defs>
  <g id="Grupo_1203751" data-name="Grupo 1203751" transform="translate(-506 -2521)">
    <g id="Grupo_1203714" data-name="Grupo 1203714" transform="translate(515 2527)">
      <g id="Grupo_1173585" data-name="Grupo 1173585" transform="translate(0 0)">
        <g id="Grupo_1173428" data-name="Grupo 1173428">
          <g id="Grupo_1171958" data-name="Grupo 1171958">
            <g id="Grupo_1167341" data-name="Grupo 1167341">
              <g id="Grupo_1166792" data-name="Grupo 1166792">
                <g transform="matrix(1, 0, 0, 1, -9, -6)" filter="url(#Trazado_904820)">
                  <g id="Trazado_904820-2" data-name="Trazado 904820" transform="translate(9 6)" fill="#e9f9fd">
                    <path d="M 40 78.50003051757812 C 34.80187606811523 78.50003051757812 29.76003265380859 77.48231506347656 25.01452255249023 75.47512054443359 C 20.43014526367188 73.53610229492188 16.31264495849609 70.75990295410156 12.77638912200928 67.2236328125 C 9.240133285522461 63.6873779296875 6.46393346786499 59.56987762451172 4.524899959564209 54.98550033569336 C 2.517722129821777 50.239990234375 1.5 45.19815444946289 1.5 40.00002288818359 C 1.5 34.8018913269043 2.517722129821777 29.76004600524902 4.524899959564209 25.01454544067383 C 6.46393346786499 20.43016815185547 9.240133285522461 16.31265640258789 12.77638912200928 12.77640056610107 C 16.31264495849609 9.240144729614258 20.43014526367188 6.463944911956787 25.01452255249023 4.524911880493164 C 29.76003265380859 2.517734050750732 34.8018684387207 1.500011801719666 40 1.500011801719666 C 45.1981315612793 1.500011801719666 50.23996734619141 2.517734050750732 54.98547744750977 4.524911880493164 C 59.56985473632812 6.463944911956787 63.68735504150391 9.240144729614258 67.22360992431641 12.77640056610107 C 70.75986480712891 16.31265640258789 73.53606414794922 20.43016815185547 75.47509765625 25.01454544067383 C 77.48227691650391 29.76004600524902 78.5 34.8018913269043 78.5 40.00002288818359 C 78.5 45.19815444946289 77.48227691650391 50.239990234375 75.47509765625 54.98550033569336 C 73.53606414794922 59.56987762451172 70.75986480712891 63.6873779296875 67.22360992431641 67.2236328125 C 63.68735504150391 70.75990295410156 59.56985473632812 73.53610229492188 54.98547744750977 75.47512054443359 C 50.23996734619141 77.48231506347656 45.19812393188477 78.50003051757812 40 78.50003051757812 Z" stroke="none"/>
                    <path d="M 40 3.000007629394531 C 35.00370788574219 3.000007629394531 30.15846633911133 3.977859497070312 25.59885406494141 5.906425476074219 C 21.19327926635742 7.769821166992188 17.23603820800781 10.43807983398438 13.83705139160156 13.83706665039062 C 10.43806457519531 17.23604965209961 7.769813537597656 21.19329071044922 5.906410217285156 25.59886169433594 C 3.977851867675781 30.15847778320312 3 35.00373077392578 3 40.00002288818359 C 3 44.99631500244141 3.977851867675781 49.84155654907227 5.906410217285156 54.40116882324219 C 7.769813537597656 58.80675506591797 10.43806457519531 62.76399612426758 13.83705139160156 66.16297912597656 C 17.23603820800781 69.56196594238281 21.19327926635742 72.230224609375 25.59885406494141 74.09362030029297 C 30.15846633911133 76.02218627929688 35.00370788574219 77.00003814697266 40 77.00003814697266 C 44.99629211425781 77.00003814697266 49.84153366088867 76.02218627929688 54.40114593505859 74.09362030029297 C 58.80672073364258 72.230224609375 62.76396179199219 69.56196594238281 66.16294860839844 66.16297912597656 C 69.56193542480469 62.76399612426758 72.23018646240234 58.80675506591797 74.09358978271484 54.40116882324219 C 76.02214813232422 49.84155654907227 77 44.99631500244141 77 40.00002288818359 C 77 35.00373077392578 76.02214813232422 30.15847778320312 74.09358978271484 25.59886169433594 C 72.23018646240234 21.19329071044922 69.56193542480469 17.23604965209961 66.16294860839844 13.83706665039062 C 62.76396179199219 10.43807983398438 58.80672073364258 7.769821166992188 54.40114593505859 5.906425476074219 C 49.84153366088867 3.977859497070312 44.99629211425781 3.000007629394531 40 3.000007629394531 M 40 7.62939453125e-06 C 62.09138488769531 7.62939453125e-06 80 17.90862274169922 80 40.00002288818359 C 80 62.09140777587891 62.09138488769531 80.00003814697266 40 80.00003814697266 C 17.90861511230469 80.00003814697266 0 62.09140777587891 0 40.00002288818359 C 0 17.90862274169922 17.90861511230469 7.62939453125e-06 40 7.62939453125e-06 Z" stroke="none" fill="#1d7083"/>
                  </g>
                </g>
              </g>
            </g>
          </g>
        </g>
      </g>
    </g>
    <g id="colosseum_17974697" transform="translate(507.574 2513.156)">
      <g id="Grupo_1203750" data-name="Grupo 1203750" transform="translate(22.587 29.372)">
        <path id="Trazado_1043864" data-name="Trazado 1043864" d="M61,50.959l.21-3.1-4.3-.633L55.746,41,54.14,38.457,53.154,33.9a14.025,14.025,0,0,0-12.9,5.21V78.049H87.063V55.405C80.581,51.52,70.439,50.327,61,50.959Z" transform="translate(-38.803 -33.8)" fill="#b79b66" fill-rule="evenodd"/>
        <path id="Trazado_1043865" data-name="Trazado 1043865" d="M93.711,52.232l.21-3.1-4.3-.633-1.171-6.231-1.606-2.539-.974-4.5a14.106,14.106,0,0,0-8.854,5.157V79.323h42.752V56.679c-4.947-2.965-12.02-4.362-19.29-4.577-.9.029-1.809.072-2.705.131l.009-.157q-2.048.018-4.074.156Z" transform="translate(-71.511 -35.072)" fill="#e2bf7e" fill-rule="evenodd"/>
        <path id="Trazado_1043866" data-name="Trazado 1043866" d="M55.67,92.258l-.442-.7c-5.827.6-9.38,1.233-14.978,4.026v3.523a33.287,33.287,0,0,1,15.962-4.246Z" transform="translate(-38.803 -85.18)" fill="#b2825a" fill-rule="evenodd"/>
        <path id="Trazado_1043867" data-name="Trazado 1043867" d="M78.94,92.258l-.442-.7a41.46,41.46,0,0,0-10.6,2.116c-.483.266-.98.545-1.493.839v3.152a33.243,33.243,0,0,1,13.073-2.806Z" transform="translate(-62.073 -85.18)" fill="#daaa79" fill-rule="evenodd"/>
        <path id="Trazado_1043868" data-name="Trazado 1043868" d="M67.8,376.092h4.988v-4.75a2.494,2.494,0,0,0-4.987,0v4.75Zm35.738,0h4.988v-4.75a2.494,2.494,0,0,0-4.987,0v4.75Zm-8.933,0H99.59v-4.75a2.492,2.492,0,0,0-4.984,0v4.75Zm-8.936,0h4.988v-4.75a2.494,2.494,0,0,0-4.987,0v4.75Zm-8.933,0h4.988v-4.75a2.494,2.494,0,0,0-4.987,0v4.75Z" transform="translate(-63.31 -331.841)" fill="#a0774a" fill-rule="evenodd"/>
        <path id="Trazado_1043869" data-name="Trazado 1043869" d="M80.95,383.7h3.535v-4.75a2.477,2.477,0,0,0-.495-1.485,2.421,2.421,0,0,0-.548-.063,2.5,2.5,0,0,0-2.492,2.5Zm38.778-6.234a2.421,2.421,0,0,0-.548-.063,2.5,2.5,0,0,0-2.492,2.5v3.8h3.535v-4.75A2.476,2.476,0,0,0,119.728,377.463Zm-8.936,0a2.392,2.392,0,0,0-.545-.063,2.5,2.5,0,0,0-2.5,2.5v3.8h3.535v-4.75A2.454,2.454,0,0,0,110.792,377.463Zm-8.933,0a2.421,2.421,0,0,0-.548-.063,2.5,2.5,0,0,0-2.492,2.5v3.8h3.535v-4.75A2.483,2.483,0,0,0,101.86,377.463Zm-8.933,0a2.443,2.443,0,0,0-.548-.063,2.5,2.5,0,0,0-2.5,2.5v3.8h3.538v-4.75A2.483,2.483,0,0,0,92.927,377.463Z" transform="translate(-75.007 -339.447)" fill="#bb9c7a" fill-rule="evenodd"/>
        <path id="Trazado_1043870" data-name="Trazado 1043870" d="M86.021,266.789v-3.328a2.251,2.251,0,1,0-4.5,0V266.6Q83.774,266.595,86.021,266.789Zm-14.259.715v-3.4a2.251,2.251,0,0,0-4.5,0v4.367Q69.49,267.907,71.762,267.5Zm7.149-.827v-3.215a2.251,2.251,0,1,0-4.5,0v3.632q2.24-.295,4.5-.416Z" transform="translate(-62.83 -236.091)" fill="#a0774a" fill-rule="evenodd"/>
        <path id="Trazado_1043871" data-name="Trazado 1043871" d="M97.06,277.295v-3.328a2.236,2.236,0,0,0-.157-.824,2.235,2.235,0,0,0-.727-.123,2.259,2.259,0,0,0-2.251,2.251v1.85Q95.495,277.161,97.06,277.295Zm-14.416-3.513a2.32,2.32,0,0,0-.724-.119,2.257,2.257,0,0,0-2.251,2.251v2.734c1.036-.237,2.082-.454,3.131-.638v-3.4A2.19,2.19,0,0,0,82.645,273.782Zm7.146-.64a2.215,2.215,0,0,0-.724-.123,2.257,2.257,0,0,0-2.251,2.251v2.165q1.564-.169,3.135-.254v-3.215A2.173,2.173,0,0,0,89.79,273.143Z" transform="translate(-73.869 -246.596)" fill="#bb9c7a" fill-rule="evenodd"/>
        <path id="Trazado_1043872" data-name="Trazado 1043872" d="M359.1,283.335V279.9a2.048,2.048,0,1,0-4.1,0v2.871Q357.063,282.976,359.1,283.335Zm4.975,1.118h.889v-3.494a1.982,1.982,0,0,0-3.963,0v2.746Q362.546,284.038,364.071,284.453Z" transform="translate(-318.786 -250.893)" fill="#a0774a" fill-rule="evenodd"/>
        <path id="Trazado_1043873" data-name="Trazado 1043873" d="M369.512,290.22v-3.437a2.032,2.032,0,0,0-.357-1.152,2.086,2.086,0,0,0-.4-.041,2.053,2.053,0,0,0-2.048,2.048V289.8Q368.115,289.976,369.512,290.22Zm5.533-3.47a1.912,1.912,0,0,0-.357-.034,1.988,1.988,0,0,0-1.982,1.982v2.183c.6.144,1.19.294,1.782.457h.889v-3.494A1.968,1.968,0,0,0,375.045,286.751Z" transform="translate(-329.203 -257.778)" fill="#bb9c7a" fill-rule="evenodd"/>
        <path id="Trazado_1043874" data-name="Trazado 1043874" d="M64.974,159.174v-2.123a2.187,2.187,0,0,0-4.374,0v3.26A42.381,42.381,0,0,1,64.974,159.174Zm7.035-1.1V155.8a2.187,2.187,0,1,0-4.374,0v2.877C69.026,158.444,70.494,158.24,72.009,158.071Z" transform="translate(-56.905 -140.376)" fill="#a0774a" fill-rule="evenodd"/>
        <path id="Trazado_1043875" data-name="Trazado 1043875" d="M74.812,166.326V164.2a2.174,2.174,0,0,0-.372-1.215,2.178,2.178,0,0,0-2.78,2.1v2C72.63,166.817,73.688,166.56,74.812,166.326Zm6.663-4.594a2.189,2.189,0,0,0-2.781,2.106v1.794q1.531-.23,3.152-.41v-2.273A2.166,2.166,0,0,0,81.475,161.732Z" transform="translate(-66.744 -147.528)" fill="#bb9c7a" fill-rule="evenodd"/>
        <path id="Trazado_1043876" data-name="Trazado 1043876" d="M27.15,434.41H76.856V437.1H27.15Z" transform="translate(-27.15 -390.16)" fill="#b2825a" fill-rule="evenodd"/>
        <path id="Trazado_1043877" data-name="Trazado 1043877" d="M70.92,434.41h44.871V437.1H70.92Z" transform="translate(-66.085 -390.16)" fill="#daaa79" fill-rule="evenodd"/>
        <path id="Trazado_1043878" data-name="Trazado 1043878" d="M345.785,325.882v-2.5a55.31,55.31,0,0,0-14.607-2.787l-.078,2.68A50.188,50.188,0,0,1,345.785,325.882Z" transform="translate(-297.526 -288.921)" fill="#daaa79" fill-rule="evenodd"/>
        <path id="Trazado_1043879" data-name="Trazado 1043879" d="M40.25,312.744v3.069a54.169,54.169,0,0,1,25.437-1.995l.36-3.059A56.234,56.234,0,0,0,40.25,312.744Z" transform="translate(-38.803 -279.534)" fill="#b2825a" fill-rule="evenodd"/>
        <path id="Trazado_1043880" data-name="Trazado 1043880" d="M64.06,315.046a53.332,53.332,0,0,1,22.807-1.23l.36-3.059a53.847,53.847,0,0,0-20.725.667q-1.231.32-2.442.689Z" transform="translate(-59.983 -279.531)" fill="#daaa79" fill-rule="evenodd"/>
        <path id="Trazado_1043881" data-name="Trazado 1043881" d="M40.25,192.141v3.867c15.273-4.077,31.725-4.475,46.813.113v-3.166C78.711,186.3,49.686,187.83,40.25,192.141Z" transform="translate(-38.803 -171.35)" fill="#b2825a" fill-rule="evenodd"/>
        <path id="Trazado_1043882" data-name="Trazado 1043882" d="M73.2,193.562a82.354,82.354,0,0,1,34.457,2.555v-3.166c-7.176-5.724-29.617-5.395-41.778-2.454a22.407,22.407,0,0,0-2.476.933V195.3A60.373,60.373,0,0,1,73.2,193.562Z" transform="translate(-59.396 -171.346)" fill="#daaa79" fill-rule="evenodd"/>
      </g>
      <path id="Trazado_1043883" data-name="Trazado 1043883" d="M24.572,53.317c14.875-3.854,30.9-4.252,45.707.087V51.291a32.619,32.619,0,0,0-10.745-3.569,80.832,80.832,0,0,0-14.766-.638c-2.43.1-4.809.282-7.1.536-1.453.166-2.862.36-4.2.579a.477.477,0,0,1-.147.025q-1.292.215-2.486.464a.509.509,0,0,1-.154.034A41.806,41.806,0,0,0,26.5,49.805a.5.5,0,0,1-.135.044c-.654.216-1.256.442-1.8.676Zm45.707,1.234a79.155,79.155,0,0,0-24.595-3.134l1.1,1.572,4.894-.62a.55.55,0,0,1,.442.138l2.022,1.7,2.167-.087a.551.551,0,0,1,.57.6L56.569,57.8l1.6,2.843.066.007V58.379a2.6,2.6,0,1,1,5.2,0v2.978l.8.154V59.438a2.535,2.535,0,0,1,5.07,0v3.335c.326.1.654.2.98.3V54.551ZM44.372,51.46a93.035,93.035,0,0,0-19.8,3v7.386q.934-.272,1.879-.517V57.384a2.8,2.8,0,0,1,5.608,0V60.13c.51-.085,1.024-.162,1.538-.237v-3.15a2.8,2.8,0,0,1,5.608,0v2.64c.5-.022,1.005-.034,1.506-.044v-2.6a2.8,2.8,0,0,1,5.608,0v2.824c.492.047.98.1,1.471.166l.532-2.623Zm-19.8-2.13c.36-.144.742-.285,1.143-.423V46.045a2.74,2.74,0,0,1,5.48,0v1.449c.507-.1,1.024-.194,1.553-.288V44.793a2.74,2.74,0,0,1,5.48,0v1.662c1.954-.207,3.98-.36,6.028-.451l.141-2.1-3.792-.56a.551.551,0,0,1-.466-.473l-.611-3.26a32.741,32.741,0,0,0-14.954,4.011V49.33Zm2.248-.773c1-.3,2.094-.577,3.268-.833V46.046a1.635,1.635,0,0,0-3.27,0v2.511Zm7.033-1.531c1.055-.166,2.148-.316,3.268-.447V44.794a1.635,1.635,0,0,0-3.27,0v2.232Zm25.337-.479c5.084.689,9.415,1.966,11.952,3.973a.548.548,0,0,1,.244.457V73.07h.893a.553.553,0,0,1,.554.551v2.693a.553.553,0,0,1-.554.551H22.571a.552.552,0,0,1-.551-.551V73.621a.552.552,0,0,1,.551-.551h.9V34.687a.549.549,0,0,1,.135-.36,15.465,15.465,0,0,1,6.192-4.556,15.091,15.091,0,0,1,7.154-.845.555.555,0,0,1,.514.435l.964,4.459,1.543,2.439a.535.535,0,0,1,.085.207l1.1,5.845,3.9.577a.552.552,0,0,1,.473.582l-.166,2.473a65.076,65.076,0,0,1,13.824.6ZM24.572,64.9a54.728,54.728,0,0,1,24.4-1.888l.229-1.96A50.03,50.03,0,0,0,37.318,60.6c-1.024.082-2.048.188-3.065.323a.453.453,0,0,1-.063.007c-.785.082-1.819.285-2.611.408a63.867,63.867,0,0,0-7.007,1.659Zm2.985-3.854q1.687-.409,3.4-.723v-2.94a1.7,1.7,0,0,0-3.4,0Zm7.144-1.3c1.13-.135,2.261-.241,3.4-.31v-2.7a1.7,1.7,0,0,0-3.4,0Zm7.115-.413q1.7.013,3.4.138V56.742a1.7,1.7,0,0,0-3.4,0Zm7.063.548c.345.053.689.109,1.031.169a.556.556,0,0,1,.454.608l-.357,3.04a.555.555,0,0,1-.645.5,53.494,53.494,0,0,0-24.789,1.857v7.014H26.51v-4.2a3.047,3.047,0,0,1,6.094,0v4.2h2.843v-4.2a3.045,3.045,0,0,1,6.091,0v4.2h2.843v-4.2a3.047,3.047,0,0,1,6.094,0v4.2h2.843v-4.2a3.045,3.045,0,0,1,6.091,0v4.2h2.843v-4.2a3.045,3.045,0,0,1,6.091,0v4.2h1.941V66.723a50.164,50.164,0,0,0-14.158-2.442v0a.546.546,0,0,1-.522-.563l.078-2.655a.551.551,0,0,1,.579-.558c.2.009.394.022.592.034L55.524,58.18h0a.535.535,0,0,1-.068-.323l.263-2.611-1.747.068a.548.548,0,0,1-.376-.128l-2.019-1.7L47.5,54l1.863,2.668a.535.535,0,0,1,.087.426Zm21.4,4.349a54.909,54.909,0,0,0-13.52-2.6l-.048,1.575a50.674,50.674,0,0,1,13.568,2.352Zm-10.94-3.478q1.5.164,2.99.408V58.377a1.5,1.5,0,0,0-2.99,0Zm6,.99c.958.213,1.913.447,2.859.71V59.438a1.43,1.43,0,0,0-2.439-1.008,1.413,1.413,0,0,0-.42,1.008ZM27.615,73.071H31.5v-4.2a1.941,1.941,0,0,0-3.883,0Zm8.934,0h3.883v-4.2a1.941,1.941,0,0,0-3.883,0Zm8.936,0h3.883v-4.2a1.941,1.941,0,0,0-3.883,0Zm8.933,0H58.3v-4.2a1.941,1.941,0,0,0-3.883,0Zm8.936,0h3.883v-4.2a1.941,1.941,0,0,0-3.883,0Zm8.373,1.1h-48.6v1.584h48.6Zm-47.154-31.8a33.787,33.787,0,0,1,14.747-3.857l-.326-1.744-.278-.439c-5.6.589-8.986,1.253-14.143,3.785Zm0-3.482A36.593,36.593,0,0,1,38.057,35.3a9.051,9.051,0,0,1-.689-1.152l-.9-4.158a13.878,13.878,0,0,0-6.277.811,14.246,14.246,0,0,0-5.618,4.091Z" transform="translate(0 0)"/>
    </g>
  </g>
</svg>
