<svg xmlns="http://www.w3.org/2000/svg" xmlns:xlink="http://www.w3.org/1999/xlink" width="98" height="98" viewBox="0 0 98 98">
  <defs>
    <filter id="Trazado_904820" x="0" y="0" width="98" height="98" filterUnits="userSpaceOnUse">
      <feOffset dy="3" input="SourceAlpha"/>
      <feGaussianBlur stdDeviation="3" result="blur"/>
      <feFlood flood-opacity="0.161"/>
      <feComposite operator="in" in2="blur"/>
      <feComposite in="SourceGraphic"/>
    </filter>
  </defs>
  <g id="Grupo_1203759" data-name="Grupo 1203759" transform="translate(-816 -2521)">
    <g id="Grupo_1203715" data-name="Grupo 1203715" transform="translate(825 2527)">
      <g id="Grupo_1173585" data-name="Grupo 1173585" transform="translate(0 0)">
        <g id="Grupo_1173428" data-name="Grupo 1173428">
          <g id="Grupo_1171958" data-name="Grupo 1171958">
            <g id="Grupo_1167341" data-name="Grupo 1167341">
              <g id="Grupo_1166792" data-name="Grupo 1166792">
                <g transform="matrix(1, 0, 0, 1, -9, -6)" filter="url(#Trazado_904820)">
                  <g id="Trazado_904820-2" data-name="Trazado 904820" transform="translate(9 6)" fill="#e9f9fd">
                    <path d="M 40 78.50003051757812 C 34.80187606811523 78.50003051757812 29.76003265380859 77.48231506347656 25.01452255249023 75.47512054443359 C 20.43014526367188 73.53610229492188 16.31264495849609 70.75990295410156 12.77638912200928 67.2236328125 C 9.240133285522461 63.6873779296875 6.46393346786499 59.56987762451172 4.524899959564209 54.98550033569336 C 2.517722129821777 50.239990234375 1.5 45.19815444946289 1.5 40.00002288818359 C 1.5 34.8018913269043 2.517722129821777 29.76004600524902 4.524899959564209 25.01454544067383 C 6.46393346786499 20.43016815185547 9.240133285522461 16.31265640258789 12.77638912200928 12.77640056610107 C 16.31264495849609 9.240144729614258 20.43014526367188 6.463944911956787 25.01452255249023 4.524911880493164 C 29.76003265380859 2.517734050750732 34.8018684387207 1.500011801719666 40 1.500011801719666 C 45.1981315612793 1.500011801719666 50.23996734619141 2.517734050750732 54.98547744750977 4.524911880493164 C 59.56985473632812 6.463944911956787 63.68735504150391 9.240144729614258 67.22360992431641 12.77640056610107 C 70.75986480712891 16.31265640258789 73.53606414794922 20.43016815185547 75.47509765625 25.01454544067383 C 77.48227691650391 29.76004600524902 78.5 34.8018913269043 78.5 40.00002288818359 C 78.5 45.19815444946289 77.48227691650391 50.239990234375 75.47509765625 54.98550033569336 C 73.53606414794922 59.56987762451172 70.75986480712891 63.6873779296875 67.22360992431641 67.2236328125 C 63.68735504150391 70.75990295410156 59.56985473632812 73.53610229492188 54.98547744750977 75.47512054443359 C 50.23996734619141 77.48231506347656 45.19812393188477 78.50003051757812 40 78.50003051757812 Z" stroke="none"/>
                    <path d="M 40 3.000007629394531 C 35.00370788574219 3.000007629394531 30.15846633911133 3.977859497070312 25.59885406494141 5.906425476074219 C 21.19327926635742 7.769821166992188 17.23603820800781 10.43807983398438 13.83705139160156 13.83706665039062 C 10.43806457519531 17.23604965209961 7.769813537597656 21.19329071044922 5.906410217285156 25.59886169433594 C 3.977851867675781 30.15847778320312 3 35.00373077392578 3 40.00002288818359 C 3 44.99631500244141 3.977851867675781 49.84155654907227 5.906410217285156 54.40116882324219 C 7.769813537597656 58.80675506591797 10.43806457519531 62.76399612426758 13.83705139160156 66.16297912597656 C 17.23603820800781 69.56196594238281 21.19327926635742 72.230224609375 25.59885406494141 74.09362030029297 C 30.15846633911133 76.02218627929688 35.00370788574219 77.00003814697266 40 77.00003814697266 C 44.99629211425781 77.00003814697266 49.84153366088867 76.02218627929688 54.40114593505859 74.09362030029297 C 58.80672073364258 72.230224609375 62.76396179199219 69.56196594238281 66.16294860839844 66.16297912597656 C 69.56193542480469 62.76399612426758 72.23018646240234 58.80675506591797 74.09358978271484 54.40116882324219 C 76.02214813232422 49.84155654907227 77 44.99631500244141 77 40.00002288818359 C 77 35.00373077392578 76.02214813232422 30.15847778320312 74.09358978271484 25.59886169433594 C 72.23018646240234 21.19329071044922 69.56193542480469 17.23604965209961 66.16294860839844 13.83706665039062 C 62.76396179199219 10.43807983398438 58.80672073364258 7.769821166992188 54.40114593505859 5.906425476074219 C 49.84153366088867 3.977859497070312 44.99629211425781 3.000007629394531 40 3.000007629394531 M 40 7.62939453125e-06 C 62.09138488769531 7.62939453125e-06 80 17.90862274169922 80 40.00002288818359 C 80 62.09140777587891 62.09138488769531 80.00003814697266 40 80.00003814697266 C 17.90861511230469 80.00003814697266 0 62.09140777587891 0 40.00002288818359 C 0 17.90862274169922 17.90861511230469 7.62939453125e-06 40 7.62939453125e-06 Z" stroke="none" fill="#1d7083"/>
                  </g>
                </g>
              </g>
            </g>
          </g>
        </g>
      </g>
    </g>
    <g id="Page-1" transform="translate(837.949 2536.5)">
      <g id="_047---Ship" data-name="047---Ship" transform="translate(0 0)">
        <g id="Icons" transform="translate(0.904 0.904)">
          <path id="Shape" d="M18.993,31.809v1.809H0V31.809A1.814,1.814,0,0,1,1.809,30H17.184A1.814,1.814,0,0,1,18.993,31.809Z" transform="translate(0 -2.868)" fill="#ff9801"/>
          <path id="Shape-2" data-name="Shape" d="M18.993,34v9.948H9.044c-5.426,0-5.426-3.618-5.426-3.618A3.273,3.273,0,0,1,0,36.713V34Z" transform="translate(0 -3.25)" fill="#783e22"/>
          <path id="Shape-3" data-name="Shape" d="M44.9,36H55.757a.9.9,0,0,1,.9.9v2.713a.9.9,0,0,1-.9.9H44V36.9A.9.9,0,0,1,44.9,36Z" transform="translate(-4.206 -3.441)" fill="#ff9801"/>
          <path id="Shape-4" data-name="Shape" d="M56.713,36H54a.9.9,0,0,1,.9.9v2.713a.9.9,0,0,1-.9.9h2.713a.9.9,0,0,0,.9-.9V36.9A.9.9,0,0,0,56.713,36Z" transform="translate(-5.162 -3.441)" fill="#f57c00"/>
          <path id="Shape-5" data-name="Shape" d="M51.029,41c0,9.017-5.056,12.987-7.95,14.516a5.963,5.963,0,0,0-3.364-.95c-3.274,0-3.274,1.809-6.557,1.809s-3.274-1.809-6.557-1.809-3.274,1.809-6.557,1.809-3.274-1.809-6.557-1.809a5.675,5.675,0,0,0-2.4.461C8.151,53.209,4,49.185,4,41c0,0,0,3.618,5.426,3.618H38.367a1.814,1.814,0,0,0,1.809-1.809V41Z" transform="translate(-0.382 -3.919)" fill="sienna"/>
          <path id="Shape-6" data-name="Shape" d="M52.285,41c0,7.88-3.861,11.906-6.767,13.816a7.6,7.6,0,0,1,1.53.7C49.942,53.987,55,50.017,55,41Z" transform="translate(-4.351 -3.919)" fill="#783e22"/>
          <path id="Rectangle-path" d="M29,34h3.618v6.331H29Z" transform="translate(-2.772 -3.25)" fill="sienna"/>
          <path id="Shape-7" data-name="Shape" d="M29,9.948V1.809A1.814,1.814,0,0,1,30.809,0a1.768,1.768,0,0,1,1.275.534,1.768,1.768,0,0,1,.534,1.275v8.14Z" transform="translate(-2.772 0)" fill="sienna"/>
          <path id="Shape-8" data-name="Shape" d="M39.39,31.8H25.62c-.5,0-.741-.425-.562-.957a29.608,29.608,0,0,0,0-18.888c-.181-.532.062-.957.562-.957H39.39a1.447,1.447,0,0,1,1.247.957,29.608,29.608,0,0,1,0,18.888A1.447,1.447,0,0,1,39.39,31.8Z" transform="translate(-2.39 -1.052)" fill="#ffdc00"/>
          <path id="Shape-9" data-name="Shape" d="M41.871,11.957A1.447,1.447,0,0,0,40.624,11H37.911a1.447,1.447,0,0,1,1.247.957,29.608,29.608,0,0,1,0,18.888,1.447,1.447,0,0,1-1.247.957h2.713a1.447,1.447,0,0,0,1.247-.957,29.608,29.608,0,0,0,0-18.888Z" transform="translate(-3.624 -1.052)" fill="#fec108"/>
          <path id="Shape-10" data-name="Shape" d="M33.1,2,41.14,4.713,33,7.426Z" transform="translate(-3.155 -0.191)" fill="#f44335"/>
          <path id="Shape-11" data-name="Shape" d="M16.235,44.331V39.809A1.814,1.814,0,0,0,14.426,38H10.809A1.814,1.814,0,0,0,9,39.809v4.486" transform="translate(-0.86 -3.633)" fill="#37474f"/>
          <g id="Grupo_1203758" data-name="Grupo 1203758" transform="translate(24.419 37.081)">
            <path id="Shape-12" data-name="Shape" d="M27,44.618,28.809,41h3.618l1.809,3.618Z" transform="translate(-27 -41)" fill="#783e22"/>
            <circle id="Oval" cx="1.809" cy="1.809" r="1.809" transform="translate(18.088 3.618)" fill="#783e22"/>
          </g>
        </g>
        <g id="Icons_copy">
          <path id="Shape-13" data-name="Shape" d="M52.456,32.559H50.647V29.845h1.809a.9.9,0,0,0,0-1.809H43.411a.9.9,0,1,0,0,1.809h.9v2.713H41.6a1.809,1.809,0,0,0-1.809,1.809v5.426a.9.9,0,0,1-.9.9H33.118l-1.463-2.927V32.559H37.9a2.342,2.342,0,0,0,2.1-1.571,30.532,30.532,0,0,0,0-19.466,2.342,2.342,0,0,0-2.1-1.573h-6.25V8.791l7.521-2.507a.9.9,0,0,0,0-1.718L31.547,1.994A2.585,2.585,0,0,0,30.865.808,2.656,2.656,0,0,0,28.941,0a2.713,2.713,0,0,0-2.713,2.713V9.948H24.136a1.5,1.5,0,0,0-1.243.611,1.686,1.686,0,0,0-.181,1.537,28.726,28.726,0,0,1,0,18.309,1.682,1.682,0,0,0,.181,1.537,1.5,1.5,0,0,0,1.243.615h2.092v5.213L24.764,40.7H20.8V29.845a2.713,2.713,0,0,0-2.713-2.713V24.419h.9a.9.9,0,1,0,0-1.809H1.809a.9.9,0,1,0,0,1.809h.9v2.713A2.713,2.713,0,0,0,0,29.845v4.522c0,2.523,1.349,4.132,3.646,4.454C3.9,45.868,7.21,49.842,9.864,51.9a4.758,4.758,0,0,1-2.406.559,5.026,5.026,0,0,1-2.84-.791A6.77,6.77,0,0,0,.9,50.647a.9.9,0,0,0,0,1.809,5.019,5.019,0,0,1,2.841.792,6.775,6.775,0,0,0,3.713,1.017,6.77,6.77,0,0,0,3.714-1.017,5.026,5.026,0,0,1,2.84-.791,5.019,5.019,0,0,1,2.841.792,6.775,6.775,0,0,0,3.713,1.017,6.772,6.772,0,0,0,3.716-1.017,5.493,5.493,0,0,1,5.682,0,7.3,7.3,0,0,0,7.432,0,5.5,5.5,0,0,1,5.684,0,7.3,7.3,0,0,0,7.433,0,5.041,5.041,0,0,1,2.844-.791.9.9,0,1,0,0-1.809,6.783,6.783,0,0,0-3.716,1.017,5.041,5.041,0,0,1-2.844.792,5.711,5.711,0,0,1-1.2-.116c2.95-2.039,6.544-6.041,6.822-13.45h.032a1.809,1.809,0,0,0,1.809-1.809V34.367a1.809,1.809,0,0,0-1.809-1.809Zm-6.331-2.713h2.713v2.713H46.125ZM31.654,6.885V3.939l4.391,1.482ZM28.037,2.713a.9.9,0,0,1,.9-.9.884.884,0,0,1,.645.278.867.867,0,0,1,.26.627V9.948H28.037Zm-3.527,9.044H37.9a.592.592,0,0,1,.391.342,28.714,28.714,0,0,1,0,18.309.6.6,0,0,1-.391.342h-13.4a30.617,30.617,0,0,0,0-18.993Zm5.336,20.8v4.522H28.037V32.559Zm-2.154,6.331h2.5l.9,1.809H26.787ZM16.279,27.132H13.566V24.419h2.713Zm-7.235,0V24.419h2.713v2.713ZM4.522,24.419H7.235v2.713H4.522ZM2.713,28.941H18.088a.9.9,0,0,1,.9.9v.9H1.809v-.9A.9.9,0,0,1,2.713,28.941Zm1.809,8.14c-1.851,0-2.713-.862-2.713-2.713V32.559H18.993V40.7H17.184V37.081a2.713,2.713,0,0,0-2.713-2.713H10.853A2.713,2.713,0,0,0,8.14,37.081v3.437c-2.564-.569-2.707-2.307-2.713-2.532A.9.9,0,0,0,4.522,37.081ZM9.948,40.7V37.081a.9.9,0,0,1,.9-.9h.9V40.7Zm3.618-4.522h.9a.9.9,0,0,1,.9.9V40.7H13.566ZM43.6,51.471a6.567,6.567,0,0,0-3.362-.824,6.783,6.783,0,0,0-3.714,1.017,5.492,5.492,0,0,1-5.683,0,6.783,6.783,0,0,0-3.717-1.017,6.783,6.783,0,0,0-3.714,1.017,5.032,5.032,0,0,1-2.842.792,5.02,5.02,0,0,1-2.839-.791,6.776,6.776,0,0,0-3.715-1.017,6.866,6.866,0,0,0-2.3.355,13.846,13.846,0,0,1-6-9.532,7.68,7.68,0,0,0,4.237,1.036H38.889A2.713,2.713,0,0,0,41.6,39.794v-.9h9.012c-.306,7.464-4.309,11.027-7.015,12.581Zm-2-14.39V34.367H52.456v2.713Z" transform="translate(0 0)"/>
          <path id="Shape-14" data-name="Shape" d="M32.9,23.879h2.713v3.165a.9.9,0,1,0,1.809,0V23.879H40.14a.9.9,0,1,0,0-1.809H37.426V18.9a.9.9,0,1,0-1.809,0V22.07H32.9a.9.9,0,0,0,0,1.809Z" transform="translate(-3.059 -1.721)"/>
          <circle id="Oval-2" data-name="Oval" cx="0.904" cy="0.904" r="0.904" transform="translate(12.662 45.22)"/>
          <circle id="Oval-3" data-name="Oval" cx="0.904" cy="0.904" r="0.904" transform="translate(17.184 45.22)"/>
          <circle id="Oval-4" data-name="Oval" cx="0.904" cy="0.904" r="0.904" transform="translate(21.706 45.22)"/>
          <circle id="Oval-5" data-name="Oval" cx="0.904" cy="0.904" r="0.904" transform="translate(26.228 45.22)"/>
          <circle id="Oval-6" data-name="Oval" cx="0.904" cy="0.904" r="0.904" transform="translate(30.75 45.22)"/>
          <circle id="Oval-7" data-name="Oval" cx="0.904" cy="0.904" r="0.904" transform="translate(35.272 45.22)"/>
          <path id="Shape-15" data-name="Shape" d="M49.713,50.426A2.713,2.713,0,1,0,47,47.713,2.713,2.713,0,0,0,49.713,50.426Zm0-3.618a.9.9,0,1,1-.9.9A.9.9,0,0,1,49.713,46.809Z" transform="translate(-4.493 -4.302)"/>
        </g>
      </g>
    </g>
  </g>
</svg>
